G04 PROTEUS GERBER X2 FILE*
%TF.GenerationSoftware,Labcenter,Proteus,8.6-SP2-Build23525*%
%TF.CreationDate,2019-07-09T03:39:36+00:00*%
%TF.FileFunction,Copper,L1,Bot*%
%TF.FilePolarity,Positive*%
%TF.Part,Single*%
%FSLAX45Y45*%
%MOMM*%
G01*
%TA.AperFunction,Conductor*%
%ADD10C,1.270000*%
%ADD11C,1.524000*%
%TA.AperFunction,ComponentPad*%
%ADD12C,2.032000*%
%TA.AperFunction,ComponentPad*%
%ADD13C,3.048000*%
%TA.AperFunction,Profile*%
%ADD14C,0.203200*%
%TA.AperFunction,NonConductor*%
%ADD15C,0.063500*%
%TD.AperFunction*%
D10*
X+7600000Y-2052480D02*
X+5285480Y-2052480D01*
X+4665000Y-1432000D01*
X+7600000Y-2052480D02*
X+7874000Y-2326480D01*
X+7874000Y-2984500D01*
X+7648500Y-3210000D01*
X+6603000Y-3210000D01*
X+2476500Y-1778000D02*
X+2476500Y-1524000D01*
X+2413000Y-1460500D01*
X+2413000Y+3302000D01*
X+2603500Y+3492500D01*
X+7018400Y+3492500D01*
X+7120000Y+3390900D01*
X+7120000Y+3298000D01*
X-665500Y+4941000D02*
X-546100Y+4941000D01*
X-444500Y+4839400D01*
X-444500Y-508000D01*
X-207670Y-744830D01*
X+1270000Y-744830D01*
X+1477200Y-952030D01*
X+1477200Y-1700000D01*
X+2476500Y-1778000D02*
X+3556000Y-1778000D01*
X+4381500Y-2603500D01*
X+4508500Y-2603500D01*
X+4635500Y-2476500D01*
X-665500Y+4941000D02*
X-1079500Y+4941000D01*
X-1270000Y+4750500D01*
X-1270000Y-2821000D01*
X-779000Y-3312000D01*
X+4635500Y-2476500D02*
X+4663280Y-2448720D01*
X+7600000Y-2448720D01*
X+1477200Y-1700000D02*
X+1477200Y-1803400D01*
X+1578800Y-1905000D01*
X+2349500Y-1905000D01*
X+2476500Y-1778000D01*
X+4635500Y-2476500D02*
X+4635500Y-2603500D01*
X+4665000Y-2633000D01*
X+4665000Y-3207000D01*
X+6358000Y+3298000D02*
X+6358000Y+1143000D01*
X+6206000Y+991000D01*
X+6206000Y+304000D01*
X+6104000Y+3298000D02*
X+6104000Y+1714500D01*
X+5809760Y+1420260D01*
X+5809760Y+304000D01*
X+5850000Y+3298000D02*
X+5850000Y+2413000D01*
X+5413520Y+1976520D01*
X+5413520Y+304000D01*
X+4834000Y+3298000D02*
X+4834000Y+1905000D01*
X+5017280Y+1721720D01*
X+5017280Y+304000D01*
X+4318000Y+5586000D02*
X+4318000Y+5676900D01*
X+4216400Y+5778500D01*
X+1587500Y+5778500D01*
X+1521000Y+5712000D01*
X+851500Y+5712000D01*
X+4572000Y+5586000D02*
X+4572000Y+5435600D01*
X+4470400Y+5334000D01*
X+2730500Y+5334000D01*
X+2606500Y+5458000D01*
X+851500Y+5458000D01*
D11*
X+5334000Y-1206500D02*
X+3496600Y-1206500D01*
X+3395000Y-1308100D01*
X+3395000Y-1432000D01*
X+7302500Y-1079500D02*
X+5461000Y-1079500D01*
X+5334000Y-1206500D01*
X+7302500Y-127000D02*
X+8191500Y-127000D01*
X+8382000Y+63500D01*
X+8382000Y+5778500D01*
X+8191500Y+5969000D01*
X+762000Y+5969000D01*
X+242000Y+5449000D01*
X-665500Y+5449000D01*
X+7374000Y+3298000D02*
X+7374000Y+3683000D01*
X+7183500Y+3873500D01*
X+2476500Y+3873500D01*
X+2239200Y+3636200D01*
X+2239200Y-1700000D01*
X+5333000Y-3210000D02*
X+5333000Y-3492500D01*
X+7874000Y-3492500D01*
X+8064500Y-3302000D01*
X+8064500Y-1724500D01*
X+7600000Y-1260000D01*
X+3395000Y-3207000D02*
X+2857500Y-3207000D01*
X+2508500Y-3556000D01*
X-423400Y-3556000D01*
X-525000Y-3454400D01*
X-525000Y-3312000D01*
X+5334000Y-1333500D02*
X+5334000Y-1206500D01*
X+7374000Y+3298000D02*
X+7374000Y+2794000D01*
X+6604000Y+2024000D01*
X+6604000Y+63500D01*
X+6794500Y-127000D01*
X+7302500Y-127000D01*
X+7600000Y-1260000D02*
X+7302500Y-1260000D01*
X+7302500Y-1079500D01*
X+5334000Y-1333500D02*
X+5334000Y-1425000D01*
X+5339000Y-1425000D01*
X+3395000Y-3207000D02*
X+3395000Y-3492500D01*
X+5050500Y-3492500D01*
X+5333000Y-3210000D01*
X+7302500Y-127000D02*
X+7302500Y-1079500D01*
D10*
X+1985200Y-1700000D02*
X+1985200Y+2921000D01*
X+1734200Y+3172000D01*
X+851500Y+3172000D01*
X+1731200Y-1700000D02*
X+1731200Y-1460500D01*
X+1827550Y-1364150D01*
X+1827550Y+1333500D01*
X+1591590Y+1569460D01*
X+825500Y+1569460D01*
X+635000Y+1759960D01*
X+635000Y+3324400D01*
X+736600Y+3426000D01*
X+851500Y+3426000D01*
X+3564000Y+3298000D02*
X+3564000Y+2730500D01*
X+3527520Y+2694020D01*
X+3527520Y+310000D01*
X+4320000Y+310000D02*
X+3692500Y-317500D01*
X+2794000Y-317500D01*
X+2603500Y-127000D01*
X+2603500Y+2845500D01*
X+3056000Y+3298000D01*
X+3923760Y+310000D02*
X+3677260Y+63500D01*
X+2984500Y+63500D01*
X+2794000Y+254000D01*
X+2794000Y+1778000D01*
X+3310000Y+2294000D01*
X+3310000Y+3298000D01*
X-17000Y-3312000D02*
X-17000Y-2286000D01*
X-889000Y-1414000D01*
X-889000Y+3823400D01*
X-787400Y+3925000D01*
X-665500Y+3925000D01*
X-271000Y-3312000D02*
X-271000Y-2921000D01*
X-1079500Y-2112500D01*
X-1079500Y+4179000D01*
X-665500Y+4179000D01*
X+8079000Y+293000D02*
X+8079000Y+4826000D01*
X+7854343Y+5050657D01*
X+5016500Y+5050657D01*
X+4826000Y+5241157D01*
X+4826000Y+5586000D01*
X+851500Y+4696000D02*
X-63500Y+4696000D01*
X-254000Y+4505500D01*
X-254000Y-317500D01*
X+951500Y-317500D01*
X+1581000Y+312000D01*
X+1184760Y+312000D02*
X+745760Y-127000D01*
X-63500Y-127000D01*
X-63500Y+4191000D01*
X+187500Y+4442000D01*
X+851500Y+4442000D01*
X+851500Y+4188000D02*
X+317500Y+4188000D01*
X+127000Y+3997500D01*
X+127000Y+63500D01*
X+540020Y+63500D01*
X+788520Y+312000D01*
X+392280Y+312000D02*
X+392280Y+3683000D01*
X+643280Y+3934000D01*
X+851500Y+3934000D01*
X+7600000Y-1656240D02*
X+6840240Y-1656240D01*
X+6609000Y-1425000D01*
D12*
X+3048000Y+5586000D03*
X+3302000Y+5586000D03*
X+3556000Y+5586000D03*
X+3810000Y+5586000D03*
X+4064000Y+5586000D03*
X+4318000Y+5586000D03*
X+4572000Y+5586000D03*
X+4826000Y+5586000D03*
X+5080000Y+5586000D03*
X+5334000Y+5586000D03*
X+5588000Y+5586000D03*
X+5842000Y+5586000D03*
X+6096000Y+5586000D03*
X+6350000Y+5586000D03*
X+6604000Y+5586000D03*
X+6858000Y+5586000D03*
X+7112000Y+5586000D03*
X+7366000Y+5586000D03*
X+7620000Y+5586000D03*
X+7874000Y+5586000D03*
X+7882000Y+3298000D03*
X+7628000Y+3298000D03*
X+7374000Y+3298000D03*
X+7120000Y+3298000D03*
X+6866000Y+3298000D03*
X+6612000Y+3298000D03*
X+6358000Y+3298000D03*
X+6104000Y+3298000D03*
X+5850000Y+3298000D03*
X+5596000Y+3298000D03*
X+5342000Y+3298000D03*
X+5088000Y+3298000D03*
X+4834000Y+3298000D03*
X+4580000Y+3298000D03*
X+4326000Y+3298000D03*
X+4072000Y+3298000D03*
X+3818000Y+3298000D03*
X+3564000Y+3298000D03*
X+3310000Y+3298000D03*
X+3056000Y+3298000D03*
X+851500Y+5712000D03*
X+851500Y+5458000D03*
X+851500Y+5204000D03*
X+851500Y+4950000D03*
X+851500Y+4696000D03*
X+851500Y+4442000D03*
X+851500Y+4188000D03*
X+851500Y+3934000D03*
X+851500Y+3680000D03*
X+851500Y+3426000D03*
X+851500Y+3172000D03*
X+851500Y+2918000D03*
X+851500Y+2664000D03*
X+851500Y+2410000D03*
X+851500Y+2156000D03*
X-665500Y+2147000D03*
X-665500Y+2401000D03*
X-665500Y+2655000D03*
X-665500Y+2909000D03*
X-665500Y+3163000D03*
X-665500Y+3417000D03*
X-665500Y+3671000D03*
X-665500Y+3925000D03*
X-665500Y+4179000D03*
X-665500Y+4433000D03*
X-665500Y+4687000D03*
X-665500Y+4941000D03*
X-665500Y+5195000D03*
X-665500Y+5449000D03*
X-665500Y+5703000D03*
X+3395000Y-1432000D03*
X+3649000Y-1432000D03*
X+3903000Y-1432000D03*
X+4157000Y-1432000D03*
X+4411000Y-1432000D03*
X+4665000Y-1432000D03*
X+4665000Y-3207000D03*
X+4411000Y-3207000D03*
X+4157000Y-3207000D03*
X+3903000Y-3207000D03*
X+3649000Y-3207000D03*
X+3395000Y-3207000D03*
X+5339000Y-1425000D03*
X+5593000Y-1425000D03*
X+5847000Y-1425000D03*
X+6101000Y-1425000D03*
X+6355000Y-1425000D03*
X+6609000Y-1425000D03*
X+6603000Y-3210000D03*
X+6349000Y-3210000D03*
X+6095000Y-3210000D03*
X+5841000Y-3210000D03*
X+5587000Y-3210000D03*
X+5333000Y-3210000D03*
X+237000Y-3312000D03*
X-17000Y-3312000D03*
X-271000Y-3312000D03*
X-525000Y-3312000D03*
X-779000Y-3312000D03*
X+2239200Y-1700000D03*
X+1985200Y-1700000D03*
X+1731200Y-1700000D03*
X+1477200Y-1700000D03*
X+1223200Y-1700000D03*
D13*
X+6206000Y+304000D03*
X+5809760Y+304000D03*
X+5413520Y+304000D03*
X+5017280Y+304000D03*
X+4320000Y+310000D03*
X+3923760Y+310000D03*
X+3527520Y+310000D03*
X+3131280Y+310000D03*
X+8079000Y+293000D03*
X+7682760Y+293000D03*
X+7286520Y+293000D03*
X+6890280Y+293000D03*
X+7600000Y-1260000D03*
X+7600000Y-1656240D03*
X+7600000Y-2052480D03*
X+7600000Y-2448720D03*
X+1581000Y+312000D03*
X+1184760Y+312000D03*
X+788520Y+312000D03*
X+392280Y+312000D03*
D14*
X-1432000Y-3830000D02*
X+8568000Y-3830000D01*
X+8568000Y+6170000D01*
X-1432000Y+6170000D01*
X-1432000Y-3830000D01*
D15*
X+7818546Y-915595D02*
X+7909986Y-915595D01*
X+7981106Y-915595D02*
X+8016666Y-915595D01*
X+8108106Y-915595D02*
X+8148746Y-915595D01*
X+8209706Y-915595D02*
X+8301146Y-915595D01*
X+7803306Y-910515D02*
X+7930306Y-910515D01*
X+7981106Y-910515D02*
X+8016666Y-910515D01*
X+8103026Y-910515D02*
X+8148746Y-910515D01*
X+8209706Y-910515D02*
X+8316386Y-910515D01*
X+7798226Y-905435D02*
X+7930306Y-905435D01*
X+7981106Y-905435D02*
X+8016666Y-905435D01*
X+8103026Y-905435D02*
X+8148746Y-905435D01*
X+8209706Y-905435D02*
X+8326546Y-905435D01*
X+7788066Y-900355D02*
X+7930306Y-900355D01*
X+7981106Y-900355D02*
X+8016666Y-900355D01*
X+8097946Y-900355D02*
X+8148746Y-900355D01*
X+8209706Y-900355D02*
X+8336706Y-900355D01*
X+7782986Y-895275D02*
X+7930306Y-895275D01*
X+7981106Y-895275D02*
X+8016666Y-895275D01*
X+8092866Y-895275D02*
X+8148746Y-895275D01*
X+8209706Y-895275D02*
X+8341786Y-895275D01*
X+7777906Y-890195D02*
X+7849026Y-890195D01*
X+7879506Y-890195D02*
X+7930306Y-890195D01*
X+7981106Y-890195D02*
X+8016666Y-890195D01*
X+8092866Y-890195D02*
X+8148746Y-890195D01*
X+8209706Y-890195D02*
X+8346866Y-890195D01*
X+7777906Y-885115D02*
X+7833786Y-885115D01*
X+7894746Y-885115D02*
X+7930306Y-885115D01*
X+7981106Y-885115D02*
X+8016666Y-885115D01*
X+8087786Y-885115D02*
X+8148746Y-885115D01*
X+8209706Y-885115D02*
X+8245266Y-885115D01*
X+8290986Y-885115D02*
X+8351946Y-885115D01*
X+7772826Y-880035D02*
X+7823626Y-880035D01*
X+7894746Y-880035D02*
X+7930306Y-880035D01*
X+7981106Y-880035D02*
X+8016666Y-880035D01*
X+8087786Y-880035D02*
X+8148746Y-880035D01*
X+8209706Y-880035D02*
X+8245266Y-880035D01*
X+8301146Y-880035D02*
X+8357026Y-880035D01*
X+7767746Y-874955D02*
X+7818546Y-874955D01*
X+7894746Y-874955D02*
X+7930306Y-874955D01*
X+7981106Y-874955D02*
X+8016666Y-874955D01*
X+8082706Y-874955D02*
X+8148746Y-874955D01*
X+8209706Y-874955D02*
X+8245266Y-874955D01*
X+8311306Y-874955D02*
X+8362106Y-874955D01*
X+7767746Y-869875D02*
X+7813466Y-869875D01*
X+7894746Y-869875D02*
X+7930306Y-869875D01*
X+7981106Y-869875D02*
X+8016666Y-869875D01*
X+8077626Y-869875D02*
X+8148746Y-869875D01*
X+8209706Y-869875D02*
X+8245266Y-869875D01*
X+8316386Y-869875D02*
X+8362106Y-869875D01*
X+7762666Y-864795D02*
X+7808386Y-864795D01*
X+7894746Y-864795D02*
X+7930306Y-864795D01*
X+7981106Y-864795D02*
X+8016666Y-864795D01*
X+8077626Y-864795D02*
X+8148746Y-864795D01*
X+8209706Y-864795D02*
X+8245266Y-864795D01*
X+8321466Y-864795D02*
X+8367186Y-864795D01*
X+7762666Y-859715D02*
X+7803306Y-859715D01*
X+7894746Y-859715D02*
X+7930306Y-859715D01*
X+7981106Y-859715D02*
X+8016666Y-859715D01*
X+8072546Y-859715D02*
X+8148746Y-859715D01*
X+8209706Y-859715D02*
X+8245266Y-859715D01*
X+8326546Y-859715D02*
X+8367186Y-859715D01*
X+7762666Y-854635D02*
X+7803306Y-854635D01*
X+7894746Y-854635D02*
X+7930306Y-854635D01*
X+7981106Y-854635D02*
X+8016666Y-854635D01*
X+8072546Y-854635D02*
X+8148746Y-854635D01*
X+8209706Y-854635D02*
X+8245266Y-854635D01*
X+8326546Y-854635D02*
X+8372266Y-854635D01*
X+7762666Y-849555D02*
X+7798226Y-849555D01*
X+7894746Y-849555D02*
X+7930306Y-849555D01*
X+7981106Y-849555D02*
X+8016666Y-849555D01*
X+8067466Y-849555D02*
X+8108106Y-849555D01*
X+8113186Y-849555D02*
X+8148746Y-849555D01*
X+8209706Y-849555D02*
X+8245266Y-849555D01*
X+8331626Y-849555D02*
X+8372266Y-849555D01*
X+7757586Y-844475D02*
X+7798226Y-844475D01*
X+7894746Y-844475D02*
X+7930306Y-844475D01*
X+7981106Y-844475D02*
X+8016666Y-844475D01*
X+8062386Y-844475D02*
X+8108106Y-844475D01*
X+8113186Y-844475D02*
X+8148746Y-844475D01*
X+8209706Y-844475D02*
X+8245266Y-844475D01*
X+8331626Y-844475D02*
X+8372266Y-844475D01*
X+7757586Y-839395D02*
X+7798226Y-839395D01*
X+7894746Y-839395D02*
X+7930306Y-839395D01*
X+7981106Y-839395D02*
X+8016666Y-839395D01*
X+8062386Y-839395D02*
X+8103026Y-839395D01*
X+8113186Y-839395D02*
X+8148746Y-839395D01*
X+8209706Y-839395D02*
X+8245266Y-839395D01*
X+8331626Y-839395D02*
X+8372266Y-839395D01*
X+7757586Y-834315D02*
X+7798226Y-834315D01*
X+7894746Y-834315D02*
X+7930306Y-834315D01*
X+7981106Y-834315D02*
X+8016666Y-834315D01*
X+8057306Y-834315D02*
X+8103026Y-834315D01*
X+8113186Y-834315D02*
X+8148746Y-834315D01*
X+8209706Y-834315D02*
X+8245266Y-834315D01*
X+8336706Y-834315D02*
X+8377346Y-834315D01*
X+7757586Y-829235D02*
X+7798226Y-829235D01*
X+7894746Y-829235D02*
X+7930306Y-829235D01*
X+7981106Y-829235D02*
X+8016666Y-829235D01*
X+8057306Y-829235D02*
X+8097946Y-829235D01*
X+8113186Y-829235D02*
X+8148746Y-829235D01*
X+8209706Y-829235D02*
X+8245266Y-829235D01*
X+8336706Y-829235D02*
X+8377346Y-829235D01*
X+7757586Y-824155D02*
X+7793146Y-824155D01*
X+7854106Y-824155D02*
X+7930306Y-824155D01*
X+7981106Y-824155D02*
X+8016666Y-824155D01*
X+8052226Y-824155D02*
X+8097946Y-824155D01*
X+8113186Y-824155D02*
X+8148746Y-824155D01*
X+8209706Y-824155D02*
X+8245266Y-824155D01*
X+8336706Y-824155D02*
X+8377346Y-824155D01*
X+7757586Y-819075D02*
X+7793146Y-819075D01*
X+7854106Y-819075D02*
X+7930306Y-819075D01*
X+7981106Y-819075D02*
X+8016666Y-819075D01*
X+8047146Y-819075D02*
X+8092866Y-819075D01*
X+8113186Y-819075D02*
X+8148746Y-819075D01*
X+8209706Y-819075D02*
X+8245266Y-819075D01*
X+8336706Y-819075D02*
X+8377346Y-819075D01*
X+7757586Y-813995D02*
X+7793146Y-813995D01*
X+7854106Y-813995D02*
X+7930306Y-813995D01*
X+7981106Y-813995D02*
X+8016666Y-813995D01*
X+8047146Y-813995D02*
X+8087786Y-813995D01*
X+8113186Y-813995D02*
X+8148746Y-813995D01*
X+8209706Y-813995D02*
X+8245266Y-813995D01*
X+8336706Y-813995D02*
X+8377346Y-813995D01*
X+7757586Y-808915D02*
X+7793146Y-808915D01*
X+7854106Y-808915D02*
X+7930306Y-808915D01*
X+7981106Y-808915D02*
X+8016666Y-808915D01*
X+8042066Y-808915D02*
X+8087786Y-808915D01*
X+8113186Y-808915D02*
X+8148746Y-808915D01*
X+8209706Y-808915D02*
X+8245266Y-808915D01*
X+8336706Y-808915D02*
X+8377346Y-808915D01*
X+7757586Y-803835D02*
X+7793146Y-803835D01*
X+7854106Y-803835D02*
X+7930306Y-803835D01*
X+7981106Y-803835D02*
X+8016666Y-803835D01*
X+8042066Y-803835D02*
X+8082706Y-803835D01*
X+8113186Y-803835D02*
X+8148746Y-803835D01*
X+8209706Y-803835D02*
X+8245266Y-803835D01*
X+8336706Y-803835D02*
X+8377346Y-803835D01*
X+7757586Y-798755D02*
X+7793146Y-798755D01*
X+7981106Y-798755D02*
X+8016666Y-798755D01*
X+8036986Y-798755D02*
X+8082706Y-798755D01*
X+8113186Y-798755D02*
X+8148746Y-798755D01*
X+8209706Y-798755D02*
X+8245266Y-798755D01*
X+8336706Y-798755D02*
X+8377346Y-798755D01*
X+7757586Y-793675D02*
X+7793146Y-793675D01*
X+7981106Y-793675D02*
X+8016666Y-793675D01*
X+8036986Y-793675D02*
X+8077626Y-793675D01*
X+8113186Y-793675D02*
X+8148746Y-793675D01*
X+8209706Y-793675D02*
X+8245266Y-793675D01*
X+8336706Y-793675D02*
X+8377346Y-793675D01*
X+7757586Y-788595D02*
X+7798226Y-788595D01*
X+7981106Y-788595D02*
X+8016666Y-788595D01*
X+8031906Y-788595D02*
X+8072546Y-788595D01*
X+8113186Y-788595D02*
X+8148746Y-788595D01*
X+8209706Y-788595D02*
X+8245266Y-788595D01*
X+8336706Y-788595D02*
X+8377346Y-788595D01*
X+7757586Y-783515D02*
X+7798226Y-783515D01*
X+7981106Y-783515D02*
X+8016666Y-783515D01*
X+8026826Y-783515D02*
X+8072546Y-783515D01*
X+8113186Y-783515D02*
X+8148746Y-783515D01*
X+8209706Y-783515D02*
X+8245266Y-783515D01*
X+8336706Y-783515D02*
X+8377346Y-783515D01*
X+7757586Y-778435D02*
X+7798226Y-778435D01*
X+7981106Y-778435D02*
X+8016666Y-778435D01*
X+8026826Y-778435D02*
X+8067466Y-778435D01*
X+8113186Y-778435D02*
X+8148746Y-778435D01*
X+8209706Y-778435D02*
X+8245266Y-778435D01*
X+8331626Y-778435D02*
X+8372266Y-778435D01*
X+7757586Y-773355D02*
X+7798226Y-773355D01*
X+7981106Y-773355D02*
X+8011586Y-773355D01*
X+8021746Y-773355D02*
X+8067466Y-773355D01*
X+8113186Y-773355D02*
X+8148746Y-773355D01*
X+8209706Y-773355D02*
X+8245266Y-773355D01*
X+8331626Y-773355D02*
X+8372266Y-773355D01*
X+7762666Y-768275D02*
X+7803306Y-768275D01*
X+7981106Y-768275D02*
X+8011586Y-768275D01*
X+8021746Y-768275D02*
X+8062386Y-768275D01*
X+8113186Y-768275D02*
X+8148746Y-768275D01*
X+8209706Y-768275D02*
X+8245266Y-768275D01*
X+8331626Y-768275D02*
X+8372266Y-768275D01*
X+7762666Y-763195D02*
X+7803306Y-763195D01*
X+7981106Y-763195D02*
X+8011586Y-763195D01*
X+8016666Y-763195D02*
X+8057306Y-763195D01*
X+8113186Y-763195D02*
X+8148746Y-763195D01*
X+8209706Y-763195D02*
X+8245266Y-763195D01*
X+8326546Y-763195D02*
X+8372266Y-763195D01*
X+7762666Y-758115D02*
X+7808386Y-758115D01*
X+7981106Y-758115D02*
X+8057306Y-758115D01*
X+8113186Y-758115D02*
X+8148746Y-758115D01*
X+8209706Y-758115D02*
X+8245266Y-758115D01*
X+8326546Y-758115D02*
X+8367186Y-758115D01*
X+7767746Y-753035D02*
X+7808386Y-753035D01*
X+7981106Y-753035D02*
X+8052226Y-753035D01*
X+8113186Y-753035D02*
X+8148746Y-753035D01*
X+8209706Y-753035D02*
X+8245266Y-753035D01*
X+8321466Y-753035D02*
X+8367186Y-753035D01*
X+7767746Y-747955D02*
X+7813466Y-747955D01*
X+7981106Y-747955D02*
X+8052226Y-747955D01*
X+8113186Y-747955D02*
X+8148746Y-747955D01*
X+8209706Y-747955D02*
X+8245266Y-747955D01*
X+8321466Y-747955D02*
X+8367186Y-747955D01*
X+7772826Y-742875D02*
X+7818546Y-742875D01*
X+7981106Y-742875D02*
X+8047146Y-742875D01*
X+8113186Y-742875D02*
X+8148746Y-742875D01*
X+8209706Y-742875D02*
X+8245266Y-742875D01*
X+8316386Y-742875D02*
X+8362106Y-742875D01*
X+7772826Y-737795D02*
X+7823626Y-737795D01*
X+7981106Y-737795D02*
X+8047146Y-737795D01*
X+8113186Y-737795D02*
X+8148746Y-737795D01*
X+8209706Y-737795D02*
X+8245266Y-737795D01*
X+8306226Y-737795D02*
X+8357026Y-737795D01*
X+7777906Y-732715D02*
X+7833786Y-732715D01*
X+7894746Y-732715D02*
X+7920146Y-732715D01*
X+7981106Y-732715D02*
X+8042066Y-732715D01*
X+8113186Y-732715D02*
X+8148746Y-732715D01*
X+8209706Y-732715D02*
X+8245266Y-732715D01*
X+8296066Y-732715D02*
X+8357026Y-732715D01*
X+7782986Y-727635D02*
X+7843946Y-727635D01*
X+7879506Y-727635D02*
X+7925226Y-727635D01*
X+7981106Y-727635D02*
X+8036986Y-727635D01*
X+8113186Y-727635D02*
X+8148746Y-727635D01*
X+8209706Y-727635D02*
X+8245266Y-727635D01*
X+8275746Y-727635D02*
X+8351946Y-727635D01*
X+7788066Y-722555D02*
X+7925226Y-722555D01*
X+7981106Y-722555D02*
X+8036986Y-722555D01*
X+8113186Y-722555D02*
X+8148746Y-722555D01*
X+8209706Y-722555D02*
X+8346866Y-722555D01*
X+7793146Y-717475D02*
X+7925226Y-717475D01*
X+7981106Y-717475D02*
X+8031906Y-717475D01*
X+8113186Y-717475D02*
X+8148746Y-717475D01*
X+8209706Y-717475D02*
X+8341786Y-717475D01*
X+7798226Y-712395D02*
X+7925226Y-712395D01*
X+7981106Y-712395D02*
X+8031906Y-712395D01*
X+8113186Y-712395D02*
X+8148746Y-712395D01*
X+8209706Y-712395D02*
X+8331626Y-712395D01*
X+7808386Y-707315D02*
X+7925226Y-707315D01*
X+7981106Y-707315D02*
X+8026826Y-707315D01*
X+8113186Y-707315D02*
X+8148746Y-707315D01*
X+8209706Y-707315D02*
X+8321466Y-707315D01*
X+7818546Y-702235D02*
X+7915066Y-702235D01*
X+7981106Y-702235D02*
X+8021746Y-702235D01*
X+8113186Y-702235D02*
X+8148746Y-702235D01*
X+8209706Y-702235D02*
X+8306226Y-702235D01*
X+7843946Y-697155D02*
X+7884586Y-697155D01*
X+2197576Y+4413285D02*
X+2268696Y+4413285D01*
X+5372576Y+4413285D02*
X+5423376Y+4413285D01*
X+6312376Y+4413285D02*
X+6347936Y+4413285D01*
X+6607016Y+4413285D02*
X+6657816Y+4413285D01*
X+2182336Y+4418365D02*
X+2283936Y+4418365D01*
X+5372576Y+4418365D02*
X+5433536Y+4418365D01*
X+6312376Y+4418365D02*
X+6347936Y+4418365D01*
X+6607016Y+4418365D02*
X+6667976Y+4418365D01*
X+2177256Y+4423445D02*
X+2294096Y+4423445D01*
X+5372576Y+4423445D02*
X+5438616Y+4423445D01*
X+6312376Y+4423445D02*
X+6347936Y+4423445D01*
X+6607016Y+4423445D02*
X+6673056Y+4423445D01*
X+2172176Y+4428525D02*
X+2299176Y+4428525D01*
X+5372576Y+4428525D02*
X+5443696Y+4428525D01*
X+6312376Y+4428525D02*
X+6347936Y+4428525D01*
X+6607016Y+4428525D02*
X+6678136Y+4428525D01*
X+2167096Y+4433605D02*
X+2304256Y+4433605D01*
X+5372576Y+4433605D02*
X+5448776Y+4433605D01*
X+6312376Y+4433605D02*
X+6347936Y+4433605D01*
X+6607016Y+4433605D02*
X+6683216Y+4433605D01*
X+2167096Y+4438685D02*
X+2212816Y+4438685D01*
X+2253456Y+4438685D02*
X+2309336Y+4438685D01*
X+5403056Y+4438685D02*
X+5448776Y+4438685D01*
X+6312376Y+4438685D02*
X+6347936Y+4438685D01*
X+6469856Y+4438685D02*
X+6601936Y+4438685D01*
X+6637496Y+4438685D02*
X+6683216Y+4438685D01*
X+2162016Y+4443765D02*
X+2202656Y+4443765D01*
X+2263616Y+4443765D02*
X+2309336Y+4443765D01*
X+5408136Y+4443765D02*
X+5453856Y+4443765D01*
X+6312376Y+4443765D02*
X+6347936Y+4443765D01*
X+6469856Y+4443765D02*
X+6601936Y+4443765D01*
X+6642576Y+4443765D02*
X+6688296Y+4443765D01*
X+2162016Y+4448845D02*
X+2202656Y+4448845D01*
X+2273776Y+4448845D02*
X+2314416Y+4448845D01*
X+5413216Y+4448845D02*
X+5453856Y+4448845D01*
X+6312376Y+4448845D02*
X+6347936Y+4448845D01*
X+6469856Y+4448845D02*
X+6601936Y+4448845D01*
X+6647656Y+4448845D02*
X+6688296Y+4448845D01*
X+2162016Y+4453925D02*
X+2197576Y+4453925D01*
X+2273776Y+4453925D02*
X+2314416Y+4453925D01*
X+5418296Y+4453925D02*
X+5458936Y+4453925D01*
X+6312376Y+4453925D02*
X+6347936Y+4453925D01*
X+6469856Y+4453925D02*
X+6601936Y+4453925D01*
X+6652736Y+4453925D02*
X+6693376Y+4453925D01*
X+2162016Y+4459005D02*
X+2197576Y+4459005D01*
X+2278856Y+4459005D02*
X+2314416Y+4459005D01*
X+5418296Y+4459005D02*
X+5458936Y+4459005D01*
X+6312376Y+4459005D02*
X+6347936Y+4459005D01*
X+6469856Y+4459005D02*
X+6601936Y+4459005D01*
X+6652736Y+4459005D02*
X+6693376Y+4459005D01*
X+2162016Y+4464085D02*
X+2197576Y+4464085D01*
X+2278856Y+4464085D02*
X+2314416Y+4464085D01*
X+5423376Y+4464085D02*
X+5458936Y+4464085D01*
X+6312376Y+4464085D02*
X+6347936Y+4464085D01*
X+6657816Y+4464085D02*
X+6693376Y+4464085D01*
X+2162016Y+4469165D02*
X+2197576Y+4469165D01*
X+2278856Y+4469165D02*
X+2314416Y+4469165D01*
X+5423376Y+4469165D02*
X+5464016Y+4469165D01*
X+6312376Y+4469165D02*
X+6347936Y+4469165D01*
X+6657816Y+4469165D02*
X+6698456Y+4469165D01*
X+2167096Y+4474245D02*
X+2202656Y+4474245D01*
X+2278856Y+4474245D02*
X+2314416Y+4474245D01*
X+5423376Y+4474245D02*
X+5464016Y+4474245D01*
X+6312376Y+4474245D02*
X+6347936Y+4474245D01*
X+6657816Y+4474245D02*
X+6698456Y+4474245D01*
X+2167096Y+4479325D02*
X+2207736Y+4479325D01*
X+2273776Y+4479325D02*
X+2314416Y+4479325D01*
X+3086576Y+4479325D02*
X+3117056Y+4479325D01*
X+5428456Y+4479325D02*
X+5464016Y+4479325D01*
X+6312376Y+4479325D02*
X+6347936Y+4479325D01*
X+6662896Y+4479325D02*
X+6698456Y+4479325D01*
X+2172176Y+4484405D02*
X+2314416Y+4484405D01*
X+2344896Y+4484405D02*
X+2380456Y+4484405D01*
X+2446496Y+4484405D02*
X+2507456Y+4484405D01*
X+2532856Y+4484405D02*
X+2568416Y+4484405D01*
X+2634456Y+4484405D02*
X+2670016Y+4484405D01*
X+2741136Y+4484405D02*
X+2802096Y+4484405D01*
X+2817336Y+4484405D02*
X+2852896Y+4484405D01*
X+2898616Y+4484405D02*
X+2929096Y+4484405D01*
X+2944336Y+4484405D02*
X+3005296Y+4484405D01*
X+3081496Y+4484405D02*
X+3122136Y+4484405D01*
X+3198336Y+4484405D02*
X+3269456Y+4484405D01*
X+3350736Y+4484405D02*
X+3411696Y+4484405D01*
X+3498056Y+4484405D02*
X+3533616Y+4484405D01*
X+3594576Y+4484405D02*
X+3630136Y+4484405D01*
X+3691096Y+4484405D02*
X+3726656Y+4484405D01*
X+3757136Y+4484405D02*
X+3792696Y+4484405D01*
X+3904456Y+4484405D02*
X+3965416Y+4484405D01*
X+3985736Y+4484405D02*
X+4016216Y+4484405D01*
X+4061936Y+4484405D02*
X+4097496Y+4484405D01*
X+4163536Y+4484405D02*
X+4199096Y+4484405D01*
X+4275296Y+4484405D02*
X+4331176Y+4484405D01*
X+4346416Y+4484405D02*
X+4376896Y+4484405D01*
X+4427696Y+4484405D02*
X+4463256Y+4484405D01*
X+4590256Y+4484405D02*
X+4661376Y+4484405D01*
X+4742656Y+4484405D02*
X+4783296Y+4484405D01*
X+4844256Y+4484405D02*
X+4884896Y+4484405D01*
X+4956016Y+4484405D02*
X+5032216Y+4484405D01*
X+5133816Y+4484405D02*
X+5204936Y+4484405D01*
X+5265896Y+4484405D02*
X+5301456Y+4484405D01*
X+5428456Y+4484405D02*
X+5469096Y+4484405D01*
X+5545296Y+4484405D02*
X+5580856Y+4484405D01*
X+5636736Y+4484405D02*
X+5677376Y+4484405D01*
X+5702776Y+4484405D02*
X+5738336Y+4484405D01*
X+5804376Y+4484405D02*
X+5839936Y+4484405D01*
X+5865336Y+4484405D02*
X+5900896Y+4484405D01*
X+6038056Y+4484405D02*
X+6109176Y+4484405D01*
X+6170136Y+4484405D02*
X+6246336Y+4484405D01*
X+6312376Y+4484405D02*
X+6347936Y+4484405D01*
X+6358096Y+4484405D02*
X+6419056Y+4484405D01*
X+6662896Y+4484405D02*
X+6703536Y+4484405D01*
X+6789896Y+4484405D02*
X+6850856Y+4484405D01*
X+6871176Y+4484405D02*
X+6901656Y+4484405D01*
X+6977856Y+4484405D02*
X+7048976Y+4484405D01*
X+7094696Y+4484405D02*
X+7130256Y+4484405D01*
X+7196296Y+4484405D02*
X+7231856Y+4484405D01*
X+7297896Y+4484405D02*
X+7358856Y+4484405D01*
X+7384256Y+4484405D02*
X+7419816Y+4484405D01*
X+7485856Y+4484405D02*
X+7521416Y+4484405D01*
X+7577296Y+4484405D02*
X+7638256Y+4484405D01*
X+7658576Y+4484405D02*
X+7689056Y+4484405D01*
X+7765256Y+4484405D02*
X+7810976Y+4484405D01*
X+2177256Y+4489485D02*
X+2309336Y+4489485D01*
X+2344896Y+4489485D02*
X+2380456Y+4489485D01*
X+2441416Y+4489485D02*
X+2507456Y+4489485D01*
X+2532856Y+4489485D02*
X+2568416Y+4489485D01*
X+2634456Y+4489485D02*
X+2670016Y+4489485D01*
X+2736056Y+4489485D02*
X+2812256Y+4489485D01*
X+2817336Y+4489485D02*
X+2852896Y+4489485D01*
X+2898616Y+4489485D02*
X+2929096Y+4489485D01*
X+2939256Y+4489485D02*
X+3015456Y+4489485D01*
X+3076416Y+4489485D02*
X+3122136Y+4489485D01*
X+3188176Y+4489485D02*
X+3279616Y+4489485D01*
X+3340576Y+4489485D02*
X+3421856Y+4489485D01*
X+3498056Y+4489485D02*
X+3533616Y+4489485D01*
X+3594576Y+4489485D02*
X+3630136Y+4489485D01*
X+3691096Y+4489485D02*
X+3726656Y+4489485D01*
X+3757136Y+4489485D02*
X+3792696Y+4489485D01*
X+3899376Y+4489485D02*
X+3975576Y+4489485D01*
X+3980656Y+4489485D02*
X+4016216Y+4489485D01*
X+4061936Y+4489485D02*
X+4097496Y+4489485D01*
X+4163536Y+4489485D02*
X+4199096Y+4489485D01*
X+4265136Y+4489485D02*
X+4341336Y+4489485D01*
X+4346416Y+4489485D02*
X+4376896Y+4489485D01*
X+4427696Y+4489485D02*
X+4463256Y+4489485D01*
X+4580096Y+4489485D02*
X+4676616Y+4489485D01*
X+4737576Y+4489485D02*
X+4783296Y+4489485D01*
X+4844256Y+4489485D02*
X+4889976Y+4489485D01*
X+4945856Y+4489485D02*
X+5042376Y+4489485D01*
X+5123656Y+4489485D02*
X+5220176Y+4489485D01*
X+5265896Y+4489485D02*
X+5301456Y+4489485D01*
X+5428456Y+4489485D02*
X+5469096Y+4489485D01*
X+5545296Y+4489485D02*
X+5580856Y+4489485D01*
X+5631656Y+4489485D02*
X+5677376Y+4489485D01*
X+5702776Y+4489485D02*
X+5738336Y+4489485D01*
X+5804376Y+4489485D02*
X+5839936Y+4489485D01*
X+5865336Y+4489485D02*
X+5900896Y+4489485D01*
X+6027896Y+4489485D02*
X+6124416Y+4489485D01*
X+6159976Y+4489485D02*
X+6256496Y+4489485D01*
X+6312376Y+4489485D02*
X+6347936Y+4489485D01*
X+6353016Y+4489485D02*
X+6429216Y+4489485D01*
X+6662896Y+4489485D02*
X+6703536Y+4489485D01*
X+6784816Y+4489485D02*
X+6861016Y+4489485D01*
X+6866096Y+4489485D02*
X+6901656Y+4489485D01*
X+6967696Y+4489485D02*
X+7059136Y+4489485D01*
X+7094696Y+4489485D02*
X+7130256Y+4489485D01*
X+7196296Y+4489485D02*
X+7231856Y+4489485D01*
X+7292816Y+4489485D02*
X+7358856Y+4489485D01*
X+7384256Y+4489485D02*
X+7419816Y+4489485D01*
X+7485856Y+4489485D02*
X+7521416Y+4489485D01*
X+7572216Y+4489485D02*
X+7648416Y+4489485D01*
X+7653496Y+4489485D02*
X+7689056Y+4489485D01*
X+7760176Y+4489485D02*
X+7810976Y+4489485D01*
X+2182336Y+4494565D02*
X+2309336Y+4494565D01*
X+2344896Y+4494565D02*
X+2380456Y+4494565D01*
X+2436336Y+4494565D02*
X+2507456Y+4494565D01*
X+2532856Y+4494565D02*
X+2568416Y+4494565D01*
X+2634456Y+4494565D02*
X+2670016Y+4494565D01*
X+2725896Y+4494565D02*
X+2852896Y+4494565D01*
X+2898616Y+4494565D02*
X+2929096Y+4494565D01*
X+2934176Y+4494565D02*
X+3020536Y+4494565D01*
X+3076416Y+4494565D02*
X+3122136Y+4494565D01*
X+3183096Y+4494565D02*
X+3279616Y+4494565D01*
X+3330416Y+4494565D02*
X+3432016Y+4494565D01*
X+3498056Y+4494565D02*
X+3533616Y+4494565D01*
X+3594576Y+4494565D02*
X+3630136Y+4494565D01*
X+3691096Y+4494565D02*
X+3726656Y+4494565D01*
X+3757136Y+4494565D02*
X+3797776Y+4494565D01*
X+3894296Y+4494565D02*
X+4016216Y+4494565D01*
X+4061936Y+4494565D02*
X+4097496Y+4494565D01*
X+4163536Y+4494565D02*
X+4199096Y+4494565D01*
X+4260056Y+4494565D02*
X+4376896Y+4494565D01*
X+4427696Y+4494565D02*
X+4463256Y+4494565D01*
X+4569936Y+4494565D02*
X+4676616Y+4494565D01*
X+4737576Y+4494565D02*
X+4783296Y+4494565D01*
X+4839176Y+4494565D02*
X+4889976Y+4494565D01*
X+4945856Y+4494565D02*
X+5052536Y+4494565D01*
X+5113496Y+4494565D02*
X+5220176Y+4494565D01*
X+5265896Y+4494565D02*
X+5301456Y+4494565D01*
X+5423376Y+4494565D02*
X+5469096Y+4494565D01*
X+5545296Y+4494565D02*
X+5580856Y+4494565D01*
X+5626576Y+4494565D02*
X+5672296Y+4494565D01*
X+5702776Y+4494565D02*
X+5738336Y+4494565D01*
X+5804376Y+4494565D02*
X+5839936Y+4494565D01*
X+5865336Y+4494565D02*
X+5905976Y+4494565D01*
X+6017736Y+4494565D02*
X+6124416Y+4494565D01*
X+6159976Y+4494565D02*
X+6266656Y+4494565D01*
X+6312376Y+4494565D02*
X+6434296Y+4494565D01*
X+6657816Y+4494565D02*
X+6703536Y+4494565D01*
X+6779736Y+4494565D02*
X+6901656Y+4494565D01*
X+6962616Y+4494565D02*
X+7059136Y+4494565D01*
X+7094696Y+4494565D02*
X+7130256Y+4494565D01*
X+7196296Y+4494565D02*
X+7231856Y+4494565D01*
X+7287736Y+4494565D02*
X+7358856Y+4494565D01*
X+7384256Y+4494565D02*
X+7419816Y+4494565D01*
X+7485856Y+4494565D02*
X+7521416Y+4494565D01*
X+7567136Y+4494565D02*
X+7689056Y+4494565D01*
X+7760176Y+4494565D02*
X+7810976Y+4494565D01*
X+2192496Y+4499645D02*
X+2304256Y+4499645D01*
X+2344896Y+4499645D02*
X+2380456Y+4499645D01*
X+2436336Y+4499645D02*
X+2507456Y+4499645D01*
X+2532856Y+4499645D02*
X+2568416Y+4499645D01*
X+2634456Y+4499645D02*
X+2670016Y+4499645D01*
X+2725896Y+4499645D02*
X+2852896Y+4499645D01*
X+2898616Y+4499645D02*
X+3025616Y+4499645D01*
X+3076416Y+4499645D02*
X+3127216Y+4499645D01*
X+3178016Y+4499645D02*
X+3279616Y+4499645D01*
X+3325336Y+4499645D02*
X+3437096Y+4499645D01*
X+3498056Y+4499645D02*
X+3533616Y+4499645D01*
X+3594576Y+4499645D02*
X+3630136Y+4499645D01*
X+3691096Y+4499645D02*
X+3726656Y+4499645D01*
X+3762216Y+4499645D02*
X+3797776Y+4499645D01*
X+3889216Y+4499645D02*
X+4016216Y+4499645D01*
X+4061936Y+4499645D02*
X+4097496Y+4499645D01*
X+4163536Y+4499645D02*
X+4199096Y+4499645D01*
X+4254976Y+4499645D02*
X+4376896Y+4499645D01*
X+4427696Y+4499645D02*
X+4463256Y+4499645D01*
X+4564856Y+4499645D02*
X+4676616Y+4499645D01*
X+4737576Y+4499645D02*
X+4788376Y+4499645D01*
X+4839176Y+4499645D02*
X+4889976Y+4499645D01*
X+4945856Y+4499645D02*
X+5052536Y+4499645D01*
X+5108416Y+4499645D02*
X+5220176Y+4499645D01*
X+5265896Y+4499645D02*
X+5301456Y+4499645D01*
X+5423376Y+4499645D02*
X+5474176Y+4499645D01*
X+5545296Y+4499645D02*
X+5580856Y+4499645D01*
X+5626576Y+4499645D02*
X+5667216Y+4499645D01*
X+5702776Y+4499645D02*
X+5738336Y+4499645D01*
X+5804376Y+4499645D02*
X+5839936Y+4499645D01*
X+5870416Y+4499645D02*
X+5905976Y+4499645D01*
X+6012656Y+4499645D02*
X+6124416Y+4499645D01*
X+6159976Y+4499645D02*
X+6266656Y+4499645D01*
X+6312376Y+4499645D02*
X+6439376Y+4499645D01*
X+6657816Y+4499645D02*
X+6708616Y+4499645D01*
X+6774656Y+4499645D02*
X+6901656Y+4499645D01*
X+6957536Y+4499645D02*
X+7059136Y+4499645D01*
X+7094696Y+4499645D02*
X+7130256Y+4499645D01*
X+7196296Y+4499645D02*
X+7231856Y+4499645D01*
X+7287736Y+4499645D02*
X+7358856Y+4499645D01*
X+7384256Y+4499645D02*
X+7419816Y+4499645D01*
X+7485856Y+4499645D02*
X+7521416Y+4499645D01*
X+7562056Y+4499645D02*
X+7689056Y+4499645D01*
X+7760176Y+4499645D02*
X+7816056Y+4499645D01*
X+2187416Y+4504725D02*
X+2299176Y+4504725D01*
X+2344896Y+4504725D02*
X+2380456Y+4504725D01*
X+2431256Y+4504725D02*
X+2507456Y+4504725D01*
X+2532856Y+4504725D02*
X+2568416Y+4504725D01*
X+2634456Y+4504725D02*
X+2670016Y+4504725D01*
X+2720816Y+4504725D02*
X+2852896Y+4504725D01*
X+2898616Y+4504725D02*
X+3030696Y+4504725D01*
X+3076416Y+4504725D02*
X+3127216Y+4504725D01*
X+3172936Y+4504725D02*
X+3279616Y+4504725D01*
X+3320256Y+4504725D02*
X+3442176Y+4504725D01*
X+3498056Y+4504725D02*
X+3533616Y+4504725D01*
X+3594576Y+4504725D02*
X+3630136Y+4504725D01*
X+3691096Y+4504725D02*
X+3726656Y+4504725D01*
X+3762216Y+4504725D02*
X+3797776Y+4504725D01*
X+3889216Y+4504725D02*
X+4016216Y+4504725D01*
X+4061936Y+4504725D02*
X+4097496Y+4504725D01*
X+4163536Y+4504725D02*
X+4199096Y+4504725D01*
X+4249896Y+4504725D02*
X+4376896Y+4504725D01*
X+4427696Y+4504725D02*
X+4463256Y+4504725D01*
X+4559776Y+4504725D02*
X+4676616Y+4504725D01*
X+4737576Y+4504725D02*
X+4788376Y+4504725D01*
X+4839176Y+4504725D02*
X+4889976Y+4504725D01*
X+4945856Y+4504725D02*
X+5057616Y+4504725D01*
X+5103336Y+4504725D02*
X+5220176Y+4504725D01*
X+5265896Y+4504725D02*
X+5301456Y+4504725D01*
X+5418296Y+4504725D02*
X+5474176Y+4504725D01*
X+5545296Y+4504725D02*
X+5580856Y+4504725D01*
X+5621496Y+4504725D02*
X+5667216Y+4504725D01*
X+5702776Y+4504725D02*
X+5738336Y+4504725D01*
X+5804376Y+4504725D02*
X+5839936Y+4504725D01*
X+5870416Y+4504725D02*
X+5905976Y+4504725D01*
X+6007576Y+4504725D02*
X+6124416Y+4504725D01*
X+6159976Y+4504725D02*
X+6271736Y+4504725D01*
X+6312376Y+4504725D02*
X+6444456Y+4504725D01*
X+6652736Y+4504725D02*
X+6708616Y+4504725D01*
X+6774656Y+4504725D02*
X+6901656Y+4504725D01*
X+6952456Y+4504725D02*
X+7059136Y+4504725D01*
X+7094696Y+4504725D02*
X+7130256Y+4504725D01*
X+7196296Y+4504725D02*
X+7231856Y+4504725D01*
X+7282656Y+4504725D02*
X+7358856Y+4504725D01*
X+7384256Y+4504725D02*
X+7419816Y+4504725D01*
X+7485856Y+4504725D02*
X+7521416Y+4504725D01*
X+7562056Y+4504725D02*
X+7689056Y+4504725D01*
X+7755096Y+4504725D02*
X+7816056Y+4504725D01*
X+2182336Y+4509805D02*
X+2289016Y+4509805D01*
X+2344896Y+4509805D02*
X+2380456Y+4509805D01*
X+2431256Y+4509805D02*
X+2471896Y+4509805D01*
X+2532856Y+4509805D02*
X+2568416Y+4509805D01*
X+2634456Y+4509805D02*
X+2670016Y+4509805D01*
X+2720816Y+4509805D02*
X+2766536Y+4509805D01*
X+2791936Y+4509805D02*
X+2852896Y+4509805D01*
X+2898616Y+4509805D02*
X+2959576Y+4509805D01*
X+2984976Y+4509805D02*
X+3030696Y+4509805D01*
X+3076416Y+4509805D02*
X+3122136Y+4509805D01*
X+3172936Y+4509805D02*
X+3223736Y+4509805D01*
X+3249136Y+4509805D02*
X+3279616Y+4509805D01*
X+3320256Y+4509805D02*
X+3365976Y+4509805D01*
X+3396456Y+4509805D02*
X+3442176Y+4509805D01*
X+3498056Y+4509805D02*
X+3533616Y+4509805D01*
X+3594576Y+4509805D02*
X+3630136Y+4509805D01*
X+3691096Y+4509805D02*
X+3726656Y+4509805D01*
X+3762216Y+4509805D02*
X+3802856Y+4509805D01*
X+3884136Y+4509805D02*
X+3929856Y+4509805D01*
X+3955256Y+4509805D02*
X+4016216Y+4509805D01*
X+4061936Y+4509805D02*
X+4097496Y+4509805D01*
X+4163536Y+4509805D02*
X+4199096Y+4509805D01*
X+4244816Y+4509805D02*
X+4295616Y+4509805D01*
X+4321016Y+4509805D02*
X+4376896Y+4509805D01*
X+4427696Y+4509805D02*
X+4463256Y+4509805D01*
X+4559776Y+4509805D02*
X+4610576Y+4509805D01*
X+4641056Y+4509805D02*
X+4676616Y+4509805D01*
X+4732496Y+4509805D02*
X+4788376Y+4509805D01*
X+4839176Y+4509805D02*
X+4895056Y+4509805D01*
X+4945856Y+4509805D02*
X+4976336Y+4509805D01*
X+5016976Y+4509805D02*
X+5057616Y+4509805D01*
X+5103336Y+4509805D02*
X+5154136Y+4509805D01*
X+5184616Y+4509805D02*
X+5220176Y+4509805D01*
X+5265896Y+4509805D02*
X+5301456Y+4509805D01*
X+5418296Y+4509805D02*
X+5474176Y+4509805D01*
X+5545296Y+4509805D02*
X+5580856Y+4509805D01*
X+5616416Y+4509805D02*
X+5662136Y+4509805D01*
X+5702776Y+4509805D02*
X+5738336Y+4509805D01*
X+5804376Y+4509805D02*
X+5839936Y+4509805D01*
X+5870416Y+4509805D02*
X+5911056Y+4509805D01*
X+6007576Y+4509805D02*
X+6058376Y+4509805D01*
X+6088856Y+4509805D02*
X+6124416Y+4509805D01*
X+6159976Y+4509805D02*
X+6190456Y+4509805D01*
X+6231096Y+4509805D02*
X+6271736Y+4509805D01*
X+6312376Y+4509805D02*
X+6373336Y+4509805D01*
X+6398736Y+4509805D02*
X+6444456Y+4509805D01*
X+6652736Y+4509805D02*
X+6708616Y+4509805D01*
X+6769576Y+4509805D02*
X+6815296Y+4509805D01*
X+6840696Y+4509805D02*
X+6901656Y+4509805D01*
X+6952456Y+4509805D02*
X+7003256Y+4509805D01*
X+7028656Y+4509805D02*
X+7059136Y+4509805D01*
X+7094696Y+4509805D02*
X+7130256Y+4509805D01*
X+7196296Y+4509805D02*
X+7231856Y+4509805D01*
X+7282656Y+4509805D02*
X+7323296Y+4509805D01*
X+7384256Y+4509805D02*
X+7419816Y+4509805D01*
X+7485856Y+4509805D02*
X+7521416Y+4509805D01*
X+7556976Y+4509805D02*
X+7602696Y+4509805D01*
X+7628096Y+4509805D02*
X+7689056Y+4509805D01*
X+7755096Y+4509805D02*
X+7816056Y+4509805D01*
X+2182336Y+4514885D02*
X+2228056Y+4514885D01*
X+2344896Y+4514885D02*
X+2380456Y+4514885D01*
X+2431256Y+4514885D02*
X+2466816Y+4514885D01*
X+2532856Y+4514885D02*
X+2568416Y+4514885D01*
X+2634456Y+4514885D02*
X+2670016Y+4514885D01*
X+2715736Y+4514885D02*
X+2761456Y+4514885D01*
X+2802096Y+4514885D02*
X+2852896Y+4514885D01*
X+2898616Y+4514885D02*
X+2949416Y+4514885D01*
X+2990056Y+4514885D02*
X+3035776Y+4514885D01*
X+3081496Y+4514885D02*
X+3122136Y+4514885D01*
X+3167856Y+4514885D02*
X+3213576Y+4514885D01*
X+3264376Y+4514885D02*
X+3279616Y+4514885D01*
X+3315176Y+4514885D02*
X+3360896Y+4514885D01*
X+3401536Y+4514885D02*
X+3447256Y+4514885D01*
X+3498056Y+4514885D02*
X+3533616Y+4514885D01*
X+3594576Y+4514885D02*
X+3630136Y+4514885D01*
X+3691096Y+4514885D02*
X+3726656Y+4514885D01*
X+3767296Y+4514885D02*
X+3802856Y+4514885D01*
X+3884136Y+4514885D02*
X+3924776Y+4514885D01*
X+3965416Y+4514885D02*
X+4016216Y+4514885D01*
X+4061936Y+4514885D02*
X+4097496Y+4514885D01*
X+4163536Y+4514885D02*
X+4199096Y+4514885D01*
X+4244816Y+4514885D02*
X+4290536Y+4514885D01*
X+4331176Y+4514885D02*
X+4376896Y+4514885D01*
X+4427696Y+4514885D02*
X+4463256Y+4514885D01*
X+4554696Y+4514885D02*
X+4600416Y+4514885D01*
X+4661376Y+4514885D02*
X+4676616Y+4514885D01*
X+4732496Y+4514885D02*
X+4788376Y+4514885D01*
X+4834096Y+4514885D02*
X+4895056Y+4514885D01*
X+4945856Y+4514885D02*
X+4961096Y+4514885D01*
X+5022056Y+4514885D02*
X+5062696Y+4514885D01*
X+5098256Y+4514885D02*
X+5143976Y+4514885D01*
X+5204936Y+4514885D02*
X+5220176Y+4514885D01*
X+5265896Y+4514885D02*
X+5301456Y+4514885D01*
X+5418296Y+4514885D02*
X+5479256Y+4514885D01*
X+5545296Y+4514885D02*
X+5580856Y+4514885D01*
X+5616416Y+4514885D02*
X+5657056Y+4514885D01*
X+5702776Y+4514885D02*
X+5738336Y+4514885D01*
X+5804376Y+4514885D02*
X+5839936Y+4514885D01*
X+5875496Y+4514885D02*
X+5911056Y+4514885D01*
X+6002496Y+4514885D02*
X+6048216Y+4514885D01*
X+6109176Y+4514885D02*
X+6124416Y+4514885D01*
X+6159976Y+4514885D02*
X+6175216Y+4514885D01*
X+6236176Y+4514885D02*
X+6276816Y+4514885D01*
X+6312376Y+4514885D02*
X+6363176Y+4514885D01*
X+6403816Y+4514885D02*
X+6449536Y+4514885D01*
X+6652736Y+4514885D02*
X+6713696Y+4514885D01*
X+6769576Y+4514885D02*
X+6810216Y+4514885D01*
X+6850856Y+4514885D02*
X+6901656Y+4514885D01*
X+6947376Y+4514885D02*
X+6993096Y+4514885D01*
X+7043896Y+4514885D02*
X+7059136Y+4514885D01*
X+7094696Y+4514885D02*
X+7130256Y+4514885D01*
X+7196296Y+4514885D02*
X+7231856Y+4514885D01*
X+7282656Y+4514885D02*
X+7318216Y+4514885D01*
X+7384256Y+4514885D02*
X+7419816Y+4514885D01*
X+7485856Y+4514885D02*
X+7521416Y+4514885D01*
X+7556976Y+4514885D02*
X+7597616Y+4514885D01*
X+7638256Y+4514885D02*
X+7689056Y+4514885D01*
X+7755096Y+4514885D02*
X+7821136Y+4514885D01*
X+2182336Y+4519965D02*
X+2217896Y+4519965D01*
X+2344896Y+4519965D02*
X+2380456Y+4519965D01*
X+2431256Y+4519965D02*
X+2466816Y+4519965D01*
X+2532856Y+4519965D02*
X+2568416Y+4519965D01*
X+2634456Y+4519965D02*
X+2670016Y+4519965D01*
X+2715736Y+4519965D02*
X+2756376Y+4519965D01*
X+2802096Y+4519965D02*
X+2852896Y+4519965D01*
X+2898616Y+4519965D02*
X+2944336Y+4519965D01*
X+2995136Y+4519965D02*
X+3035776Y+4519965D01*
X+3081496Y+4519965D02*
X+3117056Y+4519965D01*
X+3167856Y+4519965D02*
X+3208496Y+4519965D01*
X+3315176Y+4519965D02*
X+3355816Y+4519965D01*
X+3406616Y+4519965D02*
X+3447256Y+4519965D01*
X+3498056Y+4519965D02*
X+3533616Y+4519965D01*
X+3594576Y+4519965D02*
X+3630136Y+4519965D01*
X+3691096Y+4519965D02*
X+3726656Y+4519965D01*
X+3767296Y+4519965D02*
X+3807936Y+4519965D01*
X+3884136Y+4519965D02*
X+3919696Y+4519965D01*
X+3970496Y+4519965D02*
X+4016216Y+4519965D01*
X+4061936Y+4519965D02*
X+4097496Y+4519965D01*
X+4163536Y+4519965D02*
X+4199096Y+4519965D01*
X+4239736Y+4519965D02*
X+4285456Y+4519965D01*
X+4336256Y+4519965D02*
X+4376896Y+4519965D01*
X+4427696Y+4519965D02*
X+4463256Y+4519965D01*
X+4554696Y+4519965D02*
X+4595336Y+4519965D01*
X+4732496Y+4519965D02*
X+4793456Y+4519965D01*
X+4834096Y+4519965D02*
X+4895056Y+4519965D01*
X+5027136Y+4519965D02*
X+5062696Y+4519965D01*
X+5098256Y+4519965D02*
X+5138896Y+4519965D01*
X+5265896Y+4519965D02*
X+5301456Y+4519965D01*
X+5413216Y+4519965D02*
X+5479256Y+4519965D01*
X+5545296Y+4519965D02*
X+5580856Y+4519965D01*
X+5611336Y+4519965D02*
X+5657056Y+4519965D01*
X+5702776Y+4519965D02*
X+5738336Y+4519965D01*
X+5804376Y+4519965D02*
X+5839936Y+4519965D01*
X+5875496Y+4519965D02*
X+5916136Y+4519965D01*
X+6002496Y+4519965D02*
X+6043136Y+4519965D01*
X+6241256Y+4519965D02*
X+6276816Y+4519965D01*
X+6312376Y+4519965D02*
X+6358096Y+4519965D01*
X+6408896Y+4519965D02*
X+6449536Y+4519965D01*
X+6647656Y+4519965D02*
X+6713696Y+4519965D01*
X+6769576Y+4519965D02*
X+6805136Y+4519965D01*
X+6855936Y+4519965D02*
X+6901656Y+4519965D01*
X+6947376Y+4519965D02*
X+6988016Y+4519965D01*
X+7094696Y+4519965D02*
X+7130256Y+4519965D01*
X+7196296Y+4519965D02*
X+7231856Y+4519965D01*
X+7282656Y+4519965D02*
X+7318216Y+4519965D01*
X+7384256Y+4519965D02*
X+7419816Y+4519965D01*
X+7485856Y+4519965D02*
X+7521416Y+4519965D01*
X+7556976Y+4519965D02*
X+7592536Y+4519965D01*
X+7643336Y+4519965D02*
X+7689056Y+4519965D01*
X+7750016Y+4519965D02*
X+7821136Y+4519965D01*
X+2182336Y+4525045D02*
X+2217896Y+4525045D01*
X+2344896Y+4525045D02*
X+2380456Y+4525045D01*
X+2431256Y+4525045D02*
X+2466816Y+4525045D01*
X+2532856Y+4525045D02*
X+2568416Y+4525045D01*
X+2634456Y+4525045D02*
X+2670016Y+4525045D01*
X+2715736Y+4525045D02*
X+2751296Y+4525045D01*
X+2807176Y+4525045D02*
X+2852896Y+4525045D01*
X+2898616Y+4525045D02*
X+2944336Y+4525045D01*
X+2995136Y+4525045D02*
X+3035776Y+4525045D01*
X+3162776Y+4525045D02*
X+3203416Y+4525045D01*
X+3310096Y+4525045D02*
X+3350736Y+4525045D01*
X+3411696Y+4525045D02*
X+3452336Y+4525045D01*
X+3498056Y+4525045D02*
X+3533616Y+4525045D01*
X+3594576Y+4525045D02*
X+3630136Y+4525045D01*
X+3691096Y+4525045D02*
X+3726656Y+4525045D01*
X+3767296Y+4525045D02*
X+3807936Y+4525045D01*
X+3884136Y+4525045D02*
X+3919696Y+4525045D01*
X+3970496Y+4525045D02*
X+4016216Y+4525045D01*
X+4061936Y+4525045D02*
X+4097496Y+4525045D01*
X+4163536Y+4525045D02*
X+4199096Y+4525045D01*
X+4239736Y+4525045D02*
X+4280376Y+4525045D01*
X+4336256Y+4525045D02*
X+4376896Y+4525045D01*
X+4427696Y+4525045D02*
X+4463256Y+4525045D01*
X+4549616Y+4525045D02*
X+4590256Y+4525045D01*
X+4732496Y+4525045D02*
X+4793456Y+4525045D01*
X+4834096Y+4525045D02*
X+4895056Y+4525045D01*
X+5027136Y+4525045D02*
X+5062696Y+4525045D01*
X+5093176Y+4525045D02*
X+5133816Y+4525045D01*
X+5265896Y+4525045D02*
X+5301456Y+4525045D01*
X+5413216Y+4525045D02*
X+5484336Y+4525045D01*
X+5545296Y+4525045D02*
X+5580856Y+4525045D01*
X+5606256Y+4525045D02*
X+5651976Y+4525045D01*
X+5702776Y+4525045D02*
X+5738336Y+4525045D01*
X+5804376Y+4525045D02*
X+5839936Y+4525045D01*
X+5875496Y+4525045D02*
X+5916136Y+4525045D01*
X+5997416Y+4525045D02*
X+6038056Y+4525045D01*
X+6241256Y+4525045D02*
X+6276816Y+4525045D01*
X+6312376Y+4525045D02*
X+6358096Y+4525045D01*
X+6408896Y+4525045D02*
X+6449536Y+4525045D01*
X+6647656Y+4525045D02*
X+6718776Y+4525045D01*
X+6769576Y+4525045D02*
X+6805136Y+4525045D01*
X+6855936Y+4525045D02*
X+6901656Y+4525045D01*
X+6942296Y+4525045D02*
X+6982936Y+4525045D01*
X+7094696Y+4525045D02*
X+7130256Y+4525045D01*
X+7196296Y+4525045D02*
X+7231856Y+4525045D01*
X+7282656Y+4525045D02*
X+7318216Y+4525045D01*
X+7384256Y+4525045D02*
X+7419816Y+4525045D01*
X+7485856Y+4525045D02*
X+7521416Y+4525045D01*
X+7556976Y+4525045D02*
X+7592536Y+4525045D01*
X+7643336Y+4525045D02*
X+7689056Y+4525045D01*
X+7750016Y+4525045D02*
X+7821136Y+4525045D01*
X+2187416Y+4530125D02*
X+2217896Y+4530125D01*
X+2344896Y+4530125D02*
X+2380456Y+4530125D01*
X+2431256Y+4530125D02*
X+2466816Y+4530125D01*
X+2532856Y+4530125D02*
X+2568416Y+4530125D01*
X+2634456Y+4530125D02*
X+2670016Y+4530125D01*
X+2715736Y+4530125D02*
X+2751296Y+4530125D01*
X+2812256Y+4530125D02*
X+2852896Y+4530125D01*
X+2898616Y+4530125D02*
X+2939256Y+4530125D01*
X+3000216Y+4530125D02*
X+3040856Y+4530125D01*
X+3162776Y+4530125D02*
X+3203416Y+4530125D01*
X+3310096Y+4530125D02*
X+3350736Y+4530125D01*
X+3411696Y+4530125D02*
X+3452336Y+4530125D01*
X+3498056Y+4530125D02*
X+3533616Y+4530125D01*
X+3594576Y+4530125D02*
X+3630136Y+4530125D01*
X+3691096Y+4530125D02*
X+3726656Y+4530125D01*
X+3772376Y+4530125D02*
X+3807936Y+4530125D01*
X+3884136Y+4530125D02*
X+3919696Y+4530125D01*
X+3975576Y+4530125D02*
X+4016216Y+4530125D01*
X+4061936Y+4530125D02*
X+4097496Y+4530125D01*
X+4163536Y+4530125D02*
X+4199096Y+4530125D01*
X+4239736Y+4530125D02*
X+4280376Y+4530125D01*
X+4341336Y+4530125D02*
X+4376896Y+4530125D01*
X+4427696Y+4530125D02*
X+4463256Y+4530125D01*
X+4549616Y+4530125D02*
X+4590256Y+4530125D01*
X+4727416Y+4530125D02*
X+4793456Y+4530125D01*
X+4829016Y+4530125D02*
X+4900136Y+4530125D01*
X+5027136Y+4530125D02*
X+5062696Y+4530125D01*
X+5093176Y+4530125D02*
X+5133816Y+4530125D01*
X+5265896Y+4530125D02*
X+5301456Y+4530125D01*
X+5413216Y+4530125D02*
X+5484336Y+4530125D01*
X+5545296Y+4530125D02*
X+5580856Y+4530125D01*
X+5606256Y+4530125D02*
X+5646896Y+4530125D01*
X+5702776Y+4530125D02*
X+5738336Y+4530125D01*
X+5804376Y+4530125D02*
X+5839936Y+4530125D01*
X+5880576Y+4530125D02*
X+5916136Y+4530125D01*
X+5997416Y+4530125D02*
X+6038056Y+4530125D01*
X+6241256Y+4530125D02*
X+6276816Y+4530125D01*
X+6312376Y+4530125D02*
X+6353016Y+4530125D01*
X+6413976Y+4530125D02*
X+6454616Y+4530125D01*
X+6647656Y+4530125D02*
X+6718776Y+4530125D01*
X+6769576Y+4530125D02*
X+6805136Y+4530125D01*
X+6861016Y+4530125D02*
X+6901656Y+4530125D01*
X+6942296Y+4530125D02*
X+6982936Y+4530125D01*
X+7094696Y+4530125D02*
X+7130256Y+4530125D01*
X+7196296Y+4530125D02*
X+7231856Y+4530125D01*
X+7282656Y+4530125D02*
X+7318216Y+4530125D01*
X+7384256Y+4530125D02*
X+7419816Y+4530125D01*
X+7485856Y+4530125D02*
X+7521416Y+4530125D01*
X+7556976Y+4530125D02*
X+7592536Y+4530125D01*
X+7648416Y+4530125D02*
X+7689056Y+4530125D01*
X+7750016Y+4530125D02*
X+7826216Y+4530125D01*
X+2187416Y+4535205D02*
X+2222976Y+4535205D01*
X+2344896Y+4535205D02*
X+2380456Y+4535205D01*
X+2431256Y+4535205D02*
X+2466816Y+4535205D01*
X+2532856Y+4535205D02*
X+2568416Y+4535205D01*
X+2634456Y+4535205D02*
X+2670016Y+4535205D01*
X+2715736Y+4535205D02*
X+2751296Y+4535205D01*
X+2812256Y+4535205D02*
X+2852896Y+4535205D01*
X+2898616Y+4535205D02*
X+2939256Y+4535205D01*
X+3000216Y+4535205D02*
X+3040856Y+4535205D01*
X+3162776Y+4535205D02*
X+3203416Y+4535205D01*
X+3310096Y+4535205D02*
X+3350736Y+4535205D01*
X+3416776Y+4535205D02*
X+3452336Y+4535205D01*
X+3498056Y+4535205D02*
X+3533616Y+4535205D01*
X+3594576Y+4535205D02*
X+3630136Y+4535205D01*
X+3691096Y+4535205D02*
X+3726656Y+4535205D01*
X+3772376Y+4535205D02*
X+3813016Y+4535205D01*
X+3884136Y+4535205D02*
X+3919696Y+4535205D01*
X+3975576Y+4535205D02*
X+4016216Y+4535205D01*
X+4061936Y+4535205D02*
X+4097496Y+4535205D01*
X+4163536Y+4535205D02*
X+4199096Y+4535205D01*
X+4239736Y+4535205D02*
X+4275296Y+4535205D01*
X+4341336Y+4535205D02*
X+4376896Y+4535205D01*
X+4427696Y+4535205D02*
X+4463256Y+4535205D01*
X+4549616Y+4535205D02*
X+4585176Y+4535205D01*
X+4727416Y+4535205D02*
X+4798536Y+4535205D01*
X+4829016Y+4535205D02*
X+4900136Y+4535205D01*
X+5022056Y+4535205D02*
X+5062696Y+4535205D01*
X+5093176Y+4535205D02*
X+5128736Y+4535205D01*
X+5265896Y+4535205D02*
X+5301456Y+4535205D01*
X+5408136Y+4535205D02*
X+5443696Y+4535205D01*
X+5448776Y+4535205D02*
X+5484336Y+4535205D01*
X+5545296Y+4535205D02*
X+5580856Y+4535205D01*
X+5601176Y+4535205D02*
X+5646896Y+4535205D01*
X+5702776Y+4535205D02*
X+5738336Y+4535205D01*
X+5804376Y+4535205D02*
X+5839936Y+4535205D01*
X+5880576Y+4535205D02*
X+5921216Y+4535205D01*
X+5997416Y+4535205D02*
X+6032976Y+4535205D01*
X+6236176Y+4535205D02*
X+6276816Y+4535205D01*
X+6312376Y+4535205D02*
X+6353016Y+4535205D01*
X+6413976Y+4535205D02*
X+6454616Y+4535205D01*
X+6642576Y+4535205D02*
X+6678136Y+4535205D01*
X+6683216Y+4535205D02*
X+6718776Y+4535205D01*
X+6769576Y+4535205D02*
X+6805136Y+4535205D01*
X+6861016Y+4535205D02*
X+6901656Y+4535205D01*
X+6942296Y+4535205D02*
X+6982936Y+4535205D01*
X+7094696Y+4535205D02*
X+7130256Y+4535205D01*
X+7196296Y+4535205D02*
X+7231856Y+4535205D01*
X+7282656Y+4535205D02*
X+7318216Y+4535205D01*
X+7384256Y+4535205D02*
X+7419816Y+4535205D01*
X+7485856Y+4535205D02*
X+7521416Y+4535205D01*
X+7556976Y+4535205D02*
X+7592536Y+4535205D01*
X+7648416Y+4535205D02*
X+7689056Y+4535205D01*
X+7744936Y+4535205D02*
X+7780496Y+4535205D01*
X+7790656Y+4535205D02*
X+7826216Y+4535205D01*
X+2192496Y+4540285D02*
X+2253456Y+4540285D01*
X+2344896Y+4540285D02*
X+2380456Y+4540285D01*
X+2431256Y+4540285D02*
X+2466816Y+4540285D01*
X+2532856Y+4540285D02*
X+2568416Y+4540285D01*
X+2634456Y+4540285D02*
X+2670016Y+4540285D01*
X+2715736Y+4540285D02*
X+2751296Y+4540285D01*
X+2812256Y+4540285D02*
X+2852896Y+4540285D01*
X+2898616Y+4540285D02*
X+2939256Y+4540285D01*
X+3000216Y+4540285D02*
X+3040856Y+4540285D01*
X+3162776Y+4540285D02*
X+3198336Y+4540285D01*
X+3310096Y+4540285D02*
X+3345656Y+4540285D01*
X+3416776Y+4540285D02*
X+3457416Y+4540285D01*
X+3498056Y+4540285D02*
X+3533616Y+4540285D01*
X+3594576Y+4540285D02*
X+3630136Y+4540285D01*
X+3691096Y+4540285D02*
X+3726656Y+4540285D01*
X+3777456Y+4540285D02*
X+3813016Y+4540285D01*
X+3884136Y+4540285D02*
X+3924776Y+4540285D01*
X+3975576Y+4540285D02*
X+4016216Y+4540285D01*
X+4061936Y+4540285D02*
X+4097496Y+4540285D01*
X+4163536Y+4540285D02*
X+4199096Y+4540285D01*
X+4234656Y+4540285D02*
X+4275296Y+4540285D01*
X+4341336Y+4540285D02*
X+4376896Y+4540285D01*
X+4427696Y+4540285D02*
X+4463256Y+4540285D01*
X+4549616Y+4540285D02*
X+4585176Y+4540285D01*
X+4727416Y+4540285D02*
X+4798536Y+4540285D01*
X+4829016Y+4540285D02*
X+4900136Y+4540285D01*
X+5016976Y+4540285D02*
X+5062696Y+4540285D01*
X+5093176Y+4540285D02*
X+5128736Y+4540285D01*
X+5265896Y+4540285D02*
X+5301456Y+4540285D01*
X+5408136Y+4540285D02*
X+5443696Y+4540285D01*
X+5448776Y+4540285D02*
X+5489416Y+4540285D01*
X+5545296Y+4540285D02*
X+5580856Y+4540285D01*
X+5596096Y+4540285D02*
X+5641816Y+4540285D01*
X+5702776Y+4540285D02*
X+5738336Y+4540285D01*
X+5804376Y+4540285D02*
X+5839936Y+4540285D01*
X+5885656Y+4540285D02*
X+5921216Y+4540285D01*
X+5997416Y+4540285D02*
X+6032976Y+4540285D01*
X+6231096Y+4540285D02*
X+6276816Y+4540285D01*
X+6312376Y+4540285D02*
X+6353016Y+4540285D01*
X+6413976Y+4540285D02*
X+6454616Y+4540285D01*
X+6642576Y+4540285D02*
X+6678136Y+4540285D01*
X+6683216Y+4540285D02*
X+6723856Y+4540285D01*
X+6769576Y+4540285D02*
X+6810216Y+4540285D01*
X+6861016Y+4540285D02*
X+6901656Y+4540285D01*
X+6942296Y+4540285D02*
X+6977856Y+4540285D01*
X+7094696Y+4540285D02*
X+7130256Y+4540285D01*
X+7196296Y+4540285D02*
X+7231856Y+4540285D01*
X+7282656Y+4540285D02*
X+7318216Y+4540285D01*
X+7384256Y+4540285D02*
X+7419816Y+4540285D01*
X+7485856Y+4540285D02*
X+7521416Y+4540285D01*
X+7556976Y+4540285D02*
X+7597616Y+4540285D01*
X+7648416Y+4540285D02*
X+7689056Y+4540285D01*
X+7744936Y+4540285D02*
X+7780496Y+4540285D01*
X+7790656Y+4540285D02*
X+7826216Y+4540285D01*
X+2197576Y+4545365D02*
X+2268696Y+4545365D01*
X+2344896Y+4545365D02*
X+2380456Y+4545365D01*
X+2431256Y+4545365D02*
X+2466816Y+4545365D01*
X+2532856Y+4545365D02*
X+2568416Y+4545365D01*
X+2634456Y+4545365D02*
X+2670016Y+4545365D01*
X+2715736Y+4545365D02*
X+2751296Y+4545365D01*
X+2812256Y+4545365D02*
X+2852896Y+4545365D01*
X+2898616Y+4545365D02*
X+2939256Y+4545365D01*
X+3005296Y+4545365D02*
X+3040856Y+4545365D01*
X+3157696Y+4545365D02*
X+3198336Y+4545365D01*
X+3305016Y+4545365D02*
X+3345656Y+4545365D01*
X+3416776Y+4545365D02*
X+3457416Y+4545365D01*
X+3498056Y+4545365D02*
X+3533616Y+4545365D01*
X+3594576Y+4545365D02*
X+3630136Y+4545365D01*
X+3691096Y+4545365D02*
X+3726656Y+4545365D01*
X+3777456Y+4545365D02*
X+3813016Y+4545365D01*
X+3884136Y+4545365D02*
X+3924776Y+4545365D01*
X+3975576Y+4545365D02*
X+4016216Y+4545365D01*
X+4061936Y+4545365D02*
X+4097496Y+4545365D01*
X+4163536Y+4545365D02*
X+4199096Y+4545365D01*
X+4234656Y+4545365D02*
X+4275296Y+4545365D01*
X+4341336Y+4545365D02*
X+4376896Y+4545365D01*
X+4427696Y+4545365D02*
X+4463256Y+4545365D01*
X+4544536Y+4545365D02*
X+4585176Y+4545365D01*
X+4727416Y+4545365D02*
X+4798536Y+4545365D01*
X+4829016Y+4545365D02*
X+4900136Y+4545365D01*
X+5011896Y+4545365D02*
X+5062696Y+4545365D01*
X+5088096Y+4545365D02*
X+5128736Y+4545365D01*
X+5265896Y+4545365D02*
X+5301456Y+4545365D01*
X+5403056Y+4545365D02*
X+5443696Y+4545365D01*
X+5453856Y+4545365D02*
X+5489416Y+4545365D01*
X+5545296Y+4545365D02*
X+5585936Y+4545365D01*
X+5596096Y+4545365D02*
X+5636736Y+4545365D01*
X+5702776Y+4545365D02*
X+5738336Y+4545365D01*
X+5804376Y+4545365D02*
X+5839936Y+4545365D01*
X+5885656Y+4545365D02*
X+5921216Y+4545365D01*
X+5992336Y+4545365D02*
X+6032976Y+4545365D01*
X+6226016Y+4545365D02*
X+6276816Y+4545365D01*
X+6312376Y+4545365D02*
X+6353016Y+4545365D01*
X+6419056Y+4545365D02*
X+6454616Y+4545365D01*
X+6637496Y+4545365D02*
X+6678136Y+4545365D01*
X+6688296Y+4545365D02*
X+6723856Y+4545365D01*
X+6769576Y+4545365D02*
X+6810216Y+4545365D01*
X+6861016Y+4545365D02*
X+6901656Y+4545365D01*
X+6937216Y+4545365D02*
X+6977856Y+4545365D01*
X+7094696Y+4545365D02*
X+7130256Y+4545365D01*
X+7196296Y+4545365D02*
X+7231856Y+4545365D01*
X+7282656Y+4545365D02*
X+7318216Y+4545365D01*
X+7384256Y+4545365D02*
X+7419816Y+4545365D01*
X+7485856Y+4545365D02*
X+7521416Y+4545365D01*
X+7556976Y+4545365D02*
X+7597616Y+4545365D01*
X+7648416Y+4545365D02*
X+7689056Y+4545365D01*
X+7744936Y+4545365D02*
X+7780496Y+4545365D01*
X+7790656Y+4545365D02*
X+7831296Y+4545365D01*
X+2192496Y+4550445D02*
X+2278856Y+4550445D01*
X+2344896Y+4550445D02*
X+2380456Y+4550445D01*
X+2431256Y+4550445D02*
X+2466816Y+4550445D01*
X+2532856Y+4550445D02*
X+2568416Y+4550445D01*
X+2634456Y+4550445D02*
X+2670016Y+4550445D01*
X+2715736Y+4550445D02*
X+2751296Y+4550445D01*
X+2812256Y+4550445D02*
X+2852896Y+4550445D01*
X+2898616Y+4550445D02*
X+2939256Y+4550445D01*
X+3005296Y+4550445D02*
X+3040856Y+4550445D01*
X+3157696Y+4550445D02*
X+3198336Y+4550445D01*
X+3305016Y+4550445D02*
X+3345656Y+4550445D01*
X+3416776Y+4550445D02*
X+3457416Y+4550445D01*
X+3498056Y+4550445D02*
X+3533616Y+4550445D01*
X+3594576Y+4550445D02*
X+3630136Y+4550445D01*
X+3691096Y+4550445D02*
X+3726656Y+4550445D01*
X+3777456Y+4550445D02*
X+3818096Y+4550445D01*
X+3884136Y+4550445D02*
X+3929856Y+4550445D01*
X+3975576Y+4550445D02*
X+4016216Y+4550445D01*
X+4061936Y+4550445D02*
X+4097496Y+4550445D01*
X+4163536Y+4550445D02*
X+4199096Y+4550445D01*
X+4234656Y+4550445D02*
X+4275296Y+4550445D01*
X+4341336Y+4550445D02*
X+4376896Y+4550445D01*
X+4427696Y+4550445D02*
X+4463256Y+4550445D01*
X+4544536Y+4550445D02*
X+4585176Y+4550445D01*
X+4722336Y+4550445D02*
X+4757896Y+4550445D01*
X+4768056Y+4550445D02*
X+4798536Y+4550445D01*
X+4823936Y+4550445D02*
X+4859496Y+4550445D01*
X+4869656Y+4550445D02*
X+4905216Y+4550445D01*
X+5001736Y+4550445D02*
X+5057616Y+4550445D01*
X+5088096Y+4550445D02*
X+5128736Y+4550445D01*
X+5265896Y+4550445D02*
X+5301456Y+4550445D01*
X+5403056Y+4550445D02*
X+5438616Y+4550445D01*
X+5453856Y+4550445D02*
X+5489416Y+4550445D01*
X+5545296Y+4550445D02*
X+5636736Y+4550445D01*
X+5702776Y+4550445D02*
X+5738336Y+4550445D01*
X+5804376Y+4550445D02*
X+5839936Y+4550445D01*
X+5885656Y+4550445D02*
X+5926296Y+4550445D01*
X+5992336Y+4550445D02*
X+6032976Y+4550445D01*
X+6215856Y+4550445D02*
X+6271736Y+4550445D01*
X+6312376Y+4550445D02*
X+6353016Y+4550445D01*
X+6419056Y+4550445D02*
X+6454616Y+4550445D01*
X+6637496Y+4550445D02*
X+6673056Y+4550445D01*
X+6688296Y+4550445D02*
X+6723856Y+4550445D01*
X+6769576Y+4550445D02*
X+6815296Y+4550445D01*
X+6861016Y+4550445D02*
X+6901656Y+4550445D01*
X+6937216Y+4550445D02*
X+6977856Y+4550445D01*
X+7094696Y+4550445D02*
X+7130256Y+4550445D01*
X+7196296Y+4550445D02*
X+7231856Y+4550445D01*
X+7282656Y+4550445D02*
X+7318216Y+4550445D01*
X+7384256Y+4550445D02*
X+7419816Y+4550445D01*
X+7485856Y+4550445D02*
X+7521416Y+4550445D01*
X+7556976Y+4550445D02*
X+7602696Y+4550445D01*
X+7648416Y+4550445D02*
X+7689056Y+4550445D01*
X+7739856Y+4550445D02*
X+7780496Y+4550445D01*
X+7795736Y+4550445D02*
X+7831296Y+4550445D01*
X+2187416Y+4555525D02*
X+2283936Y+4555525D01*
X+2344896Y+4555525D02*
X+2380456Y+4555525D01*
X+2431256Y+4555525D02*
X+2466816Y+4555525D01*
X+2532856Y+4555525D02*
X+2568416Y+4555525D01*
X+2634456Y+4555525D02*
X+2670016Y+4555525D01*
X+2715736Y+4555525D02*
X+2751296Y+4555525D01*
X+2812256Y+4555525D02*
X+2852896Y+4555525D01*
X+2898616Y+4555525D02*
X+2934176Y+4555525D01*
X+3005296Y+4555525D02*
X+3040856Y+4555525D01*
X+3157696Y+4555525D02*
X+3198336Y+4555525D01*
X+3305016Y+4555525D02*
X+3345656Y+4555525D01*
X+3416776Y+4555525D02*
X+3457416Y+4555525D01*
X+3498056Y+4555525D02*
X+3533616Y+4555525D01*
X+3594576Y+4555525D02*
X+3630136Y+4555525D01*
X+3691096Y+4555525D02*
X+3726656Y+4555525D01*
X+3782536Y+4555525D02*
X+3818096Y+4555525D01*
X+3889216Y+4555525D02*
X+3940016Y+4555525D01*
X+3975576Y+4555525D02*
X+4016216Y+4555525D01*
X+4061936Y+4555525D02*
X+4097496Y+4555525D01*
X+4163536Y+4555525D02*
X+4199096Y+4555525D01*
X+4234656Y+4555525D02*
X+4275296Y+4555525D01*
X+4341336Y+4555525D02*
X+4376896Y+4555525D01*
X+4427696Y+4555525D02*
X+4463256Y+4555525D01*
X+4544536Y+4555525D02*
X+4585176Y+4555525D01*
X+4722336Y+4555525D02*
X+4757896Y+4555525D01*
X+4768056Y+4555525D02*
X+4803616Y+4555525D01*
X+4823936Y+4555525D02*
X+4859496Y+4555525D01*
X+4869656Y+4555525D02*
X+4905216Y+4555525D01*
X+4986496Y+4555525D02*
X+5057616Y+4555525D01*
X+5088096Y+4555525D02*
X+5128736Y+4555525D01*
X+5265896Y+4555525D02*
X+5301456Y+4555525D01*
X+5403056Y+4555525D02*
X+5438616Y+4555525D01*
X+5453856Y+4555525D02*
X+5494496Y+4555525D01*
X+5545296Y+4555525D02*
X+5631656Y+4555525D01*
X+5702776Y+4555525D02*
X+5738336Y+4555525D01*
X+5804376Y+4555525D02*
X+5839936Y+4555525D01*
X+5890736Y+4555525D02*
X+5926296Y+4555525D01*
X+5992336Y+4555525D02*
X+6032976Y+4555525D01*
X+6200616Y+4555525D02*
X+6271736Y+4555525D01*
X+6312376Y+4555525D02*
X+6347936Y+4555525D01*
X+6419056Y+4555525D02*
X+6454616Y+4555525D01*
X+6637496Y+4555525D02*
X+6673056Y+4555525D01*
X+6688296Y+4555525D02*
X+6728936Y+4555525D01*
X+6774656Y+4555525D02*
X+6825456Y+4555525D01*
X+6861016Y+4555525D02*
X+6901656Y+4555525D01*
X+6937216Y+4555525D02*
X+6977856Y+4555525D01*
X+7094696Y+4555525D02*
X+7130256Y+4555525D01*
X+7196296Y+4555525D02*
X+7231856Y+4555525D01*
X+7282656Y+4555525D02*
X+7318216Y+4555525D01*
X+7384256Y+4555525D02*
X+7419816Y+4555525D01*
X+7485856Y+4555525D02*
X+7521416Y+4555525D01*
X+7562056Y+4555525D02*
X+7612856Y+4555525D01*
X+7648416Y+4555525D02*
X+7689056Y+4555525D01*
X+7739856Y+4555525D02*
X+7775416Y+4555525D01*
X+7795736Y+4555525D02*
X+7831296Y+4555525D01*
X+2182336Y+4560605D02*
X+2289016Y+4560605D01*
X+2344896Y+4560605D02*
X+2380456Y+4560605D01*
X+2431256Y+4560605D02*
X+2466816Y+4560605D01*
X+2532856Y+4560605D02*
X+2568416Y+4560605D01*
X+2634456Y+4560605D02*
X+2670016Y+4560605D01*
X+2715736Y+4560605D02*
X+2751296Y+4560605D01*
X+2812256Y+4560605D02*
X+2852896Y+4560605D01*
X+2898616Y+4560605D02*
X+2934176Y+4560605D01*
X+3005296Y+4560605D02*
X+3040856Y+4560605D01*
X+3157696Y+4560605D02*
X+3198336Y+4560605D01*
X+3305016Y+4560605D02*
X+3345656Y+4560605D01*
X+3416776Y+4560605D02*
X+3457416Y+4560605D01*
X+3498056Y+4560605D02*
X+3533616Y+4560605D01*
X+3594576Y+4560605D02*
X+3630136Y+4560605D01*
X+3691096Y+4560605D02*
X+3726656Y+4560605D01*
X+3782536Y+4560605D02*
X+3823176Y+4560605D01*
X+3889216Y+4560605D02*
X+4016216Y+4560605D01*
X+4061936Y+4560605D02*
X+4097496Y+4560605D01*
X+4163536Y+4560605D02*
X+4199096Y+4560605D01*
X+4234656Y+4560605D02*
X+4275296Y+4560605D01*
X+4341336Y+4560605D02*
X+4376896Y+4560605D01*
X+4427696Y+4560605D02*
X+4463256Y+4560605D01*
X+4544536Y+4560605D02*
X+4686776Y+4560605D01*
X+4722336Y+4560605D02*
X+4757896Y+4560605D01*
X+4768056Y+4560605D02*
X+4803616Y+4560605D01*
X+4823936Y+4560605D02*
X+4859496Y+4560605D01*
X+4869656Y+4560605D02*
X+4905216Y+4560605D01*
X+4976336Y+4560605D02*
X+5052536Y+4560605D01*
X+5088096Y+4560605D02*
X+5230336Y+4560605D01*
X+5265896Y+4560605D02*
X+5301456Y+4560605D01*
X+5397976Y+4560605D02*
X+5438616Y+4560605D01*
X+5458936Y+4560605D02*
X+5494496Y+4560605D01*
X+5545296Y+4560605D02*
X+5626576Y+4560605D01*
X+5702776Y+4560605D02*
X+5738336Y+4560605D01*
X+5804376Y+4560605D02*
X+5839936Y+4560605D01*
X+5890736Y+4560605D02*
X+5931376Y+4560605D01*
X+5992336Y+4560605D02*
X+6134576Y+4560605D01*
X+6190456Y+4560605D02*
X+6266656Y+4560605D01*
X+6312376Y+4560605D02*
X+6347936Y+4560605D01*
X+6419056Y+4560605D02*
X+6454616Y+4560605D01*
X+6632416Y+4560605D02*
X+6673056Y+4560605D01*
X+6693376Y+4560605D02*
X+6728936Y+4560605D01*
X+6774656Y+4560605D02*
X+6901656Y+4560605D01*
X+6937216Y+4560605D02*
X+6977856Y+4560605D01*
X+7094696Y+4560605D02*
X+7130256Y+4560605D01*
X+7196296Y+4560605D02*
X+7231856Y+4560605D01*
X+7282656Y+4560605D02*
X+7318216Y+4560605D01*
X+7384256Y+4560605D02*
X+7419816Y+4560605D01*
X+7485856Y+4560605D02*
X+7521416Y+4560605D01*
X+7562056Y+4560605D02*
X+7689056Y+4560605D01*
X+7739856Y+4560605D02*
X+7775416Y+4560605D01*
X+7795736Y+4560605D02*
X+7836376Y+4560605D01*
X+2177256Y+4565685D02*
X+2228056Y+4565685D01*
X+2243296Y+4565685D02*
X+2294096Y+4565685D01*
X+2344896Y+4565685D02*
X+2380456Y+4565685D01*
X+2431256Y+4565685D02*
X+2466816Y+4565685D01*
X+2532856Y+4565685D02*
X+2568416Y+4565685D01*
X+2634456Y+4565685D02*
X+2670016Y+4565685D01*
X+2715736Y+4565685D02*
X+2751296Y+4565685D01*
X+2812256Y+4565685D02*
X+2852896Y+4565685D01*
X+2898616Y+4565685D02*
X+2934176Y+4565685D01*
X+3005296Y+4565685D02*
X+3040856Y+4565685D01*
X+3157696Y+4565685D02*
X+3198336Y+4565685D01*
X+3305016Y+4565685D02*
X+3345656Y+4565685D01*
X+3416776Y+4565685D02*
X+3457416Y+4565685D01*
X+3498056Y+4565685D02*
X+3533616Y+4565685D01*
X+3594576Y+4565685D02*
X+3630136Y+4565685D01*
X+3691096Y+4565685D02*
X+3726656Y+4565685D01*
X+3782536Y+4565685D02*
X+3823176Y+4565685D01*
X+3894296Y+4565685D02*
X+4016216Y+4565685D01*
X+4061936Y+4565685D02*
X+4097496Y+4565685D01*
X+4163536Y+4565685D02*
X+4199096Y+4565685D01*
X+4234656Y+4565685D02*
X+4275296Y+4565685D01*
X+4341336Y+4565685D02*
X+4376896Y+4565685D01*
X+4427696Y+4565685D02*
X+4463256Y+4565685D01*
X+4544536Y+4565685D02*
X+4686776Y+4565685D01*
X+4722336Y+4565685D02*
X+4757896Y+4565685D01*
X+4773136Y+4565685D02*
X+4803616Y+4565685D01*
X+4823936Y+4565685D02*
X+4854416Y+4565685D01*
X+4869656Y+4565685D02*
X+4905216Y+4565685D01*
X+4971256Y+4565685D02*
X+5042376Y+4565685D01*
X+5088096Y+4565685D02*
X+5230336Y+4565685D01*
X+5265896Y+4565685D02*
X+5301456Y+4565685D01*
X+5397976Y+4565685D02*
X+5433536Y+4565685D01*
X+5458936Y+4565685D02*
X+5494496Y+4565685D01*
X+5545296Y+4565685D02*
X+5626576Y+4565685D01*
X+5702776Y+4565685D02*
X+5738336Y+4565685D01*
X+5804376Y+4565685D02*
X+5839936Y+4565685D01*
X+5890736Y+4565685D02*
X+5931376Y+4565685D01*
X+5992336Y+4565685D02*
X+6134576Y+4565685D01*
X+6185376Y+4565685D02*
X+6256496Y+4565685D01*
X+6312376Y+4565685D02*
X+6347936Y+4565685D01*
X+6419056Y+4565685D02*
X+6454616Y+4565685D01*
X+6632416Y+4565685D02*
X+6667976Y+4565685D01*
X+6693376Y+4565685D02*
X+6728936Y+4565685D01*
X+6779736Y+4565685D02*
X+6901656Y+4565685D01*
X+6937216Y+4565685D02*
X+6977856Y+4565685D01*
X+7094696Y+4565685D02*
X+7130256Y+4565685D01*
X+7196296Y+4565685D02*
X+7231856Y+4565685D01*
X+7282656Y+4565685D02*
X+7318216Y+4565685D01*
X+7384256Y+4565685D02*
X+7419816Y+4565685D01*
X+7485856Y+4565685D02*
X+7521416Y+4565685D01*
X+7567136Y+4565685D02*
X+7689056Y+4565685D01*
X+7734776Y+4565685D02*
X+7775416Y+4565685D01*
X+7800816Y+4565685D02*
X+7836376Y+4565685D01*
X+2177256Y+4570765D02*
X+2217896Y+4570765D01*
X+2253456Y+4570765D02*
X+2294096Y+4570765D01*
X+2344896Y+4570765D02*
X+2380456Y+4570765D01*
X+2431256Y+4570765D02*
X+2466816Y+4570765D01*
X+2532856Y+4570765D02*
X+2568416Y+4570765D01*
X+2634456Y+4570765D02*
X+2670016Y+4570765D01*
X+2715736Y+4570765D02*
X+2751296Y+4570765D01*
X+2812256Y+4570765D02*
X+2852896Y+4570765D01*
X+2898616Y+4570765D02*
X+2934176Y+4570765D01*
X+3005296Y+4570765D02*
X+3040856Y+4570765D01*
X+3157696Y+4570765D02*
X+3198336Y+4570765D01*
X+3305016Y+4570765D02*
X+3345656Y+4570765D01*
X+3416776Y+4570765D02*
X+3457416Y+4570765D01*
X+3498056Y+4570765D02*
X+3533616Y+4570765D01*
X+3594576Y+4570765D02*
X+3630136Y+4570765D01*
X+3691096Y+4570765D02*
X+3726656Y+4570765D01*
X+3787616Y+4570765D02*
X+3823176Y+4570765D01*
X+3904456Y+4570765D02*
X+4016216Y+4570765D01*
X+4061936Y+4570765D02*
X+4097496Y+4570765D01*
X+4163536Y+4570765D02*
X+4199096Y+4570765D01*
X+4234656Y+4570765D02*
X+4275296Y+4570765D01*
X+4341336Y+4570765D02*
X+4376896Y+4570765D01*
X+4427696Y+4570765D02*
X+4463256Y+4570765D01*
X+4544536Y+4570765D02*
X+4686776Y+4570765D01*
X+4717256Y+4570765D02*
X+4757896Y+4570765D01*
X+4773136Y+4570765D02*
X+4803616Y+4570765D01*
X+4818856Y+4570765D02*
X+4854416Y+4570765D01*
X+4874736Y+4570765D02*
X+4910296Y+4570765D01*
X+4961096Y+4570765D02*
X+5037296Y+4570765D01*
X+5088096Y+4570765D02*
X+5230336Y+4570765D01*
X+5265896Y+4570765D02*
X+5301456Y+4570765D01*
X+5397976Y+4570765D02*
X+5433536Y+4570765D01*
X+5458936Y+4570765D02*
X+5499576Y+4570765D01*
X+5545296Y+4570765D02*
X+5621496Y+4570765D01*
X+5702776Y+4570765D02*
X+5738336Y+4570765D01*
X+5804376Y+4570765D02*
X+5839936Y+4570765D01*
X+5895816Y+4570765D02*
X+5931376Y+4570765D01*
X+5992336Y+4570765D02*
X+6134576Y+4570765D01*
X+6175216Y+4570765D02*
X+6251416Y+4570765D01*
X+6312376Y+4570765D02*
X+6347936Y+4570765D01*
X+6419056Y+4570765D02*
X+6454616Y+4570765D01*
X+6632416Y+4570765D02*
X+6667976Y+4570765D01*
X+6693376Y+4570765D02*
X+6734016Y+4570765D01*
X+6789896Y+4570765D02*
X+6901656Y+4570765D01*
X+6937216Y+4570765D02*
X+6977856Y+4570765D01*
X+7094696Y+4570765D02*
X+7130256Y+4570765D01*
X+7196296Y+4570765D02*
X+7231856Y+4570765D01*
X+7282656Y+4570765D02*
X+7318216Y+4570765D01*
X+7384256Y+4570765D02*
X+7419816Y+4570765D01*
X+7485856Y+4570765D02*
X+7521416Y+4570765D01*
X+7577296Y+4570765D02*
X+7689056Y+4570765D01*
X+7734776Y+4570765D02*
X+7770336Y+4570765D01*
X+7800816Y+4570765D02*
X+7841456Y+4570765D01*
X+2177256Y+4575845D02*
X+2217896Y+4575845D01*
X+2258536Y+4575845D02*
X+2294096Y+4575845D01*
X+2344896Y+4575845D02*
X+2380456Y+4575845D01*
X+2431256Y+4575845D02*
X+2466816Y+4575845D01*
X+2532856Y+4575845D02*
X+2568416Y+4575845D01*
X+2634456Y+4575845D02*
X+2670016Y+4575845D01*
X+2715736Y+4575845D02*
X+2751296Y+4575845D01*
X+2812256Y+4575845D02*
X+2852896Y+4575845D01*
X+2898616Y+4575845D02*
X+2934176Y+4575845D01*
X+3005296Y+4575845D02*
X+3040856Y+4575845D01*
X+3157696Y+4575845D02*
X+3198336Y+4575845D01*
X+3305016Y+4575845D02*
X+3345656Y+4575845D01*
X+3416776Y+4575845D02*
X+3457416Y+4575845D01*
X+3498056Y+4575845D02*
X+3533616Y+4575845D01*
X+3594576Y+4575845D02*
X+3630136Y+4575845D01*
X+3691096Y+4575845D02*
X+3726656Y+4575845D01*
X+3787616Y+4575845D02*
X+3828256Y+4575845D01*
X+3914616Y+4575845D02*
X+4016216Y+4575845D01*
X+4061936Y+4575845D02*
X+4097496Y+4575845D01*
X+4163536Y+4575845D02*
X+4199096Y+4575845D01*
X+4234656Y+4575845D02*
X+4275296Y+4575845D01*
X+4341336Y+4575845D02*
X+4376896Y+4575845D01*
X+4427696Y+4575845D02*
X+4463256Y+4575845D01*
X+4544536Y+4575845D02*
X+4686776Y+4575845D01*
X+4717256Y+4575845D02*
X+4752816Y+4575845D01*
X+4773136Y+4575845D02*
X+4808696Y+4575845D01*
X+4818856Y+4575845D02*
X+4854416Y+4575845D01*
X+4874736Y+4575845D02*
X+4910296Y+4575845D01*
X+4956016Y+4575845D02*
X+5027136Y+4575845D01*
X+5088096Y+4575845D02*
X+5230336Y+4575845D01*
X+5265896Y+4575845D02*
X+5301456Y+4575845D01*
X+5392896Y+4575845D02*
X+5433536Y+4575845D01*
X+5464016Y+4575845D02*
X+5499576Y+4575845D01*
X+5545296Y+4575845D02*
X+5616416Y+4575845D01*
X+5702776Y+4575845D02*
X+5738336Y+4575845D01*
X+5804376Y+4575845D02*
X+5839936Y+4575845D01*
X+5895816Y+4575845D02*
X+5936456Y+4575845D01*
X+5992336Y+4575845D02*
X+6134576Y+4575845D01*
X+6170136Y+4575845D02*
X+6241256Y+4575845D01*
X+6312376Y+4575845D02*
X+6347936Y+4575845D01*
X+6419056Y+4575845D02*
X+6454616Y+4575845D01*
X+6627336Y+4575845D02*
X+6667976Y+4575845D01*
X+6698456Y+4575845D02*
X+6734016Y+4575845D01*
X+6800056Y+4575845D02*
X+6901656Y+4575845D01*
X+6937216Y+4575845D02*
X+6977856Y+4575845D01*
X+7094696Y+4575845D02*
X+7130256Y+4575845D01*
X+7196296Y+4575845D02*
X+7231856Y+4575845D01*
X+7282656Y+4575845D02*
X+7318216Y+4575845D01*
X+7384256Y+4575845D02*
X+7419816Y+4575845D01*
X+7485856Y+4575845D02*
X+7521416Y+4575845D01*
X+7587456Y+4575845D02*
X+7689056Y+4575845D01*
X+7729696Y+4575845D02*
X+7770336Y+4575845D01*
X+7800816Y+4575845D02*
X+7841456Y+4575845D01*
X+2177256Y+4580925D02*
X+2212816Y+4580925D01*
X+2258536Y+4580925D02*
X+2294096Y+4580925D01*
X+2344896Y+4580925D02*
X+2380456Y+4580925D01*
X+2431256Y+4580925D02*
X+2466816Y+4580925D01*
X+2532856Y+4580925D02*
X+2573496Y+4580925D01*
X+2634456Y+4580925D02*
X+2670016Y+4580925D01*
X+2715736Y+4580925D02*
X+2751296Y+4580925D01*
X+2812256Y+4580925D02*
X+2852896Y+4580925D01*
X+2898616Y+4580925D02*
X+2939256Y+4580925D01*
X+3005296Y+4580925D02*
X+3040856Y+4580925D01*
X+3157696Y+4580925D02*
X+3198336Y+4580925D01*
X+3305016Y+4580925D02*
X+3345656Y+4580925D01*
X+3416776Y+4580925D02*
X+3457416Y+4580925D01*
X+3498056Y+4580925D02*
X+3538696Y+4580925D01*
X+3594576Y+4580925D02*
X+3630136Y+4580925D01*
X+3691096Y+4580925D02*
X+3726656Y+4580925D01*
X+3792696Y+4580925D02*
X+3828256Y+4580925D01*
X+3929856Y+4580925D02*
X+4016216Y+4580925D01*
X+4061936Y+4580925D02*
X+4102576Y+4580925D01*
X+4163536Y+4580925D02*
X+4199096Y+4580925D01*
X+4234656Y+4580925D02*
X+4275296Y+4580925D01*
X+4341336Y+4580925D02*
X+4376896Y+4580925D01*
X+4427696Y+4580925D02*
X+4468336Y+4580925D01*
X+4544536Y+4580925D02*
X+4686776Y+4580925D01*
X+4717256Y+4580925D02*
X+4752816Y+4580925D01*
X+4773136Y+4580925D02*
X+4808696Y+4580925D01*
X+4818856Y+4580925D02*
X+4854416Y+4580925D01*
X+4874736Y+4580925D02*
X+4910296Y+4580925D01*
X+4950936Y+4580925D02*
X+5011896Y+4580925D01*
X+5088096Y+4580925D02*
X+5230336Y+4580925D01*
X+5265896Y+4580925D02*
X+5306536Y+4580925D01*
X+5392896Y+4580925D02*
X+5428456Y+4580925D01*
X+5464016Y+4580925D02*
X+5499576Y+4580925D01*
X+5545296Y+4580925D02*
X+5621496Y+4580925D01*
X+5702776Y+4580925D02*
X+5743416Y+4580925D01*
X+5804376Y+4580925D02*
X+5839936Y+4580925D01*
X+5900896Y+4580925D02*
X+5936456Y+4580925D01*
X+5992336Y+4580925D02*
X+6134576Y+4580925D01*
X+6165056Y+4580925D02*
X+6226016Y+4580925D01*
X+6312376Y+4580925D02*
X+6347936Y+4580925D01*
X+6419056Y+4580925D02*
X+6454616Y+4580925D01*
X+6627336Y+4580925D02*
X+6662896Y+4580925D01*
X+6698456Y+4580925D02*
X+6734016Y+4580925D01*
X+6815296Y+4580925D02*
X+6901656Y+4580925D01*
X+6937216Y+4580925D02*
X+6977856Y+4580925D01*
X+7094696Y+4580925D02*
X+7135336Y+4580925D01*
X+7196296Y+4580925D02*
X+7231856Y+4580925D01*
X+7282656Y+4580925D02*
X+7318216Y+4580925D01*
X+7384256Y+4580925D02*
X+7424896Y+4580925D01*
X+7485856Y+4580925D02*
X+7521416Y+4580925D01*
X+7602696Y+4580925D02*
X+7689056Y+4580925D01*
X+7729696Y+4580925D02*
X+7770336Y+4580925D01*
X+7805896Y+4580925D02*
X+7841456Y+4580925D01*
X+2172176Y+4586005D02*
X+2212816Y+4586005D01*
X+2258536Y+4586005D02*
X+2299176Y+4586005D01*
X+2344896Y+4586005D02*
X+2380456Y+4586005D01*
X+2431256Y+4586005D02*
X+2466816Y+4586005D01*
X+2532856Y+4586005D02*
X+2573496Y+4586005D01*
X+2634456Y+4586005D02*
X+2670016Y+4586005D01*
X+2715736Y+4586005D02*
X+2751296Y+4586005D01*
X+2812256Y+4586005D02*
X+2852896Y+4586005D01*
X+2898616Y+4586005D02*
X+2939256Y+4586005D01*
X+3000216Y+4586005D02*
X+3040856Y+4586005D01*
X+3157696Y+4586005D02*
X+3198336Y+4586005D01*
X+3305016Y+4586005D02*
X+3345656Y+4586005D01*
X+3416776Y+4586005D02*
X+3457416Y+4586005D01*
X+3498056Y+4586005D02*
X+3538696Y+4586005D01*
X+3594576Y+4586005D02*
X+3630136Y+4586005D01*
X+3691096Y+4586005D02*
X+3726656Y+4586005D01*
X+3792696Y+4586005D02*
X+3828256Y+4586005D01*
X+3975576Y+4586005D02*
X+4016216Y+4586005D01*
X+4061936Y+4586005D02*
X+4102576Y+4586005D01*
X+4163536Y+4586005D02*
X+4199096Y+4586005D01*
X+4234656Y+4586005D02*
X+4275296Y+4586005D01*
X+4341336Y+4586005D02*
X+4376896Y+4586005D01*
X+4427696Y+4586005D02*
X+4468336Y+4586005D01*
X+4544536Y+4586005D02*
X+4585176Y+4586005D01*
X+4646136Y+4586005D02*
X+4686776Y+4586005D01*
X+4717256Y+4586005D02*
X+4752816Y+4586005D01*
X+4778216Y+4586005D02*
X+4808696Y+4586005D01*
X+4818856Y+4586005D02*
X+4849336Y+4586005D01*
X+4874736Y+4586005D02*
X+4910296Y+4586005D01*
X+4950936Y+4586005D02*
X+5001736Y+4586005D01*
X+5088096Y+4586005D02*
X+5128736Y+4586005D01*
X+5189696Y+4586005D02*
X+5230336Y+4586005D01*
X+5265896Y+4586005D02*
X+5306536Y+4586005D01*
X+5387816Y+4586005D02*
X+5428456Y+4586005D01*
X+5464016Y+4586005D02*
X+5504656Y+4586005D01*
X+5545296Y+4586005D02*
X+5626576Y+4586005D01*
X+5702776Y+4586005D02*
X+5743416Y+4586005D01*
X+5804376Y+4586005D02*
X+5839936Y+4586005D01*
X+5900896Y+4586005D02*
X+5936456Y+4586005D01*
X+5992336Y+4586005D02*
X+6032976Y+4586005D01*
X+6093936Y+4586005D02*
X+6134576Y+4586005D01*
X+6165056Y+4586005D02*
X+6215856Y+4586005D01*
X+6312376Y+4586005D02*
X+6353016Y+4586005D01*
X+6413976Y+4586005D02*
X+6454616Y+4586005D01*
X+6622256Y+4586005D02*
X+6662896Y+4586005D01*
X+6698456Y+4586005D02*
X+6739096Y+4586005D01*
X+6861016Y+4586005D02*
X+6901656Y+4586005D01*
X+6937216Y+4586005D02*
X+6977856Y+4586005D01*
X+7094696Y+4586005D02*
X+7135336Y+4586005D01*
X+7196296Y+4586005D02*
X+7231856Y+4586005D01*
X+7282656Y+4586005D02*
X+7318216Y+4586005D01*
X+7384256Y+4586005D02*
X+7424896Y+4586005D01*
X+7485856Y+4586005D02*
X+7521416Y+4586005D01*
X+7648416Y+4586005D02*
X+7689056Y+4586005D01*
X+7729696Y+4586005D02*
X+7765256Y+4586005D01*
X+7805896Y+4586005D02*
X+7846536Y+4586005D01*
X+2172176Y+4591085D02*
X+2212816Y+4591085D01*
X+2258536Y+4591085D02*
X+2299176Y+4591085D01*
X+2344896Y+4591085D02*
X+2380456Y+4591085D01*
X+2431256Y+4591085D02*
X+2466816Y+4591085D01*
X+2532856Y+4591085D02*
X+2573496Y+4591085D01*
X+2634456Y+4591085D02*
X+2670016Y+4591085D01*
X+2715736Y+4591085D02*
X+2751296Y+4591085D01*
X+2812256Y+4591085D02*
X+2852896Y+4591085D01*
X+2898616Y+4591085D02*
X+2939256Y+4591085D01*
X+3000216Y+4591085D02*
X+3040856Y+4591085D01*
X+3162776Y+4591085D02*
X+3198336Y+4591085D01*
X+3310096Y+4591085D02*
X+3345656Y+4591085D01*
X+3416776Y+4591085D02*
X+3452336Y+4591085D01*
X+3498056Y+4591085D02*
X+3538696Y+4591085D01*
X+3594576Y+4591085D02*
X+3635216Y+4591085D01*
X+3691096Y+4591085D02*
X+3726656Y+4591085D01*
X+3792696Y+4591085D02*
X+3833336Y+4591085D01*
X+3975576Y+4591085D02*
X+4016216Y+4591085D01*
X+4061936Y+4591085D02*
X+4102576Y+4591085D01*
X+4163536Y+4591085D02*
X+4199096Y+4591085D01*
X+4239736Y+4591085D02*
X+4275296Y+4591085D01*
X+4341336Y+4591085D02*
X+4376896Y+4591085D01*
X+4427696Y+4591085D02*
X+4468336Y+4591085D01*
X+4549616Y+4591085D02*
X+4585176Y+4591085D01*
X+4646136Y+4591085D02*
X+4681696Y+4591085D01*
X+4712176Y+4591085D02*
X+4752816Y+4591085D01*
X+4778216Y+4591085D02*
X+4808696Y+4591085D01*
X+4813776Y+4591085D02*
X+4849336Y+4591085D01*
X+4874736Y+4591085D02*
X+4915376Y+4591085D01*
X+4945856Y+4591085D02*
X+4991576Y+4591085D01*
X+5093176Y+4591085D02*
X+5128736Y+4591085D01*
X+5189696Y+4591085D02*
X+5225256Y+4591085D01*
X+5265896Y+4591085D02*
X+5306536Y+4591085D01*
X+5387816Y+4591085D02*
X+5428456Y+4591085D01*
X+5469096Y+4591085D02*
X+5504656Y+4591085D01*
X+5545296Y+4591085D02*
X+5580856Y+4591085D01*
X+5585936Y+4591085D02*
X+5631656Y+4591085D01*
X+5702776Y+4591085D02*
X+5743416Y+4591085D01*
X+5804376Y+4591085D02*
X+5839936Y+4591085D01*
X+5900896Y+4591085D02*
X+5941536Y+4591085D01*
X+5997416Y+4591085D02*
X+6032976Y+4591085D01*
X+6093936Y+4591085D02*
X+6129496Y+4591085D01*
X+6159976Y+4591085D02*
X+6205696Y+4591085D01*
X+6312376Y+4591085D02*
X+6353016Y+4591085D01*
X+6413976Y+4591085D02*
X+6454616Y+4591085D01*
X+6622256Y+4591085D02*
X+6662896Y+4591085D01*
X+6703536Y+4591085D02*
X+6739096Y+4591085D01*
X+6861016Y+4591085D02*
X+6901656Y+4591085D01*
X+6942296Y+4591085D02*
X+6977856Y+4591085D01*
X+7094696Y+4591085D02*
X+7135336Y+4591085D01*
X+7196296Y+4591085D02*
X+7231856Y+4591085D01*
X+7282656Y+4591085D02*
X+7318216Y+4591085D01*
X+7384256Y+4591085D02*
X+7424896Y+4591085D01*
X+7485856Y+4591085D02*
X+7521416Y+4591085D01*
X+7648416Y+4591085D02*
X+7689056Y+4591085D01*
X+7724616Y+4591085D02*
X+7765256Y+4591085D01*
X+7805896Y+4591085D02*
X+7846536Y+4591085D01*
X+2172176Y+4596165D02*
X+2212816Y+4596165D01*
X+2258536Y+4596165D02*
X+2299176Y+4596165D01*
X+2344896Y+4596165D02*
X+2380456Y+4596165D01*
X+2431256Y+4596165D02*
X+2466816Y+4596165D01*
X+2532856Y+4596165D02*
X+2573496Y+4596165D01*
X+2634456Y+4596165D02*
X+2670016Y+4596165D01*
X+2715736Y+4596165D02*
X+2751296Y+4596165D01*
X+2812256Y+4596165D02*
X+2852896Y+4596165D01*
X+2898616Y+4596165D02*
X+2939256Y+4596165D01*
X+3000216Y+4596165D02*
X+3040856Y+4596165D01*
X+3162776Y+4596165D02*
X+3203416Y+4596165D01*
X+3310096Y+4596165D02*
X+3350736Y+4596165D01*
X+3411696Y+4596165D02*
X+3452336Y+4596165D01*
X+3498056Y+4596165D02*
X+3538696Y+4596165D01*
X+3594576Y+4596165D02*
X+3635216Y+4596165D01*
X+3691096Y+4596165D02*
X+3726656Y+4596165D01*
X+3797776Y+4596165D02*
X+3833336Y+4596165D01*
X+3975576Y+4596165D02*
X+4016216Y+4596165D01*
X+4061936Y+4596165D02*
X+4102576Y+4596165D01*
X+4163536Y+4596165D02*
X+4199096Y+4596165D01*
X+4239736Y+4596165D02*
X+4280376Y+4596165D01*
X+4341336Y+4596165D02*
X+4376896Y+4596165D01*
X+4427696Y+4596165D02*
X+4468336Y+4596165D01*
X+4549616Y+4596165D02*
X+4585176Y+4596165D01*
X+4646136Y+4596165D02*
X+4681696Y+4596165D01*
X+4712176Y+4596165D02*
X+4747736Y+4596165D01*
X+4778216Y+4596165D02*
X+4849336Y+4596165D01*
X+4879816Y+4596165D02*
X+4915376Y+4596165D01*
X+4945856Y+4596165D02*
X+4986496Y+4596165D01*
X+5093176Y+4596165D02*
X+5128736Y+4596165D01*
X+5189696Y+4596165D02*
X+5225256Y+4596165D01*
X+5265896Y+4596165D02*
X+5306536Y+4596165D01*
X+5387816Y+4596165D02*
X+5423376Y+4596165D01*
X+5469096Y+4596165D02*
X+5504656Y+4596165D01*
X+5545296Y+4596165D02*
X+5580856Y+4596165D01*
X+5591016Y+4596165D02*
X+5636736Y+4596165D01*
X+5702776Y+4596165D02*
X+5743416Y+4596165D01*
X+5804376Y+4596165D02*
X+5839936Y+4596165D01*
X+5905976Y+4596165D02*
X+5941536Y+4596165D01*
X+5997416Y+4596165D02*
X+6032976Y+4596165D01*
X+6093936Y+4596165D02*
X+6129496Y+4596165D01*
X+6159976Y+4596165D02*
X+6200616Y+4596165D01*
X+6312376Y+4596165D02*
X+6353016Y+4596165D01*
X+6413976Y+4596165D02*
X+6454616Y+4596165D01*
X+6622256Y+4596165D02*
X+6657816Y+4596165D01*
X+6703536Y+4596165D02*
X+6739096Y+4596165D01*
X+6861016Y+4596165D02*
X+6901656Y+4596165D01*
X+6942296Y+4596165D02*
X+6982936Y+4596165D01*
X+7094696Y+4596165D02*
X+7135336Y+4596165D01*
X+7196296Y+4596165D02*
X+7231856Y+4596165D01*
X+7282656Y+4596165D02*
X+7318216Y+4596165D01*
X+7384256Y+4596165D02*
X+7424896Y+4596165D01*
X+7485856Y+4596165D02*
X+7521416Y+4596165D01*
X+7648416Y+4596165D02*
X+7689056Y+4596165D01*
X+7724616Y+4596165D02*
X+7765256Y+4596165D01*
X+7810976Y+4596165D02*
X+7846536Y+4596165D01*
X+2177256Y+4601245D02*
X+2212816Y+4601245D01*
X+2258536Y+4601245D02*
X+2299176Y+4601245D01*
X+2344896Y+4601245D02*
X+2380456Y+4601245D01*
X+2431256Y+4601245D02*
X+2466816Y+4601245D01*
X+2532856Y+4601245D02*
X+2573496Y+4601245D01*
X+2634456Y+4601245D02*
X+2670016Y+4601245D01*
X+2715736Y+4601245D02*
X+2751296Y+4601245D01*
X+2812256Y+4601245D02*
X+2852896Y+4601245D01*
X+2898616Y+4601245D02*
X+2939256Y+4601245D01*
X+3000216Y+4601245D02*
X+3040856Y+4601245D01*
X+3162776Y+4601245D02*
X+3203416Y+4601245D01*
X+3310096Y+4601245D02*
X+3350736Y+4601245D01*
X+3411696Y+4601245D02*
X+3452336Y+4601245D01*
X+3498056Y+4601245D02*
X+3538696Y+4601245D01*
X+3594576Y+4601245D02*
X+3635216Y+4601245D01*
X+3691096Y+4601245D02*
X+3726656Y+4601245D01*
X+3797776Y+4601245D02*
X+3833336Y+4601245D01*
X+3975576Y+4601245D02*
X+4016216Y+4601245D01*
X+4061936Y+4601245D02*
X+4102576Y+4601245D01*
X+4163536Y+4601245D02*
X+4199096Y+4601245D01*
X+4239736Y+4601245D02*
X+4280376Y+4601245D01*
X+4336256Y+4601245D02*
X+4376896Y+4601245D01*
X+4427696Y+4601245D02*
X+4473416Y+4601245D01*
X+4549616Y+4601245D02*
X+4590256Y+4601245D01*
X+4641056Y+4601245D02*
X+4681696Y+4601245D01*
X+4712176Y+4601245D02*
X+4747736Y+4601245D01*
X+4783296Y+4601245D02*
X+4844256Y+4601245D01*
X+4879816Y+4601245D02*
X+4915376Y+4601245D01*
X+4945856Y+4601245D02*
X+4981416Y+4601245D01*
X+5093176Y+4601245D02*
X+5133816Y+4601245D01*
X+5184616Y+4601245D02*
X+5225256Y+4601245D01*
X+5265896Y+4601245D02*
X+5311616Y+4601245D01*
X+5382736Y+4601245D02*
X+5423376Y+4601245D01*
X+5469096Y+4601245D02*
X+5509736Y+4601245D01*
X+5545296Y+4601245D02*
X+5580856Y+4601245D01*
X+5596096Y+4601245D02*
X+5641816Y+4601245D01*
X+5702776Y+4601245D02*
X+5743416Y+4601245D01*
X+5804376Y+4601245D02*
X+5839936Y+4601245D01*
X+5905976Y+4601245D02*
X+5941536Y+4601245D01*
X+5997416Y+4601245D02*
X+6038056Y+4601245D01*
X+6088856Y+4601245D02*
X+6129496Y+4601245D01*
X+6159976Y+4601245D02*
X+6195536Y+4601245D01*
X+6312376Y+4601245D02*
X+6353016Y+4601245D01*
X+6413976Y+4601245D02*
X+6454616Y+4601245D01*
X+6617176Y+4601245D02*
X+6657816Y+4601245D01*
X+6703536Y+4601245D02*
X+6744176Y+4601245D01*
X+6861016Y+4601245D02*
X+6901656Y+4601245D01*
X+6942296Y+4601245D02*
X+6982936Y+4601245D01*
X+7094696Y+4601245D02*
X+7135336Y+4601245D01*
X+7196296Y+4601245D02*
X+7231856Y+4601245D01*
X+7282656Y+4601245D02*
X+7318216Y+4601245D01*
X+7384256Y+4601245D02*
X+7424896Y+4601245D01*
X+7485856Y+4601245D02*
X+7521416Y+4601245D01*
X+7648416Y+4601245D02*
X+7689056Y+4601245D01*
X+7724616Y+4601245D02*
X+7760176Y+4601245D01*
X+7810976Y+4601245D02*
X+7851616Y+4601245D01*
X+2177256Y+4606325D02*
X+2212816Y+4606325D01*
X+2258536Y+4606325D02*
X+2294096Y+4606325D01*
X+2344896Y+4606325D02*
X+2380456Y+4606325D01*
X+2431256Y+4606325D02*
X+2466816Y+4606325D01*
X+2532856Y+4606325D02*
X+2578576Y+4606325D01*
X+2629376Y+4606325D02*
X+2670016Y+4606325D01*
X+2715736Y+4606325D02*
X+2751296Y+4606325D01*
X+2812256Y+4606325D02*
X+2852896Y+4606325D01*
X+2898616Y+4606325D02*
X+2944336Y+4606325D01*
X+2995136Y+4606325D02*
X+3035776Y+4606325D01*
X+3162776Y+4606325D02*
X+3208496Y+4606325D01*
X+3310096Y+4606325D02*
X+3355816Y+4606325D01*
X+3411696Y+4606325D02*
X+3452336Y+4606325D01*
X+3498056Y+4606325D02*
X+3543776Y+4606325D01*
X+3589496Y+4606325D02*
X+3640296Y+4606325D01*
X+3686016Y+4606325D02*
X+3726656Y+4606325D01*
X+3797776Y+4606325D02*
X+3838416Y+4606325D01*
X+3975576Y+4606325D02*
X+4016216Y+4606325D01*
X+4061936Y+4606325D02*
X+4107656Y+4606325D01*
X+4158456Y+4606325D02*
X+4199096Y+4606325D01*
X+4239736Y+4606325D02*
X+4280376Y+4606325D01*
X+4336256Y+4606325D02*
X+4376896Y+4606325D01*
X+4427696Y+4606325D02*
X+4478496Y+4606325D01*
X+4549616Y+4606325D02*
X+4590256Y+4606325D01*
X+4641056Y+4606325D02*
X+4681696Y+4606325D01*
X+4707096Y+4606325D02*
X+4747736Y+4606325D01*
X+4783296Y+4606325D02*
X+4844256Y+4606325D01*
X+4879816Y+4606325D02*
X+4920456Y+4606325D01*
X+4945856Y+4606325D02*
X+4981416Y+4606325D01*
X+5093176Y+4606325D02*
X+5133816Y+4606325D01*
X+5184616Y+4606325D02*
X+5225256Y+4606325D01*
X+5265896Y+4606325D02*
X+5316696Y+4606325D01*
X+5382736Y+4606325D02*
X+5423376Y+4606325D01*
X+5469096Y+4606325D02*
X+5509736Y+4606325D01*
X+5545296Y+4606325D02*
X+5580856Y+4606325D01*
X+5601176Y+4606325D02*
X+5641816Y+4606325D01*
X+5702776Y+4606325D02*
X+5748496Y+4606325D01*
X+5799296Y+4606325D02*
X+5839936Y+4606325D01*
X+5905976Y+4606325D02*
X+5946616Y+4606325D01*
X+5997416Y+4606325D02*
X+6038056Y+4606325D01*
X+6088856Y+4606325D02*
X+6129496Y+4606325D01*
X+6159976Y+4606325D02*
X+6195536Y+4606325D01*
X+6312376Y+4606325D02*
X+6358096Y+4606325D01*
X+6408896Y+4606325D02*
X+6449536Y+4606325D01*
X+6617176Y+4606325D02*
X+6657816Y+4606325D01*
X+6703536Y+4606325D02*
X+6744176Y+4606325D01*
X+6861016Y+4606325D02*
X+6901656Y+4606325D01*
X+6942296Y+4606325D02*
X+6988016Y+4606325D01*
X+7094696Y+4606325D02*
X+7140416Y+4606325D01*
X+7191216Y+4606325D02*
X+7231856Y+4606325D01*
X+7282656Y+4606325D02*
X+7318216Y+4606325D01*
X+7384256Y+4606325D02*
X+7429976Y+4606325D01*
X+7480776Y+4606325D02*
X+7521416Y+4606325D01*
X+7648416Y+4606325D02*
X+7689056Y+4606325D01*
X+7719536Y+4606325D02*
X+7760176Y+4606325D01*
X+7810976Y+4606325D02*
X+7851616Y+4606325D01*
X+2177256Y+4611405D02*
X+2212816Y+4611405D01*
X+2258536Y+4611405D02*
X+2294096Y+4611405D01*
X+2344896Y+4611405D02*
X+2380456Y+4611405D01*
X+2431256Y+4611405D02*
X+2466816Y+4611405D01*
X+2532856Y+4611405D02*
X+2583656Y+4611405D01*
X+2629376Y+4611405D02*
X+2670016Y+4611405D01*
X+2715736Y+4611405D02*
X+2751296Y+4611405D01*
X+2812256Y+4611405D02*
X+2852896Y+4611405D01*
X+2898616Y+4611405D02*
X+2944336Y+4611405D01*
X+2995136Y+4611405D02*
X+3035776Y+4611405D01*
X+3167856Y+4611405D02*
X+3213576Y+4611405D01*
X+3315176Y+4611405D02*
X+3355816Y+4611405D01*
X+3406616Y+4611405D02*
X+3447256Y+4611405D01*
X+3498056Y+4611405D02*
X+3543776Y+4611405D01*
X+3589496Y+4611405D02*
X+3640296Y+4611405D01*
X+3686016Y+4611405D02*
X+3726656Y+4611405D01*
X+3802856Y+4611405D02*
X+3838416Y+4611405D01*
X+3970496Y+4611405D02*
X+4016216Y+4611405D01*
X+4061936Y+4611405D02*
X+4112736Y+4611405D01*
X+4158456Y+4611405D02*
X+4199096Y+4611405D01*
X+4244816Y+4611405D02*
X+4285456Y+4611405D01*
X+4331176Y+4611405D02*
X+4376896Y+4611405D01*
X+4427696Y+4611405D02*
X+4478496Y+4611405D01*
X+4554696Y+4611405D02*
X+4595336Y+4611405D01*
X+4635976Y+4611405D02*
X+4681696Y+4611405D01*
X+4707096Y+4611405D02*
X+4747736Y+4611405D01*
X+4783296Y+4611405D02*
X+4844256Y+4611405D01*
X+4879816Y+4611405D02*
X+4920456Y+4611405D01*
X+4945856Y+4611405D02*
X+4981416Y+4611405D01*
X+5098256Y+4611405D02*
X+5138896Y+4611405D01*
X+5179536Y+4611405D02*
X+5225256Y+4611405D01*
X+5265896Y+4611405D02*
X+5316696Y+4611405D01*
X+5382736Y+4611405D02*
X+5418296Y+4611405D01*
X+5474176Y+4611405D02*
X+5509736Y+4611405D01*
X+5545296Y+4611405D02*
X+5580856Y+4611405D01*
X+5601176Y+4611405D02*
X+5646896Y+4611405D01*
X+5702776Y+4611405D02*
X+5753576Y+4611405D01*
X+5799296Y+4611405D02*
X+5839936Y+4611405D01*
X+5911056Y+4611405D02*
X+5946616Y+4611405D01*
X+6002496Y+4611405D02*
X+6043136Y+4611405D01*
X+6083776Y+4611405D02*
X+6129496Y+4611405D01*
X+6159976Y+4611405D02*
X+6195536Y+4611405D01*
X+6312376Y+4611405D02*
X+6358096Y+4611405D01*
X+6408896Y+4611405D02*
X+6449536Y+4611405D01*
X+6617176Y+4611405D02*
X+6652736Y+4611405D01*
X+6708616Y+4611405D02*
X+6744176Y+4611405D01*
X+6855936Y+4611405D02*
X+6901656Y+4611405D01*
X+6947376Y+4611405D02*
X+6993096Y+4611405D01*
X+7094696Y+4611405D02*
X+7145496Y+4611405D01*
X+7191216Y+4611405D02*
X+7231856Y+4611405D01*
X+7282656Y+4611405D02*
X+7318216Y+4611405D01*
X+7384256Y+4611405D02*
X+7435056Y+4611405D01*
X+7480776Y+4611405D02*
X+7521416Y+4611405D01*
X+7643336Y+4611405D02*
X+7689056Y+4611405D01*
X+7719536Y+4611405D02*
X+7760176Y+4611405D01*
X+7810976Y+4611405D02*
X+7851616Y+4611405D01*
X+2177256Y+4616485D02*
X+2217896Y+4616485D01*
X+2253456Y+4616485D02*
X+2294096Y+4616485D01*
X+2344896Y+4616485D02*
X+2380456Y+4616485D01*
X+2431256Y+4616485D02*
X+2466816Y+4616485D01*
X+2532856Y+4616485D02*
X+2588736Y+4616485D01*
X+2624296Y+4616485D02*
X+2664936Y+4616485D01*
X+2715736Y+4616485D02*
X+2751296Y+4616485D01*
X+2812256Y+4616485D02*
X+2852896Y+4616485D01*
X+2898616Y+4616485D02*
X+2949416Y+4616485D01*
X+2990056Y+4616485D02*
X+3035776Y+4616485D01*
X+3167856Y+4616485D02*
X+3218656Y+4616485D01*
X+3259296Y+4616485D02*
X+3274536Y+4616485D01*
X+3315176Y+4616485D02*
X+3360896Y+4616485D01*
X+3401536Y+4616485D02*
X+3447256Y+4616485D01*
X+3498056Y+4616485D02*
X+3548856Y+4616485D01*
X+3584416Y+4616485D02*
X+3645376Y+4616485D01*
X+3680936Y+4616485D02*
X+3726656Y+4616485D01*
X+3802856Y+4616485D02*
X+3843496Y+4616485D01*
X+3899376Y+4616485D02*
X+3924776Y+4616485D01*
X+3970496Y+4616485D02*
X+4011136Y+4616485D01*
X+4061936Y+4616485D02*
X+4117816Y+4616485D01*
X+4153376Y+4616485D02*
X+4194016Y+4616485D01*
X+4244816Y+4616485D02*
X+4290536Y+4616485D01*
X+4326096Y+4616485D02*
X+4376896Y+4616485D01*
X+4427696Y+4616485D02*
X+4488656Y+4616485D01*
X+4554696Y+4616485D02*
X+4600416Y+4616485D01*
X+4635976Y+4616485D02*
X+4676616Y+4616485D01*
X+4707096Y+4616485D02*
X+4742656Y+4616485D01*
X+4788376Y+4616485D02*
X+4844256Y+4616485D01*
X+4884896Y+4616485D02*
X+4920456Y+4616485D01*
X+4945856Y+4616485D02*
X+4986496Y+4616485D01*
X+5032216Y+4616485D02*
X+5052536Y+4616485D01*
X+5098256Y+4616485D02*
X+5143976Y+4616485D01*
X+5179536Y+4616485D02*
X+5220176Y+4616485D01*
X+5265896Y+4616485D02*
X+5326856Y+4616485D01*
X+5377656Y+4616485D02*
X+5418296Y+4616485D01*
X+5474176Y+4616485D02*
X+5514816Y+4616485D01*
X+5545296Y+4616485D02*
X+5580856Y+4616485D01*
X+5606256Y+4616485D02*
X+5651976Y+4616485D01*
X+5702776Y+4616485D02*
X+5758656Y+4616485D01*
X+5794216Y+4616485D02*
X+5834856Y+4616485D01*
X+5911056Y+4616485D02*
X+5951696Y+4616485D01*
X+6002496Y+4616485D02*
X+6048216Y+4616485D01*
X+6083776Y+4616485D02*
X+6124416Y+4616485D01*
X+6159976Y+4616485D02*
X+6200616Y+4616485D01*
X+6246336Y+4616485D02*
X+6266656Y+4616485D01*
X+6312376Y+4616485D02*
X+6363176Y+4616485D01*
X+6403816Y+4616485D02*
X+6449536Y+4616485D01*
X+6612096Y+4616485D02*
X+6652736Y+4616485D01*
X+6708616Y+4616485D02*
X+6749256Y+4616485D01*
X+6784816Y+4616485D02*
X+6810216Y+4616485D01*
X+6855936Y+4616485D02*
X+6896576Y+4616485D01*
X+6947376Y+4616485D02*
X+6998176Y+4616485D01*
X+7038816Y+4616485D02*
X+7054056Y+4616485D01*
X+7094696Y+4616485D02*
X+7150576Y+4616485D01*
X+7186136Y+4616485D02*
X+7226776Y+4616485D01*
X+7282656Y+4616485D02*
X+7318216Y+4616485D01*
X+7384256Y+4616485D02*
X+7440136Y+4616485D01*
X+7475696Y+4616485D02*
X+7516336Y+4616485D01*
X+7572216Y+4616485D02*
X+7597616Y+4616485D01*
X+7643336Y+4616485D02*
X+7683976Y+4616485D01*
X+7719536Y+4616485D02*
X+7755096Y+4616485D01*
X+7816056Y+4616485D02*
X+7856696Y+4616485D01*
X+2177256Y+4621565D02*
X+2222976Y+4621565D01*
X+2248376Y+4621565D02*
X+2289016Y+4621565D01*
X+2344896Y+4621565D02*
X+2380456Y+4621565D01*
X+2431256Y+4621565D02*
X+2466816Y+4621565D01*
X+2532856Y+4621565D02*
X+2598896Y+4621565D01*
X+2614136Y+4621565D02*
X+2664936Y+4621565D01*
X+2715736Y+4621565D02*
X+2751296Y+4621565D01*
X+2812256Y+4621565D02*
X+2852896Y+4621565D01*
X+2898616Y+4621565D02*
X+2959576Y+4621565D01*
X+2979896Y+4621565D02*
X+3030696Y+4621565D01*
X+3172936Y+4621565D02*
X+3228816Y+4621565D01*
X+3238976Y+4621565D02*
X+3274536Y+4621565D01*
X+3320256Y+4621565D02*
X+3371056Y+4621565D01*
X+3391376Y+4621565D02*
X+3442176Y+4621565D01*
X+3498056Y+4621565D02*
X+3559016Y+4621565D01*
X+3574256Y+4621565D02*
X+3655536Y+4621565D01*
X+3670776Y+4621565D02*
X+3721576Y+4621565D01*
X+3807936Y+4621565D02*
X+3843496Y+4621565D01*
X+3899376Y+4621565D02*
X+3940016Y+4621565D01*
X+3960336Y+4621565D02*
X+4011136Y+4621565D01*
X+4061936Y+4621565D02*
X+4127976Y+4621565D01*
X+4143216Y+4621565D02*
X+4194016Y+4621565D01*
X+4244816Y+4621565D02*
X+4300696Y+4621565D01*
X+4315936Y+4621565D02*
X+4376896Y+4621565D01*
X+4427696Y+4621565D02*
X+4524216Y+4621565D01*
X+4559776Y+4621565D02*
X+4610576Y+4621565D01*
X+4625816Y+4621565D02*
X+4676616Y+4621565D01*
X+4707096Y+4621565D02*
X+4742656Y+4621565D01*
X+4788376Y+4621565D02*
X+4839176Y+4621565D01*
X+4884896Y+4621565D02*
X+4920456Y+4621565D01*
X+4945856Y+4621565D02*
X+4996656Y+4621565D01*
X+5016976Y+4621565D02*
X+5052536Y+4621565D01*
X+5103336Y+4621565D02*
X+5154136Y+4621565D01*
X+5169376Y+4621565D02*
X+5220176Y+4621565D01*
X+5265896Y+4621565D02*
X+5362416Y+4621565D01*
X+5377656Y+4621565D02*
X+5418296Y+4621565D01*
X+5474176Y+4621565D02*
X+5514816Y+4621565D01*
X+5545296Y+4621565D02*
X+5580856Y+4621565D01*
X+5611336Y+4621565D02*
X+5657056Y+4621565D01*
X+5702776Y+4621565D02*
X+5768816Y+4621565D01*
X+5784056Y+4621565D02*
X+5834856Y+4621565D01*
X+5916136Y+4621565D02*
X+5951696Y+4621565D01*
X+6007576Y+4621565D02*
X+6058376Y+4621565D01*
X+6073616Y+4621565D02*
X+6124416Y+4621565D01*
X+6159976Y+4621565D02*
X+6210776Y+4621565D01*
X+6231096Y+4621565D02*
X+6266656Y+4621565D01*
X+6312376Y+4621565D02*
X+6373336Y+4621565D01*
X+6393656Y+4621565D02*
X+6444456Y+4621565D01*
X+6612096Y+4621565D02*
X+6652736Y+4621565D01*
X+6708616Y+4621565D02*
X+6749256Y+4621565D01*
X+6784816Y+4621565D02*
X+6825456Y+4621565D01*
X+6845776Y+4621565D02*
X+6896576Y+4621565D01*
X+6952456Y+4621565D02*
X+7008336Y+4621565D01*
X+7018496Y+4621565D02*
X+7054056Y+4621565D01*
X+7094696Y+4621565D02*
X+7160736Y+4621565D01*
X+7175976Y+4621565D02*
X+7226776Y+4621565D01*
X+7282656Y+4621565D02*
X+7318216Y+4621565D01*
X+7384256Y+4621565D02*
X+7450296Y+4621565D01*
X+7465536Y+4621565D02*
X+7516336Y+4621565D01*
X+7572216Y+4621565D02*
X+7612856Y+4621565D01*
X+7633176Y+4621565D02*
X+7683976Y+4621565D01*
X+7714456Y+4621565D02*
X+7755096Y+4621565D01*
X+7816056Y+4621565D02*
X+7856696Y+4621565D01*
X+2182336Y+4626645D02*
X+2314416Y+4626645D01*
X+2344896Y+4626645D02*
X+2380456Y+4626645D01*
X+2405856Y+4626645D02*
X+2507456Y+4626645D01*
X+2532856Y+4626645D02*
X+2664936Y+4626645D01*
X+2715736Y+4626645D02*
X+2751296Y+4626645D01*
X+2812256Y+4626645D02*
X+2852896Y+4626645D01*
X+2898616Y+4626645D02*
X+3025616Y+4626645D01*
X+3178016Y+4626645D02*
X+3279616Y+4626645D01*
X+3325336Y+4626645D02*
X+3437096Y+4626645D01*
X+3498056Y+4626645D02*
X+3721576Y+4626645D01*
X+3807936Y+4626645D02*
X+3843496Y+4626645D01*
X+3899376Y+4626645D02*
X+4011136Y+4626645D01*
X+4061936Y+4626645D02*
X+4194016Y+4626645D01*
X+4249896Y+4626645D02*
X+4376896Y+4626645D01*
X+4427696Y+4626645D02*
X+4524216Y+4626645D01*
X+4564856Y+4626645D02*
X+4671536Y+4626645D01*
X+4702016Y+4626645D02*
X+4742656Y+4626645D01*
X+4788376Y+4626645D02*
X+4839176Y+4626645D01*
X+4884896Y+4626645D02*
X+4925536Y+4626645D01*
X+4950936Y+4626645D02*
X+5057616Y+4626645D01*
X+5108416Y+4626645D02*
X+5215096Y+4626645D01*
X+5265896Y+4626645D02*
X+5362416Y+4626645D01*
X+5372576Y+4626645D02*
X+5413216Y+4626645D01*
X+5479256Y+4626645D02*
X+5519896Y+4626645D01*
X+5545296Y+4626645D02*
X+5580856Y+4626645D01*
X+5616416Y+4626645D02*
X+5662136Y+4626645D01*
X+5702776Y+4626645D02*
X+5834856Y+4626645D01*
X+5916136Y+4626645D02*
X+5951696Y+4626645D01*
X+6012656Y+4626645D02*
X+6119336Y+4626645D01*
X+6165056Y+4626645D02*
X+6271736Y+4626645D01*
X+6312376Y+4626645D02*
X+6439376Y+4626645D01*
X+6607016Y+4626645D02*
X+6647656Y+4626645D01*
X+6713696Y+4626645D02*
X+6754336Y+4626645D01*
X+6784816Y+4626645D02*
X+6896576Y+4626645D01*
X+6957536Y+4626645D02*
X+7059136Y+4626645D01*
X+7094696Y+4626645D02*
X+7226776Y+4626645D01*
X+7257256Y+4626645D02*
X+7358856Y+4626645D01*
X+7384256Y+4626645D02*
X+7516336Y+4626645D01*
X+7572216Y+4626645D02*
X+7683976Y+4626645D01*
X+7714456Y+4626645D02*
X+7755096Y+4626645D01*
X+7816056Y+4626645D02*
X+7856696Y+4626645D01*
X+2187416Y+4631725D02*
X+2314416Y+4631725D01*
X+2344896Y+4631725D02*
X+2380456Y+4631725D01*
X+2405856Y+4631725D02*
X+2507456Y+4631725D01*
X+2532856Y+4631725D02*
X+2659856Y+4631725D01*
X+2715736Y+4631725D02*
X+2751296Y+4631725D01*
X+2812256Y+4631725D02*
X+2852896Y+4631725D01*
X+2898616Y+4631725D02*
X+3025616Y+4631725D01*
X+3178016Y+4631725D02*
X+3279616Y+4631725D01*
X+3325336Y+4631725D02*
X+3432016Y+4631725D01*
X+3498056Y+4631725D02*
X+3716496Y+4631725D01*
X+3807936Y+4631725D02*
X+3848576Y+4631725D01*
X+3894296Y+4631725D02*
X+4006056Y+4631725D01*
X+4061936Y+4631725D02*
X+4188936Y+4631725D01*
X+4254976Y+4631725D02*
X+4376896Y+4631725D01*
X+4427696Y+4631725D02*
X+4524216Y+4631725D01*
X+4564856Y+4631725D02*
X+4666456Y+4631725D01*
X+4702016Y+4631725D02*
X+4742656Y+4631725D01*
X+4788376Y+4631725D02*
X+4839176Y+4631725D01*
X+4884896Y+4631725D02*
X+4925536Y+4631725D01*
X+4950936Y+4631725D02*
X+5057616Y+4631725D01*
X+5108416Y+4631725D02*
X+5210016Y+4631725D01*
X+5265896Y+4631725D02*
X+5362416Y+4631725D01*
X+5372576Y+4631725D02*
X+5413216Y+4631725D01*
X+5479256Y+4631725D02*
X+5519896Y+4631725D01*
X+5545296Y+4631725D02*
X+5580856Y+4631725D01*
X+5621496Y+4631725D02*
X+5667216Y+4631725D01*
X+5702776Y+4631725D02*
X+5829776Y+4631725D01*
X+5916136Y+4631725D02*
X+5956776Y+4631725D01*
X+6012656Y+4631725D02*
X+6114256Y+4631725D01*
X+6165056Y+4631725D02*
X+6271736Y+4631725D01*
X+6312376Y+4631725D02*
X+6439376Y+4631725D01*
X+6607016Y+4631725D02*
X+6647656Y+4631725D01*
X+6713696Y+4631725D02*
X+6754336Y+4631725D01*
X+6779736Y+4631725D02*
X+6891496Y+4631725D01*
X+6957536Y+4631725D02*
X+7059136Y+4631725D01*
X+7094696Y+4631725D02*
X+7221696Y+4631725D01*
X+7257256Y+4631725D02*
X+7358856Y+4631725D01*
X+7384256Y+4631725D02*
X+7511256Y+4631725D01*
X+7567136Y+4631725D02*
X+7678896Y+4631725D01*
X+7714456Y+4631725D02*
X+7755096Y+4631725D01*
X+7821136Y+4631725D02*
X+7861776Y+4631725D01*
X+2192496Y+4636805D02*
X+2314416Y+4636805D01*
X+2344896Y+4636805D02*
X+2380456Y+4636805D01*
X+2405856Y+4636805D02*
X+2507456Y+4636805D01*
X+2532856Y+4636805D02*
X+2654776Y+4636805D01*
X+2715736Y+4636805D02*
X+2751296Y+4636805D01*
X+2812256Y+4636805D02*
X+2852896Y+4636805D01*
X+2898616Y+4636805D02*
X+3020536Y+4636805D01*
X+3188176Y+4636805D02*
X+3279616Y+4636805D01*
X+3335496Y+4636805D02*
X+3426936Y+4636805D01*
X+3498056Y+4636805D02*
X+3619976Y+4636805D01*
X+3625056Y+4636805D02*
X+3716496Y+4636805D01*
X+3813016Y+4636805D02*
X+3848576Y+4636805D01*
X+3894296Y+4636805D02*
X+4000976Y+4636805D01*
X+4061936Y+4636805D02*
X+4183856Y+4636805D01*
X+4260056Y+4636805D02*
X+4376896Y+4636805D01*
X+4427696Y+4636805D02*
X+4458176Y+4636805D01*
X+4468336Y+4636805D02*
X+4524216Y+4636805D01*
X+4575016Y+4636805D02*
X+4661376Y+4636805D01*
X+4702016Y+4636805D02*
X+4737576Y+4636805D01*
X+4793456Y+4636805D02*
X+4834096Y+4636805D01*
X+4889976Y+4636805D02*
X+4925536Y+4636805D01*
X+4956016Y+4636805D02*
X+5057616Y+4636805D01*
X+5118576Y+4636805D02*
X+5204936Y+4636805D01*
X+5265896Y+4636805D02*
X+5296376Y+4636805D01*
X+5306536Y+4636805D02*
X+5362416Y+4636805D01*
X+5372576Y+4636805D02*
X+5413216Y+4636805D01*
X+5479256Y+4636805D02*
X+5519896Y+4636805D01*
X+5545296Y+4636805D02*
X+5580856Y+4636805D01*
X+5621496Y+4636805D02*
X+5667216Y+4636805D01*
X+5702776Y+4636805D02*
X+5824696Y+4636805D01*
X+5921216Y+4636805D02*
X+5956776Y+4636805D01*
X+6022816Y+4636805D02*
X+6109176Y+4636805D01*
X+6170136Y+4636805D02*
X+6271736Y+4636805D01*
X+6312376Y+4636805D02*
X+6434296Y+4636805D01*
X+6607016Y+4636805D02*
X+6647656Y+4636805D01*
X+6713696Y+4636805D02*
X+6754336Y+4636805D01*
X+6779736Y+4636805D02*
X+6886416Y+4636805D01*
X+6967696Y+4636805D02*
X+7059136Y+4636805D01*
X+7094696Y+4636805D02*
X+7216616Y+4636805D01*
X+7257256Y+4636805D02*
X+7358856Y+4636805D01*
X+7384256Y+4636805D02*
X+7506176Y+4636805D01*
X+7567136Y+4636805D02*
X+7673816Y+4636805D01*
X+7709376Y+4636805D02*
X+7750016Y+4636805D01*
X+7821136Y+4636805D02*
X+7861776Y+4636805D01*
X+2197576Y+4641885D02*
X+2314416Y+4641885D01*
X+2344896Y+4641885D02*
X+2380456Y+4641885D01*
X+2410936Y+4641885D02*
X+2507456Y+4641885D01*
X+2532856Y+4641885D02*
X+2568416Y+4641885D01*
X+2573496Y+4641885D02*
X+2649696Y+4641885D01*
X+2715736Y+4641885D02*
X+2751296Y+4641885D01*
X+2812256Y+4641885D02*
X+2852896Y+4641885D01*
X+2898616Y+4641885D02*
X+2934176Y+4641885D01*
X+2939256Y+4641885D02*
X+3010376Y+4641885D01*
X+3193256Y+4641885D02*
X+3279616Y+4641885D01*
X+3340576Y+4641885D02*
X+3421856Y+4641885D01*
X+3498056Y+4641885D02*
X+3528536Y+4641885D01*
X+3538696Y+4641885D02*
X+3614896Y+4641885D01*
X+3635216Y+4641885D02*
X+3706336Y+4641885D01*
X+3813016Y+4641885D02*
X+3848576Y+4641885D01*
X+3904456Y+4641885D02*
X+3995896Y+4641885D01*
X+4061936Y+4641885D02*
X+4092416Y+4641885D01*
X+4102576Y+4641885D02*
X+4178776Y+4641885D01*
X+4265136Y+4641885D02*
X+4336256Y+4641885D01*
X+4341336Y+4641885D02*
X+4376896Y+4641885D01*
X+4427696Y+4641885D02*
X+4458176Y+4641885D01*
X+4473416Y+4641885D02*
X+4524216Y+4641885D01*
X+4580096Y+4641885D02*
X+4656296Y+4641885D01*
X+4702016Y+4641885D02*
X+4737576Y+4641885D01*
X+4793456Y+4641885D02*
X+4834096Y+4641885D01*
X+4889976Y+4641885D02*
X+4925536Y+4641885D01*
X+4966176Y+4641885D02*
X+5052536Y+4641885D01*
X+5123656Y+4641885D02*
X+5199856Y+4641885D01*
X+5265896Y+4641885D02*
X+5296376Y+4641885D01*
X+5311616Y+4641885D02*
X+5362416Y+4641885D01*
X+5367496Y+4641885D02*
X+5408136Y+4641885D01*
X+5484336Y+4641885D02*
X+5524976Y+4641885D01*
X+5545296Y+4641885D02*
X+5580856Y+4641885D01*
X+5626576Y+4641885D02*
X+5672296Y+4641885D01*
X+5702776Y+4641885D02*
X+5738336Y+4641885D01*
X+5743416Y+4641885D02*
X+5819616Y+4641885D01*
X+5921216Y+4641885D02*
X+5956776Y+4641885D01*
X+6027896Y+4641885D02*
X+6104096Y+4641885D01*
X+6180296Y+4641885D02*
X+6266656Y+4641885D01*
X+6312376Y+4641885D02*
X+6342856Y+4641885D01*
X+6353016Y+4641885D02*
X+6424136Y+4641885D01*
X+6601936Y+4641885D02*
X+6642576Y+4641885D01*
X+6718776Y+4641885D02*
X+6759416Y+4641885D01*
X+6789896Y+4641885D02*
X+6881336Y+4641885D01*
X+6972776Y+4641885D02*
X+7059136Y+4641885D01*
X+7094696Y+4641885D02*
X+7130256Y+4641885D01*
X+7135336Y+4641885D02*
X+7211536Y+4641885D01*
X+7262336Y+4641885D02*
X+7358856Y+4641885D01*
X+7384256Y+4641885D02*
X+7414736Y+4641885D01*
X+7424896Y+4641885D02*
X+7501096Y+4641885D01*
X+7577296Y+4641885D02*
X+7668736Y+4641885D01*
X+7709376Y+4641885D02*
X+7750016Y+4641885D01*
X+7821136Y+4641885D02*
X+7861776Y+4641885D01*
X+2207736Y+4646965D02*
X+2314416Y+4646965D01*
X+2344896Y+4646965D02*
X+2380456Y+4646965D01*
X+2421096Y+4646965D02*
X+2507456Y+4646965D01*
X+2532856Y+4646965D02*
X+2568416Y+4646965D01*
X+2583656Y+4646965D02*
X+2639536Y+4646965D01*
X+2715736Y+4646965D02*
X+2751296Y+4646965D01*
X+2812256Y+4646965D02*
X+2852896Y+4646965D01*
X+2898616Y+4646965D02*
X+2934176Y+4646965D01*
X+2949416Y+4646965D02*
X+3005296Y+4646965D01*
X+3203416Y+4646965D02*
X+3269456Y+4646965D01*
X+3350736Y+4646965D02*
X+3411696Y+4646965D01*
X+3498056Y+4646965D02*
X+3528536Y+4646965D01*
X+3548856Y+4646965D02*
X+3604736Y+4646965D01*
X+3640296Y+4646965D02*
X+3701256Y+4646965D01*
X+3813016Y+4646965D02*
X+3853656Y+4646965D01*
X+3919696Y+4646965D02*
X+3985736Y+4646965D01*
X+4061936Y+4646965D02*
X+4092416Y+4646965D01*
X+4112736Y+4646965D02*
X+4168616Y+4646965D01*
X+4275296Y+4646965D02*
X+4331176Y+4646965D01*
X+4341336Y+4646965D02*
X+4376896Y+4646965D01*
X+4427696Y+4646965D02*
X+4458176Y+4646965D01*
X+4478496Y+4646965D02*
X+4524216Y+4646965D01*
X+4590256Y+4646965D02*
X+4646136Y+4646965D01*
X+4702016Y+4646965D02*
X+4737576Y+4646965D01*
X+4793456Y+4646965D02*
X+4834096Y+4646965D01*
X+4889976Y+4646965D02*
X+4925536Y+4646965D01*
X+4976336Y+4646965D02*
X+5042376Y+4646965D01*
X+5133816Y+4646965D02*
X+5189696Y+4646965D01*
X+5265896Y+4646965D02*
X+5296376Y+4646965D01*
X+5316696Y+4646965D02*
X+5362416Y+4646965D01*
X+5367496Y+4646965D02*
X+5408136Y+4646965D01*
X+5484336Y+4646965D02*
X+5524976Y+4646965D01*
X+5545296Y+4646965D02*
X+5580856Y+4646965D01*
X+5631656Y+4646965D02*
X+5672296Y+4646965D01*
X+5702776Y+4646965D02*
X+5738336Y+4646965D01*
X+5753576Y+4646965D02*
X+5809456Y+4646965D01*
X+5921216Y+4646965D02*
X+5961856Y+4646965D01*
X+6038056Y+4646965D02*
X+6093936Y+4646965D01*
X+6190456Y+4646965D02*
X+6256496Y+4646965D01*
X+6312376Y+4646965D02*
X+6342856Y+4646965D01*
X+6363176Y+4646965D02*
X+6419056Y+4646965D01*
X+6601936Y+4646965D02*
X+6642576Y+4646965D01*
X+6718776Y+4646965D02*
X+6759416Y+4646965D01*
X+6805136Y+4646965D02*
X+6871176Y+4646965D01*
X+6982936Y+4646965D02*
X+7048976Y+4646965D01*
X+7094696Y+4646965D02*
X+7130256Y+4646965D01*
X+7145496Y+4646965D02*
X+7201376Y+4646965D01*
X+7272496Y+4646965D02*
X+7358856Y+4646965D01*
X+7384256Y+4646965D02*
X+7414736Y+4646965D01*
X+7435056Y+4646965D02*
X+7490936Y+4646965D01*
X+7592536Y+4646965D02*
X+7658576Y+4646965D01*
X+7709376Y+4646965D02*
X+7750016Y+4646965D01*
X+7826216Y+4646965D02*
X+7861776Y+4646965D01*
X+2431256Y+4652045D02*
X+2466816Y+4652045D01*
X+2532856Y+4652045D02*
X+2568416Y+4652045D01*
X+2898616Y+4652045D02*
X+2934176Y+4652045D01*
X+3818096Y+4652045D02*
X+3853656Y+4652045D01*
X+4341336Y+4652045D02*
X+4376896Y+4652045D01*
X+5545296Y+4652045D02*
X+5580856Y+4652045D01*
X+5702776Y+4652045D02*
X+5738336Y+4652045D01*
X+5926296Y+4652045D02*
X+5961856Y+4652045D01*
X+7094696Y+4652045D02*
X+7130256Y+4652045D01*
X+7282656Y+4652045D02*
X+7318216Y+4652045D01*
X+2431256Y+4657125D02*
X+2466816Y+4657125D01*
X+2532856Y+4657125D02*
X+2568416Y+4657125D01*
X+2898616Y+4657125D02*
X+2934176Y+4657125D01*
X+3818096Y+4657125D02*
X+3858736Y+4657125D01*
X+4341336Y+4657125D02*
X+4376896Y+4657125D01*
X+5545296Y+4657125D02*
X+5580856Y+4657125D01*
X+5702776Y+4657125D02*
X+5738336Y+4657125D01*
X+5926296Y+4657125D02*
X+5966936Y+4657125D01*
X+7094696Y+4657125D02*
X+7130256Y+4657125D01*
X+7282656Y+4657125D02*
X+7318216Y+4657125D01*
X+2431256Y+4662205D02*
X+2466816Y+4662205D01*
X+2532856Y+4662205D02*
X+2568416Y+4662205D01*
X+2898616Y+4662205D02*
X+2934176Y+4662205D01*
X+3823176Y+4662205D02*
X+3858736Y+4662205D01*
X+4341336Y+4662205D02*
X+4376896Y+4662205D01*
X+5545296Y+4662205D02*
X+5580856Y+4662205D01*
X+5702776Y+4662205D02*
X+5738336Y+4662205D01*
X+5931376Y+4662205D02*
X+5966936Y+4662205D01*
X+7094696Y+4662205D02*
X+7130256Y+4662205D01*
X+7282656Y+4662205D02*
X+7318216Y+4662205D01*
X+2436336Y+4667285D02*
X+2466816Y+4667285D01*
X+2532856Y+4667285D02*
X+2568416Y+4667285D01*
X+2898616Y+4667285D02*
X+2934176Y+4667285D01*
X+3823176Y+4667285D02*
X+3858736Y+4667285D01*
X+4341336Y+4667285D02*
X+4376896Y+4667285D01*
X+5545296Y+4667285D02*
X+5580856Y+4667285D01*
X+5702776Y+4667285D02*
X+5738336Y+4667285D01*
X+5931376Y+4667285D02*
X+5966936Y+4667285D01*
X+7094696Y+4667285D02*
X+7130256Y+4667285D01*
X+7287736Y+4667285D02*
X+7318216Y+4667285D01*
X+2349976Y+4672365D02*
X+2380456Y+4672365D01*
X+2436336Y+4672365D02*
X+2466816Y+4672365D01*
X+2532856Y+4672365D02*
X+2568416Y+4672365D01*
X+2898616Y+4672365D02*
X+2934176Y+4672365D01*
X+3823176Y+4672365D02*
X+3863816Y+4672365D01*
X+4341336Y+4672365D02*
X+4376896Y+4672365D01*
X+5545296Y+4672365D02*
X+5580856Y+4672365D01*
X+5702776Y+4672365D02*
X+5738336Y+4672365D01*
X+5931376Y+4672365D02*
X+5972016Y+4672365D01*
X+7094696Y+4672365D02*
X+7130256Y+4672365D01*
X+7287736Y+4672365D02*
X+7318216Y+4672365D01*
X+2344896Y+4677445D02*
X+2385536Y+4677445D01*
X+2436336Y+4677445D02*
X+2466816Y+4677445D01*
X+2532856Y+4677445D02*
X+2568416Y+4677445D01*
X+2898616Y+4677445D02*
X+2934176Y+4677445D01*
X+3828256Y+4677445D02*
X+3863816Y+4677445D01*
X+4341336Y+4677445D02*
X+4376896Y+4677445D01*
X+5545296Y+4677445D02*
X+5580856Y+4677445D01*
X+5702776Y+4677445D02*
X+5738336Y+4677445D01*
X+5936456Y+4677445D02*
X+5972016Y+4677445D01*
X+7094696Y+4677445D02*
X+7130256Y+4677445D01*
X+7287736Y+4677445D02*
X+7318216Y+4677445D01*
X+2344896Y+4682525D02*
X+2385536Y+4682525D01*
X+2436336Y+4682525D02*
X+2466816Y+4682525D01*
X+2532856Y+4682525D02*
X+2568416Y+4682525D01*
X+2898616Y+4682525D02*
X+2934176Y+4682525D01*
X+3828256Y+4682525D02*
X+3863816Y+4682525D01*
X+4341336Y+4682525D02*
X+4376896Y+4682525D01*
X+5545296Y+4682525D02*
X+5580856Y+4682525D01*
X+5702776Y+4682525D02*
X+5738336Y+4682525D01*
X+5936456Y+4682525D02*
X+5972016Y+4682525D01*
X+7094696Y+4682525D02*
X+7130256Y+4682525D01*
X+7287736Y+4682525D02*
X+7318216Y+4682525D01*
X+2344896Y+4687605D02*
X+2385536Y+4687605D01*
X+2532856Y+4687605D02*
X+2568416Y+4687605D01*
X+2898616Y+4687605D02*
X+2934176Y+4687605D01*
X+3828256Y+4687605D02*
X+3868896Y+4687605D01*
X+4341336Y+4687605D02*
X+4376896Y+4687605D01*
X+5545296Y+4687605D02*
X+5580856Y+4687605D01*
X+5702776Y+4687605D02*
X+5738336Y+4687605D01*
X+5936456Y+4687605D02*
X+5977096Y+4687605D01*
X+7094696Y+4687605D02*
X+7130256Y+4687605D01*
X+2344896Y+4692685D02*
X+2385536Y+4692685D01*
X+2532856Y+4692685D02*
X+2568416Y+4692685D01*
X+2898616Y+4692685D02*
X+2934176Y+4692685D01*
X+3833336Y+4692685D02*
X+3868896Y+4692685D01*
X+4341336Y+4692685D02*
X+4376896Y+4692685D01*
X+5545296Y+4692685D02*
X+5580856Y+4692685D01*
X+5702776Y+4692685D02*
X+5738336Y+4692685D01*
X+5941536Y+4692685D02*
X+5977096Y+4692685D01*
X+7094696Y+4692685D02*
X+7130256Y+4692685D01*
X+2344896Y+4697765D02*
X+2385536Y+4697765D01*
X+2532856Y+4697765D02*
X+2568416Y+4697765D01*
X+2898616Y+4697765D02*
X+2934176Y+4697765D01*
X+3833336Y+4697765D02*
X+3868896Y+4697765D01*
X+4341336Y+4697765D02*
X+4376896Y+4697765D01*
X+5545296Y+4697765D02*
X+5580856Y+4697765D01*
X+5702776Y+4697765D02*
X+5738336Y+4697765D01*
X+5941536Y+4697765D02*
X+5977096Y+4697765D01*
X+7094696Y+4697765D02*
X+7130256Y+4697765D01*
X+2344896Y+4702845D02*
X+2380456Y+4702845D01*
X+2532856Y+4702845D02*
X+2568416Y+4702845D01*
X+2898616Y+4702845D02*
X+2934176Y+4702845D01*
X+4341336Y+4702845D02*
X+4376896Y+4702845D01*
X+5545296Y+4702845D02*
X+5580856Y+4702845D01*
X+5702776Y+4702845D02*
X+5738336Y+4702845D01*
X+7094696Y+4702845D02*
X+7130256Y+4702845D01*
X+2355056Y+4707925D02*
X+2370296Y+4707925D01*
X+2532856Y+4707925D02*
X+2568416Y+4707925D01*
X+2898616Y+4707925D02*
X+2934176Y+4707925D01*
X+4341336Y+4707925D02*
X+4376896Y+4707925D01*
X+5545296Y+4707925D02*
X+5580856Y+4707925D01*
X+5702776Y+4707925D02*
X+5738336Y+4707925D01*
X+7094696Y+4707925D02*
X+7130256Y+4707925D01*
X+2532856Y+4713005D02*
X+2568416Y+4713005D01*
X+2898616Y+4713005D02*
X+2934176Y+4713005D01*
X+4341336Y+4713005D02*
X+4376896Y+4713005D01*
X+5545296Y+4713005D02*
X+5580856Y+4713005D01*
X+5702776Y+4713005D02*
X+5738336Y+4713005D01*
X+7094696Y+4713005D02*
X+7130256Y+4713005D01*
X+696815Y+734405D02*
X+732375Y+734405D01*
X+808575Y+734405D02*
X+849215Y+734405D01*
X+879695Y+734405D02*
X+1001615Y+734405D01*
X+1047335Y+734405D02*
X+1209895Y+734405D01*
X+1321655Y+734405D02*
X+1362295Y+734405D01*
X+1423255Y+734405D02*
X+1458815Y+734405D01*
X+696815Y+739485D02*
X+732375Y+739485D01*
X+803495Y+739485D02*
X+849215Y+739485D01*
X+879695Y+739485D02*
X+1001615Y+739485D01*
X+1047335Y+739485D02*
X+1209895Y+739485D01*
X+1321655Y+739485D02*
X+1362295Y+739485D01*
X+1423255Y+739485D02*
X+1458815Y+739485D01*
X+696815Y+744565D02*
X+732375Y+744565D01*
X+798415Y+744565D02*
X+844135Y+744565D01*
X+879695Y+744565D02*
X+1001615Y+744565D01*
X+1047335Y+744565D02*
X+1169255Y+744565D01*
X+1174335Y+744565D02*
X+1209895Y+744565D01*
X+1321655Y+744565D02*
X+1357215Y+744565D01*
X+1423255Y+744565D02*
X+1458815Y+744565D01*
X+696815Y+749645D02*
X+732375Y+749645D01*
X+798415Y+749645D02*
X+844135Y+749645D01*
X+879695Y+749645D02*
X+1001615Y+749645D01*
X+1047335Y+749645D02*
X+1169255Y+749645D01*
X+1174335Y+749645D02*
X+1214975Y+749645D01*
X+1316575Y+749645D02*
X+1357215Y+749645D01*
X+1423255Y+749645D02*
X+1458815Y+749645D01*
X+696815Y+754725D02*
X+732375Y+754725D01*
X+793335Y+754725D02*
X+839055Y+754725D01*
X+879695Y+754725D02*
X+1001615Y+754725D01*
X+1047335Y+754725D02*
X+1169255Y+754725D01*
X+1174335Y+754725D02*
X+1214975Y+754725D01*
X+1316575Y+754725D02*
X+1357215Y+754725D01*
X+1423255Y+754725D02*
X+1458815Y+754725D01*
X+696815Y+759805D02*
X+732375Y+759805D01*
X+793335Y+759805D02*
X+833975Y+759805D01*
X+879695Y+759805D02*
X+1001615Y+759805D01*
X+1047335Y+759805D02*
X+1169255Y+759805D01*
X+1179415Y+759805D02*
X+1214975Y+759805D01*
X+1311495Y+759805D02*
X+1352135Y+759805D01*
X+1423255Y+759805D02*
X+1458815Y+759805D01*
X+696815Y+764885D02*
X+732375Y+764885D01*
X+788255Y+764885D02*
X+833975Y+764885D01*
X+879695Y+764885D02*
X+915255Y+764885D01*
X+1047335Y+764885D02*
X+1082895Y+764885D01*
X+1179415Y+764885D02*
X+1220055Y+764885D01*
X+1311495Y+764885D02*
X+1352135Y+764885D01*
X+1423255Y+764885D02*
X+1458815Y+764885D01*
X+696815Y+769965D02*
X+732375Y+769965D01*
X+788255Y+769965D02*
X+828895Y+769965D01*
X+879695Y+769965D02*
X+915255Y+769965D01*
X+1047335Y+769965D02*
X+1082895Y+769965D01*
X+1179415Y+769965D02*
X+1220055Y+769965D01*
X+1311495Y+769965D02*
X+1352135Y+769965D01*
X+1423255Y+769965D02*
X+1458815Y+769965D01*
X+696815Y+775045D02*
X+732375Y+775045D01*
X+783175Y+775045D02*
X+828895Y+775045D01*
X+879695Y+775045D02*
X+915255Y+775045D01*
X+1047335Y+775045D02*
X+1082895Y+775045D01*
X+1184495Y+775045D02*
X+1225135Y+775045D01*
X+1306415Y+775045D02*
X+1347055Y+775045D01*
X+1423255Y+775045D02*
X+1458815Y+775045D01*
X+696815Y+780125D02*
X+732375Y+780125D01*
X+778095Y+780125D02*
X+823815Y+780125D01*
X+879695Y+780125D02*
X+915255Y+780125D01*
X+1047335Y+780125D02*
X+1082895Y+780125D01*
X+1184495Y+780125D02*
X+1225135Y+780125D01*
X+1306415Y+780125D02*
X+1347055Y+780125D01*
X+1423255Y+780125D02*
X+1458815Y+780125D01*
X+696815Y+785205D02*
X+732375Y+785205D01*
X+778095Y+785205D02*
X+818735Y+785205D01*
X+879695Y+785205D02*
X+915255Y+785205D01*
X+1047335Y+785205D02*
X+1082895Y+785205D01*
X+1184495Y+785205D02*
X+1225135Y+785205D01*
X+1306415Y+785205D02*
X+1341975Y+785205D01*
X+1423255Y+785205D02*
X+1458815Y+785205D01*
X+696815Y+790285D02*
X+732375Y+790285D01*
X+773015Y+790285D02*
X+818735Y+790285D01*
X+879695Y+790285D02*
X+915255Y+790285D01*
X+1047335Y+790285D02*
X+1082895Y+790285D01*
X+1189575Y+790285D02*
X+1230215Y+790285D01*
X+1301335Y+790285D02*
X+1341975Y+790285D01*
X+1423255Y+790285D02*
X+1458815Y+790285D01*
X+696815Y+795365D02*
X+732375Y+795365D01*
X+773015Y+795365D02*
X+813655Y+795365D01*
X+879695Y+795365D02*
X+915255Y+795365D01*
X+1047335Y+795365D02*
X+1082895Y+795365D01*
X+1189575Y+795365D02*
X+1230215Y+795365D01*
X+1301335Y+795365D02*
X+1341975Y+795365D01*
X+1423255Y+795365D02*
X+1458815Y+795365D01*
X+696815Y+800445D02*
X+732375Y+800445D01*
X+767935Y+800445D02*
X+808575Y+800445D01*
X+879695Y+800445D02*
X+915255Y+800445D01*
X+1047335Y+800445D02*
X+1082895Y+800445D01*
X+1194655Y+800445D02*
X+1336895Y+800445D01*
X+1423255Y+800445D02*
X+1458815Y+800445D01*
X+696815Y+805525D02*
X+732375Y+805525D01*
X+762855Y+805525D02*
X+808575Y+805525D01*
X+879695Y+805525D02*
X+915255Y+805525D01*
X+1047335Y+805525D02*
X+1082895Y+805525D01*
X+1194655Y+805525D02*
X+1336895Y+805525D01*
X+1423255Y+805525D02*
X+1458815Y+805525D01*
X+696815Y+810605D02*
X+732375Y+810605D01*
X+762855Y+810605D02*
X+803495Y+810605D01*
X+879695Y+810605D02*
X+915255Y+810605D01*
X+1047335Y+810605D02*
X+1082895Y+810605D01*
X+1194655Y+810605D02*
X+1336895Y+810605D01*
X+1423255Y+810605D02*
X+1458815Y+810605D01*
X+696815Y+815685D02*
X+732375Y+815685D01*
X+757775Y+815685D02*
X+803495Y+815685D01*
X+879695Y+815685D02*
X+915255Y+815685D01*
X+1047335Y+815685D02*
X+1082895Y+815685D01*
X+1199735Y+815685D02*
X+1331815Y+815685D01*
X+1423255Y+815685D02*
X+1458815Y+815685D01*
X+696815Y+820765D02*
X+732375Y+820765D01*
X+757775Y+820765D02*
X+798415Y+820765D01*
X+879695Y+820765D02*
X+915255Y+820765D01*
X+1047335Y+820765D02*
X+1082895Y+820765D01*
X+1199735Y+820765D02*
X+1331815Y+820765D01*
X+1418175Y+820765D02*
X+1463895Y+820765D01*
X+696815Y+825845D02*
X+793335Y+825845D01*
X+879695Y+825845D02*
X+915255Y+825845D01*
X+1047335Y+825845D02*
X+1082895Y+825845D01*
X+1199735Y+825845D02*
X+1326735Y+825845D01*
X+1418175Y+825845D02*
X+1463895Y+825845D01*
X+696815Y+830925D02*
X+798415Y+830925D01*
X+879695Y+830925D02*
X+915255Y+830925D01*
X+1047335Y+830925D02*
X+1082895Y+830925D01*
X+1204815Y+830925D02*
X+1240375Y+830925D01*
X+1291175Y+830925D02*
X+1326735Y+830925D01*
X+1413095Y+830925D02*
X+1468975Y+830925D01*
X+696815Y+836005D02*
X+808575Y+836005D01*
X+879695Y+836005D02*
X+991455Y+836005D01*
X+1047335Y+836005D02*
X+1082895Y+836005D01*
X+1204815Y+836005D02*
X+1245455Y+836005D01*
X+1286095Y+836005D02*
X+1326735Y+836005D01*
X+1413095Y+836005D02*
X+1468975Y+836005D01*
X+696815Y+841085D02*
X+813655Y+841085D01*
X+879695Y+841085D02*
X+991455Y+841085D01*
X+1047335Y+841085D02*
X+1082895Y+841085D01*
X+1204815Y+841085D02*
X+1245455Y+841085D01*
X+1286095Y+841085D02*
X+1321655Y+841085D01*
X+1408015Y+841085D02*
X+1474055Y+841085D01*
X+696815Y+846165D02*
X+818735Y+846165D01*
X+879695Y+846165D02*
X+991455Y+846165D01*
X+1047335Y+846165D02*
X+1082895Y+846165D01*
X+1209895Y+846165D02*
X+1245455Y+846165D01*
X+1286095Y+846165D02*
X+1321655Y+846165D01*
X+1408015Y+846165D02*
X+1474055Y+846165D01*
X+696815Y+851245D02*
X+732375Y+851245D01*
X+767935Y+851245D02*
X+823815Y+851245D01*
X+879695Y+851245D02*
X+991455Y+851245D01*
X+1047335Y+851245D02*
X+1082895Y+851245D01*
X+1209895Y+851245D02*
X+1250535Y+851245D01*
X+1281015Y+851245D02*
X+1321655Y+851245D01*
X+1402935Y+851245D02*
X+1479135Y+851245D01*
X+696815Y+856325D02*
X+732375Y+856325D01*
X+778095Y+856325D02*
X+828895Y+856325D01*
X+879695Y+856325D02*
X+991455Y+856325D01*
X+1047335Y+856325D02*
X+1082895Y+856325D01*
X+1214975Y+856325D02*
X+1250535Y+856325D01*
X+1281015Y+856325D02*
X+1316575Y+856325D01*
X+1402935Y+856325D02*
X+1438495Y+856325D01*
X+1443575Y+856325D02*
X+1479135Y+856325D01*
X+696815Y+861405D02*
X+732375Y+861405D01*
X+788255Y+861405D02*
X+828895Y+861405D01*
X+879695Y+861405D02*
X+915255Y+861405D01*
X+1047335Y+861405D02*
X+1082895Y+861405D01*
X+1214975Y+861405D02*
X+1250535Y+861405D01*
X+1275935Y+861405D02*
X+1316575Y+861405D01*
X+1397855Y+861405D02*
X+1438495Y+861405D01*
X+1443575Y+861405D02*
X+1484215Y+861405D01*
X+696815Y+866485D02*
X+732375Y+866485D01*
X+788255Y+866485D02*
X+828895Y+866485D01*
X+879695Y+866485D02*
X+915255Y+866485D01*
X+1047335Y+866485D02*
X+1082895Y+866485D01*
X+1214975Y+866485D02*
X+1255615Y+866485D01*
X+1275935Y+866485D02*
X+1316575Y+866485D01*
X+1397855Y+866485D02*
X+1433415Y+866485D01*
X+1448655Y+866485D02*
X+1484215Y+866485D01*
X+696815Y+871565D02*
X+732375Y+871565D01*
X+793335Y+871565D02*
X+833975Y+871565D01*
X+879695Y+871565D02*
X+915255Y+871565D01*
X+1047335Y+871565D02*
X+1082895Y+871565D01*
X+1220055Y+871565D02*
X+1255615Y+871565D01*
X+1275935Y+871565D02*
X+1311495Y+871565D01*
X+1392775Y+871565D02*
X+1433415Y+871565D01*
X+1448655Y+871565D02*
X+1489295Y+871565D01*
X+696815Y+876645D02*
X+732375Y+876645D01*
X+793335Y+876645D02*
X+833975Y+876645D01*
X+879695Y+876645D02*
X+915255Y+876645D01*
X+1047335Y+876645D02*
X+1082895Y+876645D01*
X+1220055Y+876645D02*
X+1255615Y+876645D01*
X+1270855Y+876645D02*
X+1311495Y+876645D01*
X+1392775Y+876645D02*
X+1428335Y+876645D01*
X+1453735Y+876645D02*
X+1489295Y+876645D01*
X+696815Y+881725D02*
X+732375Y+881725D01*
X+793335Y+881725D02*
X+833975Y+881725D01*
X+879695Y+881725D02*
X+915255Y+881725D01*
X+1047335Y+881725D02*
X+1082895Y+881725D01*
X+1220055Y+881725D02*
X+1260695Y+881725D01*
X+1270855Y+881725D02*
X+1306415Y+881725D01*
X+1387695Y+881725D02*
X+1428335Y+881725D01*
X+1453735Y+881725D02*
X+1494375Y+881725D01*
X+696815Y+886805D02*
X+732375Y+886805D01*
X+793335Y+886805D02*
X+833975Y+886805D01*
X+879695Y+886805D02*
X+915255Y+886805D01*
X+1047335Y+886805D02*
X+1082895Y+886805D01*
X+1225135Y+886805D02*
X+1260695Y+886805D01*
X+1270855Y+886805D02*
X+1306415Y+886805D01*
X+1387695Y+886805D02*
X+1423255Y+886805D01*
X+1453735Y+886805D02*
X+1494375Y+886805D01*
X+696815Y+891885D02*
X+732375Y+891885D01*
X+793335Y+891885D02*
X+833975Y+891885D01*
X+879695Y+891885D02*
X+915255Y+891885D01*
X+1047335Y+891885D02*
X+1082895Y+891885D01*
X+1225135Y+891885D02*
X+1260695Y+891885D01*
X+1265775Y+891885D02*
X+1306415Y+891885D01*
X+1382615Y+891885D02*
X+1423255Y+891885D01*
X+1458815Y+891885D02*
X+1499455Y+891885D01*
X+696815Y+896965D02*
X+732375Y+896965D01*
X+793335Y+896965D02*
X+833975Y+896965D01*
X+879695Y+896965D02*
X+915255Y+896965D01*
X+1047335Y+896965D02*
X+1082895Y+896965D01*
X+1225135Y+896965D02*
X+1301335Y+896965D01*
X+1382615Y+896965D02*
X+1423255Y+896965D01*
X+1458815Y+896965D02*
X+1499455Y+896965D01*
X+696815Y+902045D02*
X+732375Y+902045D01*
X+793335Y+902045D02*
X+833975Y+902045D01*
X+879695Y+902045D02*
X+915255Y+902045D01*
X+1047335Y+902045D02*
X+1082895Y+902045D01*
X+1230215Y+902045D02*
X+1301335Y+902045D01*
X+1377535Y+902045D02*
X+1418175Y+902045D01*
X+1463895Y+902045D02*
X+1504535Y+902045D01*
X+696815Y+907125D02*
X+732375Y+907125D01*
X+788255Y+907125D02*
X+833975Y+907125D01*
X+879695Y+907125D02*
X+915255Y+907125D01*
X+1047335Y+907125D02*
X+1082895Y+907125D01*
X+1230215Y+907125D02*
X+1301335Y+907125D01*
X+1377535Y+907125D02*
X+1418175Y+907125D01*
X+1463895Y+907125D02*
X+1504535Y+907125D01*
X+696815Y+912205D02*
X+732375Y+912205D01*
X+783175Y+912205D02*
X+828895Y+912205D01*
X+879695Y+912205D02*
X+915255Y+912205D01*
X+1047335Y+912205D02*
X+1082895Y+912205D01*
X+1235295Y+912205D02*
X+1296255Y+912205D01*
X+1372455Y+912205D02*
X+1413095Y+912205D01*
X+1468975Y+912205D02*
X+1509615Y+912205D01*
X+696815Y+917285D02*
X+732375Y+917285D01*
X+778095Y+917285D02*
X+828895Y+917285D01*
X+879695Y+917285D02*
X+915255Y+917285D01*
X+1047335Y+917285D02*
X+1082895Y+917285D01*
X+1235295Y+917285D02*
X+1296255Y+917285D01*
X+1372455Y+917285D02*
X+1413095Y+917285D01*
X+1468975Y+917285D02*
X+1509615Y+917285D01*
X+696815Y+922365D02*
X+732375Y+922365D01*
X+757775Y+922365D02*
X+823815Y+922365D01*
X+879695Y+922365D02*
X+1001615Y+922365D01*
X+1047335Y+922365D02*
X+1082895Y+922365D01*
X+1235295Y+922365D02*
X+1291175Y+922365D01*
X+1367375Y+922365D02*
X+1408015Y+922365D01*
X+1474055Y+922365D02*
X+1514695Y+922365D01*
X+696815Y+927445D02*
X+823815Y+927445D01*
X+879695Y+927445D02*
X+1001615Y+927445D01*
X+1047335Y+927445D02*
X+1082895Y+927445D01*
X+1240375Y+927445D02*
X+1291175Y+927445D01*
X+1367375Y+927445D02*
X+1408015Y+927445D01*
X+1474055Y+927445D02*
X+1514695Y+927445D01*
X+696815Y+932525D02*
X+818735Y+932525D01*
X+879695Y+932525D02*
X+1001615Y+932525D01*
X+1047335Y+932525D02*
X+1082895Y+932525D01*
X+1240375Y+932525D02*
X+1291175Y+932525D01*
X+1362295Y+932525D02*
X+1402935Y+932525D01*
X+1479135Y+932525D02*
X+1519775Y+932525D01*
X+696815Y+937605D02*
X+813655Y+937605D01*
X+879695Y+937605D02*
X+1001615Y+937605D01*
X+1047335Y+937605D02*
X+1082895Y+937605D01*
X+1240375Y+937605D02*
X+1286095Y+937605D01*
X+1362295Y+937605D02*
X+1402935Y+937605D01*
X+1479135Y+937605D02*
X+1519775Y+937605D01*
X+696815Y+942685D02*
X+803495Y+942685D01*
X+879695Y+942685D02*
X+1001615Y+942685D01*
X+1047335Y+942685D02*
X+1082895Y+942685D01*
X+1245455Y+942685D02*
X+1286095Y+942685D01*
X+1357215Y+942685D02*
X+1402935Y+942685D01*
X+1484215Y+942685D02*
X+1524855Y+942685D01*
X+696815Y+947765D02*
X+788255Y+947765D01*
X+879695Y+947765D02*
X+1001615Y+947765D01*
X+1047335Y+947765D02*
X+1082895Y+947765D01*
X+1245455Y+947765D02*
X+1286095Y+947765D01*
X+1357215Y+947765D02*
X+1397855Y+947765D01*
X+1484215Y+947765D02*
X+1524855Y+947765D01*
X+5465863Y-265595D02*
X+5465863Y-47155D01*
X+5470943Y-265595D02*
X+5470943Y-47155D01*
X+5476023Y-265595D02*
X+5476023Y-47155D01*
X+5481103Y-265595D02*
X+5481103Y-47155D01*
X+5486183Y-265595D02*
X+5486183Y-47155D01*
X+5491263Y-265595D02*
X+5491263Y-47155D01*
X+5496343Y-265595D02*
X+5496343Y-47155D01*
X+5501423Y-265595D02*
X+5501423Y-235115D01*
X+5501423Y-72555D02*
X+5501423Y-47155D01*
X+5506503Y-265595D02*
X+5506503Y-235115D01*
X+5506503Y-72555D02*
X+5506503Y-47155D01*
X+5511583Y-265595D02*
X+5511583Y-235115D01*
X+5511583Y-72555D02*
X+5511583Y-47155D01*
X+5516663Y-265595D02*
X+5516663Y-235115D01*
X+5516663Y-72555D02*
X+5516663Y-47155D01*
X+5521743Y-265595D02*
X+5521743Y-235115D01*
X+5521743Y-72555D02*
X+5521743Y-47155D01*
X+5526823Y-265595D02*
X+5526823Y-235115D01*
X+5526823Y-72555D02*
X+5526823Y-47155D01*
X+5531903Y-265595D02*
X+5531903Y-235115D01*
X+5531903Y-77635D02*
X+5531903Y-47155D01*
X+5536983Y-265595D02*
X+5536983Y-235115D01*
X+5536983Y-77635D02*
X+5536983Y-47155D01*
X+5542063Y-265595D02*
X+5542063Y-235115D01*
X+5542063Y-77635D02*
X+5542063Y-47155D01*
X+5547143Y-265595D02*
X+5547143Y-230035D01*
X+5547143Y-77635D02*
X+5547143Y-47155D01*
X+5552223Y-265595D02*
X+5552223Y-230035D01*
X+5552223Y-82715D02*
X+5552223Y-47155D01*
X+5557303Y-260515D02*
X+5557303Y-224955D01*
X+5557303Y-82715D02*
X+5557303Y-47155D01*
X+5562383Y-260515D02*
X+5562383Y-224955D01*
X+5562383Y-87795D02*
X+5562383Y-52235D01*
X+5567463Y-260515D02*
X+5567463Y-219875D01*
X+5567463Y-87795D02*
X+5567463Y-52235D01*
X+5572543Y-255435D02*
X+5572543Y-214795D01*
X+5572543Y-92875D02*
X+5572543Y-52235D01*
X+5577623Y-255435D02*
X+5577623Y-209715D01*
X+5577623Y-103035D02*
X+5577623Y-57315D01*
X+5582703Y-250355D02*
X+5582703Y-199555D01*
X+5582703Y-113195D02*
X+5582703Y-57315D01*
X+5587783Y-250355D02*
X+5587783Y-184315D01*
X+5587783Y-128435D02*
X+5587783Y-62395D01*
X+5592863Y-245275D02*
X+5592863Y-62395D01*
X+5597943Y-240195D02*
X+5597943Y-67475D01*
X+5603023Y-235115D02*
X+5603023Y-72555D01*
X+5608103Y-230035D02*
X+5608103Y-77635D01*
X+5613183Y-224955D02*
X+5613183Y-87795D01*
X+5618263Y-214795D02*
X+5618263Y-92875D01*
X+5623343Y-204635D02*
X+5623343Y-108115D01*
X+5628423Y-184315D02*
X+5628423Y-128435D01*
X+5658903Y-265595D02*
X+5658903Y-245275D01*
X+5658903Y-67475D02*
X+5658903Y-47155D01*
X+5663983Y-265595D02*
X+5663983Y-245275D01*
X+5663983Y-67475D02*
X+5663983Y-47155D01*
X+5669063Y-265595D02*
X+5669063Y-245275D01*
X+5669063Y-67475D02*
X+5669063Y-47155D01*
X+5674143Y-265595D02*
X+5674143Y-240195D01*
X+5674143Y-72555D02*
X+5674143Y-47155D01*
X+5679223Y-265595D02*
X+5679223Y-240195D01*
X+5679223Y-72555D02*
X+5679223Y-47155D01*
X+5684303Y-265595D02*
X+5684303Y-47155D01*
X+5689383Y-265595D02*
X+5689383Y-47155D01*
X+5694463Y-265595D02*
X+5694463Y-47155D01*
X+5699543Y-265595D02*
X+5699543Y-47155D01*
X+5704623Y-265595D02*
X+5704623Y-47155D01*
X+5709703Y-265595D02*
X+5709703Y-47155D01*
X+5714783Y-265595D02*
X+5714783Y-47155D01*
X+5719863Y-265595D02*
X+5719863Y-47155D01*
X+5724943Y-265595D02*
X+5724943Y-240195D01*
X+5724943Y-72555D02*
X+5724943Y-47155D01*
X+5730023Y-265595D02*
X+5730023Y-240195D01*
X+5730023Y-72555D02*
X+5730023Y-47155D01*
X+5735103Y-265595D02*
X+5735103Y-240195D01*
X+5735103Y-67475D02*
X+5735103Y-47155D01*
X+5740183Y-265595D02*
X+5740183Y-245275D01*
X+5740183Y-67475D02*
X+5740183Y-47155D01*
X+5745263Y-265595D02*
X+5745263Y-245275D01*
X+5745263Y-67475D02*
X+5745263Y-47155D01*
X+7010686Y+734405D02*
X+7046246Y+734405D01*
X+7224046Y+734405D02*
X+7259606Y+734405D01*
X+7340886Y+734405D02*
X+7381526Y+734405D01*
X+7467886Y+734405D02*
X+7503446Y+734405D01*
X+7554246Y+734405D02*
X+7589806Y+734405D01*
X+7640606Y+734405D02*
X+7681246Y+734405D01*
X+7010686Y+739485D02*
X+7046246Y+739485D01*
X+7218966Y+739485D02*
X+7259606Y+739485D01*
X+7340886Y+739485D02*
X+7381526Y+739485D01*
X+7467886Y+739485D02*
X+7503446Y+739485D01*
X+7554246Y+739485D02*
X+7589806Y+739485D01*
X+7640606Y+739485D02*
X+7681246Y+739485D01*
X+7010686Y+744565D02*
X+7046246Y+744565D01*
X+7218966Y+744565D02*
X+7264686Y+744565D01*
X+7340886Y+744565D02*
X+7386606Y+744565D01*
X+7467886Y+744565D02*
X+7503446Y+744565D01*
X+7549166Y+744565D02*
X+7594886Y+744565D01*
X+7640606Y+744565D02*
X+7681246Y+744565D01*
X+7010686Y+749645D02*
X+7046246Y+749645D01*
X+7218966Y+749645D02*
X+7264686Y+749645D01*
X+7340886Y+749645D02*
X+7386606Y+749645D01*
X+7467886Y+749645D02*
X+7503446Y+749645D01*
X+7549166Y+749645D02*
X+7594886Y+749645D01*
X+7640606Y+749645D02*
X+7681246Y+749645D01*
X+7010686Y+754725D02*
X+7046246Y+754725D01*
X+7218966Y+754725D02*
X+7264686Y+754725D01*
X+7335806Y+754725D02*
X+7386606Y+754725D01*
X+7467886Y+754725D02*
X+7503446Y+754725D01*
X+7549166Y+754725D02*
X+7594886Y+754725D01*
X+7640606Y+754725D02*
X+7681246Y+754725D01*
X+7010686Y+759805D02*
X+7046246Y+759805D01*
X+7213886Y+759805D02*
X+7269766Y+759805D01*
X+7335806Y+759805D02*
X+7386606Y+759805D01*
X+7467886Y+759805D02*
X+7503446Y+759805D01*
X+7544086Y+759805D02*
X+7599966Y+759805D01*
X+7640606Y+759805D02*
X+7681246Y+759805D01*
X+7010686Y+764885D02*
X+7046246Y+764885D01*
X+7213886Y+764885D02*
X+7269766Y+764885D01*
X+7335806Y+764885D02*
X+7391686Y+764885D01*
X+7467886Y+764885D02*
X+7503446Y+764885D01*
X+7544086Y+764885D02*
X+7599966Y+764885D01*
X+7640606Y+764885D02*
X+7681246Y+764885D01*
X+7010686Y+769965D02*
X+7046246Y+769965D01*
X+7213886Y+769965D02*
X+7269766Y+769965D01*
X+7335806Y+769965D02*
X+7391686Y+769965D01*
X+7467886Y+769965D02*
X+7503446Y+769965D01*
X+7539006Y+769965D02*
X+7599966Y+769965D01*
X+7640606Y+769965D02*
X+7681246Y+769965D01*
X+7010686Y+775045D02*
X+7046246Y+775045D01*
X+7213886Y+775045D02*
X+7269766Y+775045D01*
X+7330726Y+775045D02*
X+7391686Y+775045D01*
X+7467886Y+775045D02*
X+7503446Y+775045D01*
X+7539006Y+775045D02*
X+7605046Y+775045D01*
X+7640606Y+775045D02*
X+7681246Y+775045D01*
X+7010686Y+780125D02*
X+7046246Y+780125D01*
X+7208806Y+780125D02*
X+7274846Y+780125D01*
X+7330726Y+780125D02*
X+7391686Y+780125D01*
X+7467886Y+780125D02*
X+7503446Y+780125D01*
X+7539006Y+780125D02*
X+7605046Y+780125D01*
X+7640606Y+780125D02*
X+7681246Y+780125D01*
X+7010686Y+785205D02*
X+7046246Y+785205D01*
X+7208806Y+785205D02*
X+7274846Y+785205D01*
X+7330726Y+785205D02*
X+7396766Y+785205D01*
X+7467886Y+785205D02*
X+7503446Y+785205D01*
X+7533926Y+785205D02*
X+7605046Y+785205D01*
X+7640606Y+785205D02*
X+7681246Y+785205D01*
X+7010686Y+790285D02*
X+7046246Y+790285D01*
X+7208806Y+790285D02*
X+7274846Y+790285D01*
X+7325646Y+790285D02*
X+7396766Y+790285D01*
X+7467886Y+790285D02*
X+7503446Y+790285D01*
X+7533926Y+790285D02*
X+7610126Y+790285D01*
X+7640606Y+790285D02*
X+7681246Y+790285D01*
X+7010686Y+795365D02*
X+7046246Y+795365D01*
X+7203726Y+795365D02*
X+7274846Y+795365D01*
X+7325646Y+795365D02*
X+7396766Y+795365D01*
X+7467886Y+795365D02*
X+7503446Y+795365D01*
X+7533926Y+795365D02*
X+7569486Y+795365D01*
X+7574566Y+795365D02*
X+7610126Y+795365D01*
X+7640606Y+795365D02*
X+7681246Y+795365D01*
X+7010686Y+800445D02*
X+7046246Y+800445D01*
X+7203726Y+800445D02*
X+7279926Y+800445D01*
X+7325646Y+800445D02*
X+7396766Y+800445D01*
X+7467886Y+800445D02*
X+7503446Y+800445D01*
X+7528846Y+800445D02*
X+7569486Y+800445D01*
X+7574566Y+800445D02*
X+7610126Y+800445D01*
X+7640606Y+800445D02*
X+7681246Y+800445D01*
X+7010686Y+805525D02*
X+7046246Y+805525D01*
X+7203726Y+805525D02*
X+7239286Y+805525D01*
X+7244366Y+805525D02*
X+7279926Y+805525D01*
X+7325646Y+805525D02*
X+7401846Y+805525D01*
X+7467886Y+805525D02*
X+7503446Y+805525D01*
X+7528846Y+805525D02*
X+7569486Y+805525D01*
X+7579646Y+805525D02*
X+7615206Y+805525D01*
X+7640606Y+805525D02*
X+7681246Y+805525D01*
X+7010686Y+810605D02*
X+7046246Y+810605D01*
X+7203726Y+810605D02*
X+7239286Y+810605D01*
X+7244366Y+810605D02*
X+7279926Y+810605D01*
X+7320566Y+810605D02*
X+7356126Y+810605D01*
X+7366286Y+810605D02*
X+7401846Y+810605D01*
X+7467886Y+810605D02*
X+7503446Y+810605D01*
X+7528846Y+810605D02*
X+7564406Y+810605D01*
X+7579646Y+810605D02*
X+7615206Y+810605D01*
X+7640606Y+810605D02*
X+7681246Y+810605D01*
X+7010686Y+815685D02*
X+7081806Y+815685D01*
X+7198646Y+815685D02*
X+7239286Y+815685D01*
X+7244366Y+815685D02*
X+7279926Y+815685D01*
X+7320566Y+815685D02*
X+7356126Y+815685D01*
X+7366286Y+815685D02*
X+7401846Y+815685D01*
X+7467886Y+815685D02*
X+7503446Y+815685D01*
X+7523766Y+815685D02*
X+7564406Y+815685D01*
X+7579646Y+815685D02*
X+7615206Y+815685D01*
X+7640606Y+815685D02*
X+7681246Y+815685D01*
X+7010686Y+820765D02*
X+7107206Y+820765D01*
X+7198646Y+820765D02*
X+7239286Y+820765D01*
X+7249446Y+820765D02*
X+7285006Y+820765D01*
X+7320566Y+820765D02*
X+7356126Y+820765D01*
X+7366286Y+820765D02*
X+7401846Y+820765D01*
X+7467886Y+820765D02*
X+7503446Y+820765D01*
X+7523766Y+820765D02*
X+7564406Y+820765D01*
X+7584726Y+820765D02*
X+7620286Y+820765D01*
X+7640606Y+820765D02*
X+7681246Y+820765D01*
X+7010686Y+825845D02*
X+7117366Y+825845D01*
X+7198646Y+825845D02*
X+7234206Y+825845D01*
X+7249446Y+825845D02*
X+7285006Y+825845D01*
X+7320566Y+825845D02*
X+7356126Y+825845D01*
X+7366286Y+825845D02*
X+7406926Y+825845D01*
X+7467886Y+825845D02*
X+7503446Y+825845D01*
X+7523766Y+825845D02*
X+7559326Y+825845D01*
X+7584726Y+825845D02*
X+7620286Y+825845D01*
X+7640606Y+825845D02*
X+7681246Y+825845D01*
X+7010686Y+830925D02*
X+7122446Y+830925D01*
X+7198646Y+830925D02*
X+7234206Y+830925D01*
X+7249446Y+830925D02*
X+7285006Y+830925D01*
X+7315486Y+830925D02*
X+7351046Y+830925D01*
X+7366286Y+830925D02*
X+7406926Y+830925D01*
X+7467886Y+830925D02*
X+7503446Y+830925D01*
X+7518686Y+830925D02*
X+7559326Y+830925D01*
X+7584726Y+830925D02*
X+7620286Y+830925D01*
X+7640606Y+830925D02*
X+7681246Y+830925D01*
X+7010686Y+836005D02*
X+7132606Y+836005D01*
X+7193566Y+836005D02*
X+7234206Y+836005D01*
X+7249446Y+836005D02*
X+7285006Y+836005D01*
X+7315486Y+836005D02*
X+7351046Y+836005D01*
X+7371366Y+836005D02*
X+7406926Y+836005D01*
X+7467886Y+836005D02*
X+7503446Y+836005D01*
X+7518686Y+836005D02*
X+7559326Y+836005D01*
X+7589806Y+836005D02*
X+7625366Y+836005D01*
X+7640606Y+836005D02*
X+7681246Y+836005D01*
X+7010686Y+841085D02*
X+7132606Y+841085D01*
X+7193566Y+841085D02*
X+7234206Y+841085D01*
X+7254526Y+841085D02*
X+7290086Y+841085D01*
X+7315486Y+841085D02*
X+7351046Y+841085D01*
X+7371366Y+841085D02*
X+7406926Y+841085D01*
X+7467886Y+841085D02*
X+7503446Y+841085D01*
X+7518686Y+841085D02*
X+7554246Y+841085D01*
X+7589806Y+841085D02*
X+7625366Y+841085D01*
X+7640606Y+841085D02*
X+7681246Y+841085D01*
X+7010686Y+846165D02*
X+7046246Y+846165D01*
X+7081806Y+846165D02*
X+7137686Y+846165D01*
X+7193566Y+846165D02*
X+7229126Y+846165D01*
X+7254526Y+846165D02*
X+7290086Y+846165D01*
X+7315486Y+846165D02*
X+7345966Y+846165D01*
X+7371366Y+846165D02*
X+7412006Y+846165D01*
X+7467886Y+846165D02*
X+7503446Y+846165D01*
X+7513606Y+846165D02*
X+7554246Y+846165D01*
X+7589806Y+846165D02*
X+7625366Y+846165D01*
X+7640606Y+846165D02*
X+7681246Y+846165D01*
X+7010686Y+851245D02*
X+7046246Y+851245D01*
X+7091966Y+851245D02*
X+7142766Y+851245D01*
X+7193566Y+851245D02*
X+7229126Y+851245D01*
X+7254526Y+851245D02*
X+7290086Y+851245D01*
X+7310406Y+851245D02*
X+7345966Y+851245D01*
X+7371366Y+851245D02*
X+7412006Y+851245D01*
X+7467886Y+851245D02*
X+7503446Y+851245D01*
X+7513606Y+851245D02*
X+7549166Y+851245D01*
X+7594886Y+851245D02*
X+7630446Y+851245D01*
X+7640606Y+851245D02*
X+7681246Y+851245D01*
X+7010686Y+856325D02*
X+7046246Y+856325D01*
X+7097046Y+856325D02*
X+7142766Y+856325D01*
X+7188486Y+856325D02*
X+7229126Y+856325D01*
X+7254526Y+856325D02*
X+7295166Y+856325D01*
X+7310406Y+856325D02*
X+7345966Y+856325D01*
X+7376446Y+856325D02*
X+7412006Y+856325D01*
X+7467886Y+856325D02*
X+7503446Y+856325D01*
X+7513606Y+856325D02*
X+7549166Y+856325D01*
X+7594886Y+856325D02*
X+7630446Y+856325D01*
X+7640606Y+856325D02*
X+7681246Y+856325D01*
X+7010686Y+861405D02*
X+7046246Y+861405D01*
X+7102126Y+861405D02*
X+7142766Y+861405D01*
X+7188486Y+861405D02*
X+7229126Y+861405D01*
X+7259606Y+861405D02*
X+7295166Y+861405D01*
X+7310406Y+861405D02*
X+7345966Y+861405D01*
X+7376446Y+861405D02*
X+7412006Y+861405D01*
X+7467886Y+861405D02*
X+7503446Y+861405D01*
X+7508526Y+861405D02*
X+7549166Y+861405D01*
X+7599966Y+861405D02*
X+7630446Y+861405D01*
X+7640606Y+861405D02*
X+7681246Y+861405D01*
X+7010686Y+866485D02*
X+7046246Y+866485D01*
X+7107206Y+866485D02*
X+7147846Y+866485D01*
X+7188486Y+866485D02*
X+7224046Y+866485D01*
X+7259606Y+866485D02*
X+7295166Y+866485D01*
X+7305326Y+866485D02*
X+7340886Y+866485D01*
X+7376446Y+866485D02*
X+7417086Y+866485D01*
X+7467886Y+866485D02*
X+7503446Y+866485D01*
X+7508526Y+866485D02*
X+7544086Y+866485D01*
X+7599966Y+866485D02*
X+7635526Y+866485D01*
X+7640606Y+866485D02*
X+7681246Y+866485D01*
X+7010686Y+871565D02*
X+7046246Y+871565D01*
X+7107206Y+871565D02*
X+7147846Y+871565D01*
X+7188486Y+871565D02*
X+7224046Y+871565D01*
X+7259606Y+871565D02*
X+7295166Y+871565D01*
X+7305326Y+871565D02*
X+7340886Y+871565D01*
X+7376446Y+871565D02*
X+7417086Y+871565D01*
X+7467886Y+871565D02*
X+7503446Y+871565D01*
X+7508526Y+871565D02*
X+7544086Y+871565D01*
X+7599966Y+871565D02*
X+7635526Y+871565D01*
X+7640606Y+871565D02*
X+7681246Y+871565D01*
X+7010686Y+876645D02*
X+7046246Y+876645D01*
X+7107206Y+876645D02*
X+7147846Y+876645D01*
X+7183406Y+876645D02*
X+7224046Y+876645D01*
X+7259606Y+876645D02*
X+7300246Y+876645D01*
X+7305326Y+876645D02*
X+7340886Y+876645D01*
X+7381526Y+876645D02*
X+7417086Y+876645D01*
X+7467886Y+876645D02*
X+7544086Y+876645D01*
X+7605046Y+876645D02*
X+7635526Y+876645D01*
X+7640606Y+876645D02*
X+7681246Y+876645D01*
X+7010686Y+881725D02*
X+7046246Y+881725D01*
X+7107206Y+881725D02*
X+7147846Y+881725D01*
X+7183406Y+881725D02*
X+7224046Y+881725D01*
X+7264686Y+881725D02*
X+7300246Y+881725D01*
X+7305326Y+881725D02*
X+7340886Y+881725D01*
X+7381526Y+881725D02*
X+7417086Y+881725D01*
X+7467886Y+881725D02*
X+7539006Y+881725D01*
X+7605046Y+881725D02*
X+7681246Y+881725D01*
X+7010686Y+886805D02*
X+7046246Y+886805D01*
X+7107206Y+886805D02*
X+7147846Y+886805D01*
X+7183406Y+886805D02*
X+7218966Y+886805D01*
X+7264686Y+886805D02*
X+7335806Y+886805D01*
X+7381526Y+886805D02*
X+7422166Y+886805D01*
X+7467886Y+886805D02*
X+7539006Y+886805D01*
X+7605046Y+886805D02*
X+7681246Y+886805D01*
X+7010686Y+891885D02*
X+7046246Y+891885D01*
X+7107206Y+891885D02*
X+7147846Y+891885D01*
X+7178326Y+891885D02*
X+7218966Y+891885D01*
X+7264686Y+891885D02*
X+7335806Y+891885D01*
X+7381526Y+891885D02*
X+7422166Y+891885D01*
X+7467886Y+891885D02*
X+7539006Y+891885D01*
X+7610126Y+891885D02*
X+7681246Y+891885D01*
X+7010686Y+896965D02*
X+7046246Y+896965D01*
X+7107206Y+896965D02*
X+7147846Y+896965D01*
X+7178326Y+896965D02*
X+7218966Y+896965D01*
X+7264686Y+896965D02*
X+7335806Y+896965D01*
X+7381526Y+896965D02*
X+7422166Y+896965D01*
X+7467886Y+896965D02*
X+7533926Y+896965D01*
X+7610126Y+896965D02*
X+7681246Y+896965D01*
X+7010686Y+902045D02*
X+7046246Y+902045D01*
X+7107206Y+902045D02*
X+7147846Y+902045D01*
X+7178326Y+902045D02*
X+7218966Y+902045D01*
X+7269766Y+902045D02*
X+7335806Y+902045D01*
X+7386606Y+902045D02*
X+7422166Y+902045D01*
X+7467886Y+902045D02*
X+7533926Y+902045D01*
X+7610126Y+902045D02*
X+7681246Y+902045D01*
X+7010686Y+907125D02*
X+7046246Y+907125D01*
X+7102126Y+907125D02*
X+7142766Y+907125D01*
X+7178326Y+907125D02*
X+7213886Y+907125D01*
X+7269766Y+907125D02*
X+7330726Y+907125D01*
X+7386606Y+907125D02*
X+7427246Y+907125D01*
X+7467886Y+907125D02*
X+7533926Y+907125D01*
X+7615206Y+907125D02*
X+7681246Y+907125D01*
X+7010686Y+912205D02*
X+7046246Y+912205D01*
X+7097046Y+912205D02*
X+7142766Y+912205D01*
X+7173246Y+912205D02*
X+7213886Y+912205D01*
X+7269766Y+912205D02*
X+7330726Y+912205D01*
X+7386606Y+912205D02*
X+7427246Y+912205D01*
X+7467886Y+912205D02*
X+7528846Y+912205D01*
X+7615206Y+912205D02*
X+7681246Y+912205D01*
X+7010686Y+917285D02*
X+7046246Y+917285D01*
X+7086886Y+917285D02*
X+7142766Y+917285D01*
X+7173246Y+917285D02*
X+7213886Y+917285D01*
X+7274846Y+917285D02*
X+7330726Y+917285D01*
X+7386606Y+917285D02*
X+7427246Y+917285D01*
X+7467886Y+917285D02*
X+7528846Y+917285D01*
X+7615206Y+917285D02*
X+7681246Y+917285D01*
X+7010686Y+922365D02*
X+7046246Y+922365D01*
X+7066566Y+922365D02*
X+7137686Y+922365D01*
X+7173246Y+922365D02*
X+7213886Y+922365D01*
X+7274846Y+922365D02*
X+7330726Y+922365D01*
X+7391686Y+922365D02*
X+7427246Y+922365D01*
X+7467886Y+922365D02*
X+7528846Y+922365D01*
X+7620286Y+922365D02*
X+7681246Y+922365D01*
X+7010686Y+927445D02*
X+7137686Y+927445D01*
X+7173246Y+927445D02*
X+7208806Y+927445D01*
X+7274846Y+927445D02*
X+7325646Y+927445D01*
X+7391686Y+927445D02*
X+7432326Y+927445D01*
X+7467886Y+927445D02*
X+7523766Y+927445D01*
X+7620286Y+927445D02*
X+7681246Y+927445D01*
X+7010686Y+932525D02*
X+7132606Y+932525D01*
X+7168166Y+932525D02*
X+7208806Y+932525D01*
X+7274846Y+932525D02*
X+7325646Y+932525D01*
X+7391686Y+932525D02*
X+7432326Y+932525D01*
X+7467886Y+932525D02*
X+7523766Y+932525D01*
X+7620286Y+932525D02*
X+7681246Y+932525D01*
X+7010686Y+937605D02*
X+7127526Y+937605D01*
X+7168166Y+937605D02*
X+7208806Y+937605D01*
X+7279926Y+937605D02*
X+7325646Y+937605D01*
X+7391686Y+937605D02*
X+7432326Y+937605D01*
X+7467886Y+937605D02*
X+7523766Y+937605D01*
X+7625366Y+937605D02*
X+7681246Y+937605D01*
X+7010686Y+942685D02*
X+7117366Y+942685D01*
X+7168166Y+942685D02*
X+7208806Y+942685D01*
X+7279926Y+942685D02*
X+7320566Y+942685D01*
X+7391686Y+942685D02*
X+7432326Y+942685D01*
X+7467886Y+942685D02*
X+7518686Y+942685D01*
X+7625366Y+942685D02*
X+7681246Y+942685D01*
X+7010686Y+947765D02*
X+7102126Y+947765D01*
X+7168166Y+947765D02*
X+7203726Y+947765D01*
X+7279926Y+947765D02*
X+7320566Y+947765D01*
X+7396766Y+947765D02*
X+7432326Y+947765D01*
X+7467886Y+947765D02*
X+7518686Y+947765D01*
X+7625366Y+947765D02*
X+7681246Y+947765D01*
X+3825820Y+678525D02*
X+3881700Y+678525D01*
X+3825820Y+683605D02*
X+3891860Y+683605D01*
X+3825820Y+688685D02*
X+3896940Y+688685D01*
X+3825820Y+693765D02*
X+3902020Y+693765D01*
X+3825820Y+698845D02*
X+3907100Y+698845D01*
X+3825820Y+703925D02*
X+3907100Y+703925D01*
X+3866460Y+709005D02*
X+3912180Y+709005D01*
X+3871540Y+714085D02*
X+3912180Y+714085D01*
X+3876620Y+719165D02*
X+3912180Y+719165D01*
X+3876620Y+724245D02*
X+3912180Y+724245D01*
X+3876620Y+729325D02*
X+3917260Y+729325D01*
X+3876620Y+734405D02*
X+3917260Y+734405D01*
X+4013780Y+734405D02*
X+4089980Y+734405D01*
X+4232220Y+734405D02*
X+4267780Y+734405D01*
X+3876620Y+739485D02*
X+3917260Y+739485D01*
X+4003620Y+739485D02*
X+4105220Y+739485D01*
X+4232220Y+739485D02*
X+4267780Y+739485D01*
X+3876620Y+744565D02*
X+3917260Y+744565D01*
X+3993460Y+744565D02*
X+4110300Y+744565D01*
X+4232220Y+744565D02*
X+4267780Y+744565D01*
X+3876620Y+749645D02*
X+3917260Y+749645D01*
X+3988380Y+749645D02*
X+4120460Y+749645D01*
X+4232220Y+749645D02*
X+4267780Y+749645D01*
X+3876620Y+754725D02*
X+3917260Y+754725D01*
X+3983300Y+754725D02*
X+4125540Y+754725D01*
X+4232220Y+754725D02*
X+4267780Y+754725D01*
X+3876620Y+759805D02*
X+3917260Y+759805D01*
X+3978220Y+759805D02*
X+4044260Y+759805D01*
X+4064580Y+759805D02*
X+4130620Y+759805D01*
X+4232220Y+759805D02*
X+4267780Y+759805D01*
X+3876620Y+764885D02*
X+3917260Y+764885D01*
X+3973140Y+764885D02*
X+4029020Y+764885D01*
X+4079820Y+764885D02*
X+4130620Y+764885D01*
X+4232220Y+764885D02*
X+4267780Y+764885D01*
X+3876620Y+769965D02*
X+3917260Y+769965D01*
X+3973140Y+769965D02*
X+4018860Y+769965D01*
X+4084900Y+769965D02*
X+4135700Y+769965D01*
X+4232220Y+769965D02*
X+4267780Y+769965D01*
X+3876620Y+775045D02*
X+3917260Y+775045D01*
X+3968060Y+775045D02*
X+4013780Y+775045D01*
X+4095060Y+775045D02*
X+4140780Y+775045D01*
X+4232220Y+775045D02*
X+4267780Y+775045D01*
X+3876620Y+780125D02*
X+3917260Y+780125D01*
X+3968060Y+780125D02*
X+4008700Y+780125D01*
X+4095060Y+780125D02*
X+4140780Y+780125D01*
X+4232220Y+780125D02*
X+4267780Y+780125D01*
X+3876620Y+785205D02*
X+3917260Y+785205D01*
X+3962980Y+785205D02*
X+4008700Y+785205D01*
X+4100140Y+785205D02*
X+4140780Y+785205D01*
X+4232220Y+785205D02*
X+4267780Y+785205D01*
X+3876620Y+790285D02*
X+3917260Y+790285D01*
X+3962980Y+790285D02*
X+4003620Y+790285D01*
X+4105220Y+790285D02*
X+4145860Y+790285D01*
X+4232220Y+790285D02*
X+4267780Y+790285D01*
X+3876620Y+795365D02*
X+3917260Y+795365D01*
X+3962980Y+795365D02*
X+4003620Y+795365D01*
X+4105220Y+795365D02*
X+4145860Y+795365D01*
X+4232220Y+795365D02*
X+4267780Y+795365D01*
X+3876620Y+800445D02*
X+3917260Y+800445D01*
X+3957900Y+800445D02*
X+3998540Y+800445D01*
X+4105220Y+800445D02*
X+4145860Y+800445D01*
X+4232220Y+800445D02*
X+4267780Y+800445D01*
X+3876620Y+805525D02*
X+3917260Y+805525D01*
X+3957900Y+805525D02*
X+3998540Y+805525D01*
X+4110300Y+805525D02*
X+4150940Y+805525D01*
X+4232220Y+805525D02*
X+4267780Y+805525D01*
X+3876620Y+810605D02*
X+3917260Y+810605D01*
X+3957900Y+810605D02*
X+3998540Y+810605D01*
X+4110300Y+810605D02*
X+4150940Y+810605D01*
X+4232220Y+810605D02*
X+4267780Y+810605D01*
X+3876620Y+815685D02*
X+3917260Y+815685D01*
X+3957900Y+815685D02*
X+3998540Y+815685D01*
X+4110300Y+815685D02*
X+4150940Y+815685D01*
X+4232220Y+815685D02*
X+4267780Y+815685D01*
X+3876620Y+820765D02*
X+3917260Y+820765D01*
X+3957900Y+820765D02*
X+3998540Y+820765D01*
X+4110300Y+820765D02*
X+4150940Y+820765D01*
X+4227140Y+820765D02*
X+4272860Y+820765D01*
X+3876620Y+825845D02*
X+3917260Y+825845D01*
X+3957900Y+825845D02*
X+3993460Y+825845D01*
X+4110300Y+825845D02*
X+4150940Y+825845D01*
X+4227140Y+825845D02*
X+4272860Y+825845D01*
X+3876620Y+830925D02*
X+3917260Y+830925D01*
X+3957900Y+830925D02*
X+3993460Y+830925D01*
X+4110300Y+830925D02*
X+4150940Y+830925D01*
X+4222060Y+830925D02*
X+4277940Y+830925D01*
X+3876620Y+836005D02*
X+3917260Y+836005D01*
X+3957900Y+836005D02*
X+3993460Y+836005D01*
X+4115380Y+836005D02*
X+4150940Y+836005D01*
X+4222060Y+836005D02*
X+4277940Y+836005D01*
X+3876620Y+841085D02*
X+3917260Y+841085D01*
X+3957900Y+841085D02*
X+3993460Y+841085D01*
X+4115380Y+841085D02*
X+4150940Y+841085D01*
X+4216980Y+841085D02*
X+4283020Y+841085D01*
X+3876620Y+846165D02*
X+3917260Y+846165D01*
X+3957900Y+846165D02*
X+3993460Y+846165D01*
X+4115380Y+846165D02*
X+4150940Y+846165D01*
X+4216980Y+846165D02*
X+4283020Y+846165D01*
X+3876620Y+851245D02*
X+3917260Y+851245D01*
X+3957900Y+851245D02*
X+3993460Y+851245D01*
X+4115380Y+851245D02*
X+4150940Y+851245D01*
X+4211900Y+851245D02*
X+4288100Y+851245D01*
X+3876620Y+856325D02*
X+3917260Y+856325D01*
X+3957900Y+856325D02*
X+3993460Y+856325D01*
X+4110300Y+856325D02*
X+4150940Y+856325D01*
X+4211900Y+856325D02*
X+4247460Y+856325D01*
X+4252540Y+856325D02*
X+4288100Y+856325D01*
X+3876620Y+861405D02*
X+3917260Y+861405D01*
X+3957900Y+861405D02*
X+3993460Y+861405D01*
X+4110300Y+861405D02*
X+4150940Y+861405D01*
X+4206820Y+861405D02*
X+4247460Y+861405D01*
X+4252540Y+861405D02*
X+4293180Y+861405D01*
X+3876620Y+866485D02*
X+3917260Y+866485D01*
X+3957900Y+866485D02*
X+3998540Y+866485D01*
X+4110300Y+866485D02*
X+4150940Y+866485D01*
X+4206820Y+866485D02*
X+4242380Y+866485D01*
X+4257620Y+866485D02*
X+4293180Y+866485D01*
X+3876620Y+871565D02*
X+3917260Y+871565D01*
X+3957900Y+871565D02*
X+3998540Y+871565D01*
X+4110300Y+871565D02*
X+4150940Y+871565D01*
X+4201740Y+871565D02*
X+4242380Y+871565D01*
X+4257620Y+871565D02*
X+4298260Y+871565D01*
X+3876620Y+876645D02*
X+3917260Y+876645D01*
X+3957900Y+876645D02*
X+3998540Y+876645D01*
X+4110300Y+876645D02*
X+4150940Y+876645D01*
X+4201740Y+876645D02*
X+4237300Y+876645D01*
X+4262700Y+876645D02*
X+4298260Y+876645D01*
X+3876620Y+881725D02*
X+3917260Y+881725D01*
X+3957900Y+881725D02*
X+3998540Y+881725D01*
X+4105220Y+881725D02*
X+4145860Y+881725D01*
X+4196660Y+881725D02*
X+4237300Y+881725D01*
X+4262700Y+881725D02*
X+4303340Y+881725D01*
X+3876620Y+886805D02*
X+3917260Y+886805D01*
X+3962980Y+886805D02*
X+4003620Y+886805D01*
X+4105220Y+886805D02*
X+4145860Y+886805D01*
X+4196660Y+886805D02*
X+4232220Y+886805D01*
X+4262700Y+886805D02*
X+4303340Y+886805D01*
X+3876620Y+891885D02*
X+3917260Y+891885D01*
X+3962980Y+891885D02*
X+4003620Y+891885D01*
X+4105220Y+891885D02*
X+4145860Y+891885D01*
X+4191580Y+891885D02*
X+4232220Y+891885D01*
X+4267780Y+891885D02*
X+4308420Y+891885D01*
X+3876620Y+896965D02*
X+3917260Y+896965D01*
X+3962980Y+896965D02*
X+4008700Y+896965D01*
X+4100140Y+896965D02*
X+4145860Y+896965D01*
X+4191580Y+896965D02*
X+4232220Y+896965D01*
X+4267780Y+896965D02*
X+4308420Y+896965D01*
X+3876620Y+902045D02*
X+3917260Y+902045D01*
X+3968060Y+902045D02*
X+4008700Y+902045D01*
X+4100140Y+902045D02*
X+4140780Y+902045D01*
X+4186500Y+902045D02*
X+4227140Y+902045D01*
X+4272860Y+902045D02*
X+4313500Y+902045D01*
X+3876620Y+907125D02*
X+3917260Y+907125D01*
X+3968060Y+907125D02*
X+4013780Y+907125D01*
X+4095060Y+907125D02*
X+4140780Y+907125D01*
X+4186500Y+907125D02*
X+4227140Y+907125D01*
X+4272860Y+907125D02*
X+4313500Y+907125D01*
X+3876620Y+912205D02*
X+3917260Y+912205D01*
X+3973140Y+912205D02*
X+4018860Y+912205D01*
X+4089980Y+912205D02*
X+4135700Y+912205D01*
X+4181420Y+912205D02*
X+4222060Y+912205D01*
X+4277940Y+912205D02*
X+4318580Y+912205D01*
X+3876620Y+917285D02*
X+3917260Y+917285D01*
X+3973140Y+917285D02*
X+4029020Y+917285D01*
X+4079820Y+917285D02*
X+4130620Y+917285D01*
X+4181420Y+917285D02*
X+4222060Y+917285D01*
X+4277940Y+917285D02*
X+4318580Y+917285D01*
X+3876620Y+922365D02*
X+3917260Y+922365D01*
X+3978220Y+922365D02*
X+4039180Y+922365D01*
X+4069660Y+922365D02*
X+4130620Y+922365D01*
X+4176340Y+922365D02*
X+4216980Y+922365D01*
X+4283020Y+922365D02*
X+4323660Y+922365D01*
X+3876620Y+927445D02*
X+3917260Y+927445D01*
X+3983300Y+927445D02*
X+4125540Y+927445D01*
X+4176340Y+927445D02*
X+4216980Y+927445D01*
X+4283020Y+927445D02*
X+4323660Y+927445D01*
X+3876620Y+932525D02*
X+3917260Y+932525D01*
X+3988380Y+932525D02*
X+4120460Y+932525D01*
X+4171260Y+932525D02*
X+4211900Y+932525D01*
X+4288100Y+932525D02*
X+4328740Y+932525D01*
X+3876620Y+937605D02*
X+3917260Y+937605D01*
X+3993460Y+937605D02*
X+4115380Y+937605D01*
X+4171260Y+937605D02*
X+4211900Y+937605D01*
X+4288100Y+937605D02*
X+4328740Y+937605D01*
X+3876620Y+942685D02*
X+3917260Y+942685D01*
X+3998540Y+942685D02*
X+4105220Y+942685D01*
X+4166180Y+942685D02*
X+4211900Y+942685D01*
X+4293180Y+942685D02*
X+4333820Y+942685D01*
X+3876620Y+947765D02*
X+3917260Y+947765D01*
X+4008700Y+947765D02*
X+4095060Y+947765D01*
X+4166180Y+947765D02*
X+4206820Y+947765D01*
X+4293180Y+947765D02*
X+4333820Y+947765D01*
X+4029020Y+952845D02*
X+4079820Y+952845D01*
X+1599452Y-2365595D02*
X+1690892Y-2365595D01*
X+1762012Y-2365595D02*
X+1797572Y-2365595D01*
X+1939812Y-2365595D02*
X+2026172Y-2365595D01*
X+1584212Y-2360515D02*
X+1711212Y-2360515D01*
X+1762012Y-2360515D02*
X+1797572Y-2360515D01*
X+1929652Y-2360515D02*
X+2036332Y-2360515D01*
X+1579132Y-2355435D02*
X+1711212Y-2355435D01*
X+1762012Y-2355435D02*
X+1797572Y-2355435D01*
X+1929652Y-2355435D02*
X+2046492Y-2355435D01*
X+1568972Y-2350355D02*
X+1711212Y-2350355D01*
X+1762012Y-2350355D02*
X+1797572Y-2350355D01*
X+1929652Y-2350355D02*
X+2051572Y-2350355D01*
X+1563892Y-2345275D02*
X+1711212Y-2345275D01*
X+1762012Y-2345275D02*
X+1797572Y-2345275D01*
X+1929652Y-2345275D02*
X+2056652Y-2345275D01*
X+1558812Y-2340195D02*
X+1629932Y-2340195D01*
X+1660412Y-2340195D02*
X+1711212Y-2340195D01*
X+1762012Y-2340195D02*
X+1797572Y-2340195D01*
X+1929652Y-2340195D02*
X+1975372Y-2340195D01*
X+2000772Y-2340195D02*
X+2056652Y-2340195D01*
X+1558812Y-2335115D02*
X+1614692Y-2335115D01*
X+1675652Y-2335115D02*
X+1711212Y-2335115D01*
X+1762012Y-2335115D02*
X+1797572Y-2335115D01*
X+1929652Y-2335115D02*
X+1955052Y-2335115D01*
X+2016012Y-2335115D02*
X+2061732Y-2335115D01*
X+1553732Y-2330035D02*
X+1604532Y-2330035D01*
X+1675652Y-2330035D02*
X+1711212Y-2330035D01*
X+1762012Y-2330035D02*
X+1797572Y-2330035D01*
X+2021092Y-2330035D02*
X+2061732Y-2330035D01*
X+1548652Y-2324955D02*
X+1599452Y-2324955D01*
X+1675652Y-2324955D02*
X+1711212Y-2324955D01*
X+1762012Y-2324955D02*
X+1797572Y-2324955D01*
X+2026172Y-2324955D02*
X+2066812Y-2324955D01*
X+1548652Y-2319875D02*
X+1594372Y-2319875D01*
X+1675652Y-2319875D02*
X+1711212Y-2319875D01*
X+1762012Y-2319875D02*
X+1797572Y-2319875D01*
X+2026172Y-2319875D02*
X+2066812Y-2319875D01*
X+1543572Y-2314795D02*
X+1589292Y-2314795D01*
X+1675652Y-2314795D02*
X+1711212Y-2314795D01*
X+1762012Y-2314795D02*
X+1797572Y-2314795D01*
X+2031252Y-2314795D02*
X+2066812Y-2314795D01*
X+1543572Y-2309715D02*
X+1584212Y-2309715D01*
X+1675652Y-2309715D02*
X+1711212Y-2309715D01*
X+1762012Y-2309715D02*
X+1797572Y-2309715D01*
X+2031252Y-2309715D02*
X+2066812Y-2309715D01*
X+1543572Y-2304635D02*
X+1584212Y-2304635D01*
X+1675652Y-2304635D02*
X+1711212Y-2304635D01*
X+1762012Y-2304635D02*
X+1797572Y-2304635D01*
X+2026172Y-2304635D02*
X+2066812Y-2304635D01*
X+1543572Y-2299555D02*
X+1579132Y-2299555D01*
X+1675652Y-2299555D02*
X+1711212Y-2299555D01*
X+1762012Y-2299555D02*
X+1797572Y-2299555D01*
X+2026172Y-2299555D02*
X+2066812Y-2299555D01*
X+1538492Y-2294475D02*
X+1579132Y-2294475D01*
X+1675652Y-2294475D02*
X+1711212Y-2294475D01*
X+1762012Y-2294475D02*
X+1797572Y-2294475D01*
X+2026172Y-2294475D02*
X+2066812Y-2294475D01*
X+1538492Y-2289395D02*
X+1579132Y-2289395D01*
X+1675652Y-2289395D02*
X+1711212Y-2289395D01*
X+1762012Y-2289395D02*
X+1797572Y-2289395D01*
X+2021092Y-2289395D02*
X+2066812Y-2289395D01*
X+1538492Y-2284315D02*
X+1579132Y-2284315D01*
X+1675652Y-2284315D02*
X+1711212Y-2284315D01*
X+1762012Y-2284315D02*
X+1833132Y-2284315D01*
X+2010932Y-2284315D02*
X+2061732Y-2284315D01*
X+1538492Y-2279235D02*
X+1579132Y-2279235D01*
X+1675652Y-2279235D02*
X+1711212Y-2279235D01*
X+1762012Y-2279235D02*
X+1858532Y-2279235D01*
X+2005852Y-2279235D02*
X+2061732Y-2279235D01*
X+1538492Y-2274155D02*
X+1574052Y-2274155D01*
X+1635012Y-2274155D02*
X+1711212Y-2274155D01*
X+1762012Y-2274155D02*
X+1868692Y-2274155D01*
X+1990612Y-2274155D02*
X+2056652Y-2274155D01*
X+1538492Y-2269075D02*
X+1574052Y-2269075D01*
X+1635012Y-2269075D02*
X+1711212Y-2269075D01*
X+1762012Y-2269075D02*
X+1873772Y-2269075D01*
X+1980452Y-2269075D02*
X+2051572Y-2269075D01*
X+1538492Y-2263995D02*
X+1574052Y-2263995D01*
X+1635012Y-2263995D02*
X+1711212Y-2263995D01*
X+1762012Y-2263995D02*
X+1883932Y-2263995D01*
X+1970292Y-2263995D02*
X+2046492Y-2263995D01*
X+1538492Y-2258915D02*
X+1574052Y-2258915D01*
X+1635012Y-2258915D02*
X+1711212Y-2258915D01*
X+1762012Y-2258915D02*
X+1883932Y-2258915D01*
X+1960132Y-2258915D02*
X+2041412Y-2258915D01*
X+1538492Y-2253835D02*
X+1574052Y-2253835D01*
X+1635012Y-2253835D02*
X+1711212Y-2253835D01*
X+1762012Y-2253835D02*
X+1797572Y-2253835D01*
X+1833132Y-2253835D02*
X+1889012Y-2253835D01*
X+1955052Y-2253835D02*
X+2031252Y-2253835D01*
X+1538492Y-2248755D02*
X+1574052Y-2248755D01*
X+1762012Y-2248755D02*
X+1797572Y-2248755D01*
X+1843292Y-2248755D02*
X+1894092Y-2248755D01*
X+1949972Y-2248755D02*
X+2021092Y-2248755D01*
X+1538492Y-2243675D02*
X+1574052Y-2243675D01*
X+1762012Y-2243675D02*
X+1797572Y-2243675D01*
X+1848372Y-2243675D02*
X+1894092Y-2243675D01*
X+1944892Y-2243675D02*
X+2010932Y-2243675D01*
X+1538492Y-2238595D02*
X+1579132Y-2238595D01*
X+1762012Y-2238595D02*
X+1797572Y-2238595D01*
X+1853452Y-2238595D02*
X+1894092Y-2238595D01*
X+1939812Y-2238595D02*
X+2000772Y-2238595D01*
X+1538492Y-2233515D02*
X+1579132Y-2233515D01*
X+1762012Y-2233515D02*
X+1797572Y-2233515D01*
X+1858532Y-2233515D02*
X+1899172Y-2233515D01*
X+1939812Y-2233515D02*
X+1990612Y-2233515D01*
X+1538492Y-2228435D02*
X+1579132Y-2228435D01*
X+1762012Y-2228435D02*
X+1797572Y-2228435D01*
X+1858532Y-2228435D02*
X+1899172Y-2228435D01*
X+1934732Y-2228435D02*
X+1980452Y-2228435D01*
X+1538492Y-2223355D02*
X+1579132Y-2223355D01*
X+1762012Y-2223355D02*
X+1797572Y-2223355D01*
X+1858532Y-2223355D02*
X+1899172Y-2223355D01*
X+1934732Y-2223355D02*
X+1975372Y-2223355D01*
X+1543572Y-2218275D02*
X+1584212Y-2218275D01*
X+1762012Y-2218275D02*
X+1797572Y-2218275D01*
X+1858532Y-2218275D02*
X+1899172Y-2218275D01*
X+1934732Y-2218275D02*
X+1970292Y-2218275D01*
X+1543572Y-2213195D02*
X+1584212Y-2213195D01*
X+1762012Y-2213195D02*
X+1797572Y-2213195D01*
X+1858532Y-2213195D02*
X+1899172Y-2213195D01*
X+1934732Y-2213195D02*
X+1970292Y-2213195D01*
X+1543572Y-2208115D02*
X+1589292Y-2208115D01*
X+1762012Y-2208115D02*
X+1797572Y-2208115D01*
X+1858532Y-2208115D02*
X+1899172Y-2208115D01*
X+1929652Y-2208115D02*
X+1970292Y-2208115D01*
X+1548652Y-2203035D02*
X+1589292Y-2203035D01*
X+1762012Y-2203035D02*
X+1797572Y-2203035D01*
X+1858532Y-2203035D02*
X+1899172Y-2203035D01*
X+1929652Y-2203035D02*
X+1970292Y-2203035D01*
X+1548652Y-2197955D02*
X+1594372Y-2197955D01*
X+1762012Y-2197955D02*
X+1797572Y-2197955D01*
X+1858532Y-2197955D02*
X+1899172Y-2197955D01*
X+1929652Y-2197955D02*
X+1970292Y-2197955D01*
X+1553732Y-2192875D02*
X+1599452Y-2192875D01*
X+1762012Y-2192875D02*
X+1797572Y-2192875D01*
X+1853452Y-2192875D02*
X+1894092Y-2192875D01*
X+1934732Y-2192875D02*
X+1970292Y-2192875D01*
X+1553732Y-2187795D02*
X+1604532Y-2187795D01*
X+1762012Y-2187795D02*
X+1797572Y-2187795D01*
X+1848372Y-2187795D02*
X+1894092Y-2187795D01*
X+1934732Y-2187795D02*
X+1975372Y-2187795D01*
X+1558812Y-2182715D02*
X+1614692Y-2182715D01*
X+1675652Y-2182715D02*
X+1701052Y-2182715D01*
X+1762012Y-2182715D02*
X+1797572Y-2182715D01*
X+1838212Y-2182715D02*
X+1894092Y-2182715D01*
X+1934732Y-2182715D02*
X+1980452Y-2182715D01*
X+2036332Y-2182715D02*
X+2056652Y-2182715D01*
X+1563892Y-2177635D02*
X+1624852Y-2177635D01*
X+1660412Y-2177635D02*
X+1706132Y-2177635D01*
X+1762012Y-2177635D02*
X+1797572Y-2177635D01*
X+1817892Y-2177635D02*
X+1889012Y-2177635D01*
X+1934732Y-2177635D02*
X+1990612Y-2177635D01*
X+2021092Y-2177635D02*
X+2056652Y-2177635D01*
X+1568972Y-2172555D02*
X+1706132Y-2172555D01*
X+1762012Y-2172555D02*
X+1889012Y-2172555D01*
X+1939812Y-2172555D02*
X+2056652Y-2172555D01*
X+1574052Y-2167475D02*
X+1706132Y-2167475D01*
X+1762012Y-2167475D02*
X+1883932Y-2167475D01*
X+1944892Y-2167475D02*
X+2061732Y-2167475D01*
X+1579132Y-2162395D02*
X+1706132Y-2162395D01*
X+1762012Y-2162395D02*
X+1878852Y-2162395D01*
X+1949972Y-2162395D02*
X+2061732Y-2162395D01*
X+1589292Y-2157315D02*
X+1706132Y-2157315D01*
X+1762012Y-2157315D02*
X+1868692Y-2157315D01*
X+1955052Y-2157315D02*
X+2061732Y-2157315D01*
X+1599452Y-2152235D02*
X+1695972Y-2152235D01*
X+1762012Y-2152235D02*
X+1853452Y-2152235D01*
X+1965212Y-2152235D02*
X+2046492Y-2152235D01*
X+1624852Y-2147155D02*
X+1665492Y-2147155D01*
X+1985532Y-2147155D02*
X+2021092Y-2147155D01*
X+589657Y-3065595D02*
X+625217Y-3065595D01*
X+711577Y-3065595D02*
X+752217Y-3065595D01*
X+808097Y-3065595D02*
X+843657Y-3065595D01*
X+894457Y-3065595D02*
X+930017Y-3065595D01*
X+980817Y-3065595D02*
X+1021457Y-3065595D01*
X+1123057Y-3065595D02*
X+1209417Y-3065595D01*
X+589657Y-3060515D02*
X+625217Y-3060515D01*
X+711577Y-3060515D02*
X+752217Y-3060515D01*
X+808097Y-3060515D02*
X+843657Y-3060515D01*
X+894457Y-3060515D02*
X+930017Y-3060515D01*
X+980817Y-3060515D02*
X+1021457Y-3060515D01*
X+1112897Y-3060515D02*
X+1219577Y-3060515D01*
X+589657Y-3055435D02*
X+625217Y-3055435D01*
X+711577Y-3055435D02*
X+752217Y-3055435D01*
X+808097Y-3055435D02*
X+843657Y-3055435D01*
X+889377Y-3055435D02*
X+935097Y-3055435D01*
X+980817Y-3055435D02*
X+1021457Y-3055435D01*
X+1102737Y-3055435D02*
X+1219577Y-3055435D01*
X+589657Y-3050355D02*
X+625217Y-3050355D01*
X+711577Y-3050355D02*
X+752217Y-3050355D01*
X+808097Y-3050355D02*
X+843657Y-3050355D01*
X+889377Y-3050355D02*
X+935097Y-3050355D01*
X+980817Y-3050355D02*
X+1021457Y-3050355D01*
X+1097657Y-3050355D02*
X+1219577Y-3050355D01*
X+589657Y-3045275D02*
X+625217Y-3045275D01*
X+711577Y-3045275D02*
X+752217Y-3045275D01*
X+808097Y-3045275D02*
X+843657Y-3045275D01*
X+889377Y-3045275D02*
X+935097Y-3045275D01*
X+980817Y-3045275D02*
X+1021457Y-3045275D01*
X+1092577Y-3045275D02*
X+1219577Y-3045275D01*
X+589657Y-3040195D02*
X+625217Y-3040195D01*
X+711577Y-3040195D02*
X+752217Y-3040195D01*
X+808097Y-3040195D02*
X+843657Y-3040195D01*
X+884297Y-3040195D02*
X+940177Y-3040195D01*
X+980817Y-3040195D02*
X+1021457Y-3040195D01*
X+1087497Y-3040195D02*
X+1153537Y-3040195D01*
X+1184017Y-3040195D02*
X+1219577Y-3040195D01*
X+589657Y-3035115D02*
X+625217Y-3035115D01*
X+711577Y-3035115D02*
X+752217Y-3035115D01*
X+808097Y-3035115D02*
X+843657Y-3035115D01*
X+884297Y-3035115D02*
X+940177Y-3035115D01*
X+980817Y-3035115D02*
X+1021457Y-3035115D01*
X+1082417Y-3035115D02*
X+1138297Y-3035115D01*
X+1204337Y-3035115D02*
X+1219577Y-3035115D01*
X+589657Y-3030035D02*
X+625217Y-3030035D01*
X+711577Y-3030035D02*
X+752217Y-3030035D01*
X+808097Y-3030035D02*
X+843657Y-3030035D01*
X+879217Y-3030035D02*
X+940177Y-3030035D01*
X+980817Y-3030035D02*
X+1021457Y-3030035D01*
X+1082417Y-3030035D02*
X+1133217Y-3030035D01*
X+589657Y-3024955D02*
X+625217Y-3024955D01*
X+711577Y-3024955D02*
X+752217Y-3024955D01*
X+808097Y-3024955D02*
X+843657Y-3024955D01*
X+879217Y-3024955D02*
X+945257Y-3024955D01*
X+980817Y-3024955D02*
X+1021457Y-3024955D01*
X+1077337Y-3024955D02*
X+1128137Y-3024955D01*
X+589657Y-3019875D02*
X+625217Y-3019875D01*
X+711577Y-3019875D02*
X+752217Y-3019875D01*
X+808097Y-3019875D02*
X+843657Y-3019875D01*
X+879217Y-3019875D02*
X+945257Y-3019875D01*
X+980817Y-3019875D02*
X+1021457Y-3019875D01*
X+1077337Y-3019875D02*
X+1123057Y-3019875D01*
X+589657Y-3014795D02*
X+625217Y-3014795D01*
X+711577Y-3014795D02*
X+752217Y-3014795D01*
X+808097Y-3014795D02*
X+843657Y-3014795D01*
X+874137Y-3014795D02*
X+945257Y-3014795D01*
X+980817Y-3014795D02*
X+1021457Y-3014795D01*
X+1072257Y-3014795D02*
X+1117977Y-3014795D01*
X+589657Y-3009715D02*
X+625217Y-3009715D01*
X+711577Y-3009715D02*
X+752217Y-3009715D01*
X+808097Y-3009715D02*
X+843657Y-3009715D01*
X+874137Y-3009715D02*
X+950337Y-3009715D01*
X+980817Y-3009715D02*
X+1021457Y-3009715D01*
X+1072257Y-3009715D02*
X+1112897Y-3009715D01*
X+589657Y-3004635D02*
X+625217Y-3004635D01*
X+711577Y-3004635D02*
X+752217Y-3004635D01*
X+808097Y-3004635D02*
X+843657Y-3004635D01*
X+874137Y-3004635D02*
X+909697Y-3004635D01*
X+914777Y-3004635D02*
X+950337Y-3004635D01*
X+980817Y-3004635D02*
X+1021457Y-3004635D01*
X+1072257Y-3004635D02*
X+1112897Y-3004635D01*
X+589657Y-2999555D02*
X+625217Y-2999555D01*
X+711577Y-2999555D02*
X+752217Y-2999555D01*
X+808097Y-2999555D02*
X+843657Y-2999555D01*
X+869057Y-2999555D02*
X+909697Y-2999555D01*
X+914777Y-2999555D02*
X+950337Y-2999555D01*
X+980817Y-2999555D02*
X+1021457Y-2999555D01*
X+1067177Y-2999555D02*
X+1107817Y-2999555D01*
X+589657Y-2994475D02*
X+625217Y-2994475D01*
X+711577Y-2994475D02*
X+752217Y-2994475D01*
X+808097Y-2994475D02*
X+843657Y-2994475D01*
X+869057Y-2994475D02*
X+909697Y-2994475D01*
X+919857Y-2994475D02*
X+955417Y-2994475D01*
X+980817Y-2994475D02*
X+1021457Y-2994475D01*
X+1067177Y-2994475D02*
X+1107817Y-2994475D01*
X+589657Y-2989395D02*
X+625217Y-2989395D01*
X+711577Y-2989395D02*
X+752217Y-2989395D01*
X+808097Y-2989395D02*
X+843657Y-2989395D01*
X+869057Y-2989395D02*
X+904617Y-2989395D01*
X+919857Y-2989395D02*
X+955417Y-2989395D01*
X+980817Y-2989395D02*
X+1021457Y-2989395D01*
X+1067177Y-2989395D02*
X+1107817Y-2989395D01*
X+589657Y-2984315D02*
X+625217Y-2984315D01*
X+711577Y-2984315D02*
X+752217Y-2984315D01*
X+808097Y-2984315D02*
X+843657Y-2984315D01*
X+863977Y-2984315D02*
X+904617Y-2984315D01*
X+919857Y-2984315D02*
X+955417Y-2984315D01*
X+980817Y-2984315D02*
X+1021457Y-2984315D01*
X+1067177Y-2984315D02*
X+1107817Y-2984315D01*
X+589657Y-2979235D02*
X+625217Y-2979235D01*
X+711577Y-2979235D02*
X+752217Y-2979235D01*
X+808097Y-2979235D02*
X+843657Y-2979235D01*
X+863977Y-2979235D02*
X+904617Y-2979235D01*
X+924937Y-2979235D02*
X+960497Y-2979235D01*
X+980817Y-2979235D02*
X+1021457Y-2979235D01*
X+1067177Y-2979235D02*
X+1107817Y-2979235D01*
X+589657Y-2974155D02*
X+625217Y-2974155D01*
X+711577Y-2974155D02*
X+752217Y-2974155D01*
X+808097Y-2974155D02*
X+843657Y-2974155D01*
X+863977Y-2974155D02*
X+899537Y-2974155D01*
X+924937Y-2974155D02*
X+960497Y-2974155D01*
X+980817Y-2974155D02*
X+1021457Y-2974155D01*
X+1067177Y-2974155D02*
X+1102737Y-2974155D01*
X+589657Y-2969075D02*
X+625217Y-2969075D01*
X+711577Y-2969075D02*
X+752217Y-2969075D01*
X+808097Y-2969075D02*
X+843657Y-2969075D01*
X+858897Y-2969075D02*
X+899537Y-2969075D01*
X+924937Y-2969075D02*
X+960497Y-2969075D01*
X+980817Y-2969075D02*
X+1021457Y-2969075D01*
X+1067177Y-2969075D02*
X+1102737Y-2969075D01*
X+589657Y-2963995D02*
X+752217Y-2963995D01*
X+808097Y-2963995D02*
X+843657Y-2963995D01*
X+858897Y-2963995D02*
X+899537Y-2963995D01*
X+930017Y-2963995D02*
X+965577Y-2963995D01*
X+980817Y-2963995D02*
X+1021457Y-2963995D01*
X+1067177Y-2963995D02*
X+1102737Y-2963995D01*
X+589657Y-2958915D02*
X+752217Y-2958915D01*
X+808097Y-2958915D02*
X+843657Y-2958915D01*
X+858897Y-2958915D02*
X+894457Y-2958915D01*
X+930017Y-2958915D02*
X+965577Y-2958915D01*
X+980817Y-2958915D02*
X+1021457Y-2958915D01*
X+1067177Y-2958915D02*
X+1102737Y-2958915D01*
X+589657Y-2953835D02*
X+752217Y-2953835D01*
X+808097Y-2953835D02*
X+843657Y-2953835D01*
X+853817Y-2953835D02*
X+894457Y-2953835D01*
X+930017Y-2953835D02*
X+965577Y-2953835D01*
X+980817Y-2953835D02*
X+1021457Y-2953835D01*
X+1067177Y-2953835D02*
X+1102737Y-2953835D01*
X+589657Y-2948755D02*
X+752217Y-2948755D01*
X+808097Y-2948755D02*
X+843657Y-2948755D01*
X+853817Y-2948755D02*
X+889377Y-2948755D01*
X+935097Y-2948755D02*
X+970657Y-2948755D01*
X+980817Y-2948755D02*
X+1021457Y-2948755D01*
X+1067177Y-2948755D02*
X+1102737Y-2948755D01*
X+589657Y-2943675D02*
X+752217Y-2943675D01*
X+808097Y-2943675D02*
X+843657Y-2943675D01*
X+853817Y-2943675D02*
X+889377Y-2943675D01*
X+935097Y-2943675D02*
X+970657Y-2943675D01*
X+980817Y-2943675D02*
X+1021457Y-2943675D01*
X+1067177Y-2943675D02*
X+1102737Y-2943675D01*
X+589657Y-2938595D02*
X+625217Y-2938595D01*
X+711577Y-2938595D02*
X+752217Y-2938595D01*
X+808097Y-2938595D02*
X+843657Y-2938595D01*
X+848737Y-2938595D02*
X+889377Y-2938595D01*
X+940177Y-2938595D02*
X+970657Y-2938595D01*
X+980817Y-2938595D02*
X+1021457Y-2938595D01*
X+1067177Y-2938595D02*
X+1107817Y-2938595D01*
X+589657Y-2933515D02*
X+625217Y-2933515D01*
X+711577Y-2933515D02*
X+752217Y-2933515D01*
X+808097Y-2933515D02*
X+843657Y-2933515D01*
X+848737Y-2933515D02*
X+884297Y-2933515D01*
X+940177Y-2933515D02*
X+975737Y-2933515D01*
X+980817Y-2933515D02*
X+1021457Y-2933515D01*
X+1067177Y-2933515D02*
X+1107817Y-2933515D01*
X+589657Y-2928435D02*
X+625217Y-2928435D01*
X+711577Y-2928435D02*
X+752217Y-2928435D01*
X+808097Y-2928435D02*
X+843657Y-2928435D01*
X+848737Y-2928435D02*
X+884297Y-2928435D01*
X+940177Y-2928435D02*
X+975737Y-2928435D01*
X+980817Y-2928435D02*
X+1021457Y-2928435D01*
X+1067177Y-2928435D02*
X+1107817Y-2928435D01*
X+589657Y-2923355D02*
X+625217Y-2923355D01*
X+711577Y-2923355D02*
X+752217Y-2923355D01*
X+808097Y-2923355D02*
X+884297Y-2923355D01*
X+945257Y-2923355D02*
X+975737Y-2923355D01*
X+980817Y-2923355D02*
X+1021457Y-2923355D01*
X+1067177Y-2923355D02*
X+1107817Y-2923355D01*
X+589657Y-2918275D02*
X+625217Y-2918275D01*
X+711577Y-2918275D02*
X+752217Y-2918275D01*
X+808097Y-2918275D02*
X+879217Y-2918275D01*
X+945257Y-2918275D02*
X+1021457Y-2918275D01*
X+1067177Y-2918275D02*
X+1112897Y-2918275D01*
X+589657Y-2913195D02*
X+625217Y-2913195D01*
X+711577Y-2913195D02*
X+752217Y-2913195D01*
X+808097Y-2913195D02*
X+879217Y-2913195D01*
X+945257Y-2913195D02*
X+1021457Y-2913195D01*
X+1072257Y-2913195D02*
X+1112897Y-2913195D01*
X+589657Y-2908115D02*
X+625217Y-2908115D01*
X+711577Y-2908115D02*
X+752217Y-2908115D01*
X+808097Y-2908115D02*
X+879217Y-2908115D01*
X+950337Y-2908115D02*
X+1021457Y-2908115D01*
X+1072257Y-2908115D02*
X+1117977Y-2908115D01*
X+589657Y-2903035D02*
X+625217Y-2903035D01*
X+711577Y-2903035D02*
X+752217Y-2903035D01*
X+808097Y-2903035D02*
X+874137Y-2903035D01*
X+950337Y-2903035D02*
X+1021457Y-2903035D01*
X+1072257Y-2903035D02*
X+1117977Y-2903035D01*
X+589657Y-2897955D02*
X+625217Y-2897955D01*
X+711577Y-2897955D02*
X+752217Y-2897955D01*
X+808097Y-2897955D02*
X+874137Y-2897955D01*
X+950337Y-2897955D02*
X+1021457Y-2897955D01*
X+1077337Y-2897955D02*
X+1123057Y-2897955D01*
X+589657Y-2892875D02*
X+625217Y-2892875D01*
X+711577Y-2892875D02*
X+752217Y-2892875D01*
X+808097Y-2892875D02*
X+874137Y-2892875D01*
X+955417Y-2892875D02*
X+1021457Y-2892875D01*
X+1077337Y-2892875D02*
X+1128137Y-2892875D01*
X+589657Y-2887795D02*
X+625217Y-2887795D01*
X+711577Y-2887795D02*
X+752217Y-2887795D01*
X+808097Y-2887795D02*
X+869057Y-2887795D01*
X+955417Y-2887795D02*
X+1021457Y-2887795D01*
X+1082417Y-2887795D02*
X+1133217Y-2887795D01*
X+589657Y-2882715D02*
X+625217Y-2882715D01*
X+711577Y-2882715D02*
X+752217Y-2882715D01*
X+808097Y-2882715D02*
X+869057Y-2882715D01*
X+955417Y-2882715D02*
X+1021457Y-2882715D01*
X+1087497Y-2882715D02*
X+1143377Y-2882715D01*
X+1199257Y-2882715D02*
X+1219577Y-2882715D01*
X+589657Y-2877635D02*
X+625217Y-2877635D01*
X+711577Y-2877635D02*
X+752217Y-2877635D01*
X+808097Y-2877635D02*
X+869057Y-2877635D01*
X+960497Y-2877635D02*
X+1021457Y-2877635D01*
X+1087497Y-2877635D02*
X+1153537Y-2877635D01*
X+1184017Y-2877635D02*
X+1219577Y-2877635D01*
X+589657Y-2872555D02*
X+625217Y-2872555D01*
X+711577Y-2872555D02*
X+752217Y-2872555D01*
X+808097Y-2872555D02*
X+863977Y-2872555D01*
X+960497Y-2872555D02*
X+1021457Y-2872555D01*
X+1092577Y-2872555D02*
X+1224657Y-2872555D01*
X+589657Y-2867475D02*
X+625217Y-2867475D01*
X+711577Y-2867475D02*
X+752217Y-2867475D01*
X+808097Y-2867475D02*
X+863977Y-2867475D01*
X+960497Y-2867475D02*
X+1021457Y-2867475D01*
X+1097657Y-2867475D02*
X+1224657Y-2867475D01*
X+589657Y-2862395D02*
X+625217Y-2862395D01*
X+711577Y-2862395D02*
X+752217Y-2862395D01*
X+808097Y-2862395D02*
X+863977Y-2862395D01*
X+965577Y-2862395D02*
X+1021457Y-2862395D01*
X+1107817Y-2862395D02*
X+1229737Y-2862395D01*
X+589657Y-2857315D02*
X+625217Y-2857315D01*
X+711577Y-2857315D02*
X+752217Y-2857315D01*
X+808097Y-2857315D02*
X+858897Y-2857315D01*
X+965577Y-2857315D02*
X+1021457Y-2857315D01*
X+1112897Y-2857315D02*
X+1229737Y-2857315D01*
X+589657Y-2852235D02*
X+625217Y-2852235D01*
X+711577Y-2852235D02*
X+752217Y-2852235D01*
X+808097Y-2852235D02*
X+858897Y-2852235D01*
X+965577Y-2852235D02*
X+1021457Y-2852235D01*
X+1128137Y-2852235D02*
X+1214497Y-2852235D01*
X+1148457Y-2847155D02*
X+1189097Y-2847155D01*
M02*
