G04 PROTEUS GERBER X2 FILE*
%TF.GenerationSoftware,Labcenter,Proteus,8.6-SP2-Build23525*%
%TF.CreationDate,2019-07-09T03:39:36+00:00*%
%TF.FileFunction,AssemblyDrawing,Top*%
%TF.FilePolarity,Positive*%
%TF.Part,Single*%
%FSLAX45Y45*%
%MOMM*%
G01*
%TA.AperFunction,Profile*%
%ADD14C,0.203200*%
%TA.AperFunction,Material*%
%ADD16C,0.203200*%
%ADD19C,0.393190*%
%ADD70C,0.359660*%
%ADD71C,0.386080*%
%ADD20C,0.171590*%
%ADD21C,0.224790*%
%ADD22C,0.199810*%
%TD.AperFunction*%
D14*
X-1432000Y-3830000D02*
X+8568000Y-3830000D01*
X+8568000Y+6170000D01*
X-1432000Y+6170000D01*
X-1432000Y-3830000D01*
D16*
X+2783840Y+5321840D02*
X+8138160Y+5321840D01*
X+8138160Y+5977160D01*
X+2783840Y+5977160D01*
X+2783840Y+5321840D01*
D19*
X+5067808Y+5531542D02*
X+4831894Y+5531542D01*
X+4831894Y+5767457D01*
X+5067808Y+5767457D01*
X+4831894Y+5649500D02*
X+4989170Y+5649500D01*
X+5146447Y+5570861D02*
X+5185766Y+5531542D01*
X+5343042Y+5531542D01*
X+5382361Y+5570861D01*
X+5382361Y+5610180D01*
X+5343042Y+5649500D01*
X+5185766Y+5649500D01*
X+5146447Y+5688819D01*
X+5146447Y+5728138D01*
X+5185766Y+5767457D01*
X+5343042Y+5767457D01*
X+5382361Y+5728138D01*
X+5461000Y+5531542D02*
X+5461000Y+5767457D01*
X+5657595Y+5767457D01*
X+5696914Y+5728138D01*
X+5696914Y+5688819D01*
X+5657595Y+5649500D01*
X+5461000Y+5649500D01*
X+5854191Y+5688819D02*
X+5932829Y+5767457D01*
X+5932829Y+5531542D01*
D16*
X+2791840Y+2906840D02*
X+8146160Y+2906840D01*
X+8146160Y+3562160D01*
X+2791840Y+3562160D01*
X+2791840Y+2906840D01*
D19*
X+5075808Y+3116542D02*
X+4839894Y+3116542D01*
X+4839894Y+3352457D01*
X+5075808Y+3352457D01*
X+4839894Y+3234500D02*
X+4997170Y+3234500D01*
X+5154447Y+3155861D02*
X+5193766Y+3116542D01*
X+5351042Y+3116542D01*
X+5390361Y+3155861D01*
X+5390361Y+3195180D01*
X+5351042Y+3234500D01*
X+5193766Y+3234500D01*
X+5154447Y+3273819D01*
X+5154447Y+3313138D01*
X+5193766Y+3352457D01*
X+5351042Y+3352457D01*
X+5390361Y+3313138D01*
X+5469000Y+3116542D02*
X+5469000Y+3352457D01*
X+5665595Y+3352457D01*
X+5704914Y+3313138D01*
X+5704914Y+3273819D01*
X+5665595Y+3234500D01*
X+5469000Y+3234500D01*
X+5822872Y+3313138D02*
X+5862191Y+3352457D01*
X+5980148Y+3352457D01*
X+6019467Y+3313138D01*
X+6019467Y+3273819D01*
X+5980148Y+3234500D01*
X+5862191Y+3234500D01*
X+5822872Y+3195180D01*
X+5822872Y+3116542D01*
X+6019467Y+3116542D01*
D16*
X+587340Y+1891840D02*
X+1242660Y+1891840D01*
X+1242660Y+5976160D01*
X+587340Y+5976160D01*
X+587340Y+1891840D01*
D19*
X+1032958Y+2675788D02*
X+875681Y+2675788D01*
X+797043Y+2754426D01*
X+797043Y+2833064D01*
X+875681Y+2911702D01*
X+1032958Y+2911702D01*
X+954320Y+2675788D02*
X+954320Y+2911702D01*
X+1032958Y+2990341D02*
X+797043Y+2990341D01*
X+797043Y+3186936D01*
X+836362Y+3226255D01*
X+875681Y+3226255D01*
X+915000Y+3186936D01*
X+915000Y+2990341D01*
X+915000Y+3186936D02*
X+954320Y+3226255D01*
X+1032958Y+3226255D01*
X+1032958Y+3304894D02*
X+797043Y+3304894D01*
X+797043Y+3462170D01*
X+875681Y+3540808D01*
X+954320Y+3540808D01*
X+1032958Y+3462170D01*
X+1032958Y+3304894D01*
X+797043Y+3619447D02*
X+993639Y+3619447D01*
X+1032958Y+3658766D01*
X+1032958Y+3816042D01*
X+993639Y+3855361D01*
X+797043Y+3855361D01*
X+797043Y+3973319D02*
X+797043Y+4130595D01*
X+797043Y+4051957D02*
X+1032958Y+4051957D01*
X+1032958Y+3973319D02*
X+1032958Y+4130595D01*
X+1032958Y+4248553D02*
X+797043Y+4248553D01*
X+1032958Y+4484467D01*
X+797043Y+4484467D01*
X+875681Y+4563106D02*
X+797043Y+4641744D01*
X+797043Y+4720382D01*
X+875681Y+4799020D01*
X+954320Y+4799020D01*
X+1032958Y+4720382D01*
X+1032958Y+4641744D01*
X+954320Y+4563106D01*
X+875681Y+4563106D01*
X+836362Y+4916978D02*
X+797043Y+4956297D01*
X+797043Y+5074254D01*
X+836362Y+5113573D01*
X+875681Y+5113573D01*
X+915000Y+5074254D01*
X+915000Y+4956297D01*
X+954320Y+4916978D01*
X+1032958Y+4916978D01*
X+1032958Y+5113573D01*
D16*
X-1056660Y+1882840D02*
X-401340Y+1882840D01*
X-401340Y+5967160D01*
X-1056660Y+5967160D01*
X-1056660Y+1882840D01*
D19*
X-611042Y+2666788D02*
X-768319Y+2666788D01*
X-846957Y+2745426D01*
X-846957Y+2824064D01*
X-768319Y+2902702D01*
X-611042Y+2902702D01*
X-689680Y+2666788D02*
X-689680Y+2902702D01*
X-611042Y+2981341D02*
X-846957Y+2981341D01*
X-846957Y+3177936D01*
X-807638Y+3217255D01*
X-768319Y+3217255D01*
X-729000Y+3177936D01*
X-729000Y+2981341D01*
X-729000Y+3177936D02*
X-689680Y+3217255D01*
X-611042Y+3217255D01*
X-611042Y+3295894D02*
X-846957Y+3295894D01*
X-846957Y+3453170D01*
X-768319Y+3531808D01*
X-689680Y+3531808D01*
X-611042Y+3453170D01*
X-611042Y+3295894D01*
X-846957Y+3610447D02*
X-650361Y+3610447D01*
X-611042Y+3649766D01*
X-611042Y+3807042D01*
X-650361Y+3846361D01*
X-846957Y+3846361D01*
X-846957Y+3964319D02*
X-846957Y+4121595D01*
X-846957Y+4042957D02*
X-611042Y+4042957D01*
X-611042Y+3964319D02*
X-611042Y+4121595D01*
X-611042Y+4239553D02*
X-846957Y+4239553D01*
X-611042Y+4475467D01*
X-846957Y+4475467D01*
X-768319Y+4554106D02*
X-846957Y+4632744D01*
X-846957Y+4711382D01*
X-768319Y+4790020D01*
X-689680Y+4790020D01*
X-611042Y+4711382D01*
X-611042Y+4632744D01*
X-689680Y+4554106D01*
X-768319Y+4554106D01*
X-768319Y+4947297D02*
X-846957Y+5025935D01*
X-611042Y+5025935D01*
D16*
X+3130840Y-1696160D02*
X+4929160Y-1696160D01*
X+4929160Y-1040840D01*
X+3130840Y-1040840D01*
X+3130840Y-1696160D01*
D70*
X+3454538Y-1440433D02*
X+3490504Y-1476400D01*
X+3634369Y-1476400D01*
X+3670336Y-1440433D01*
X+3670336Y-1404467D01*
X+3634369Y-1368500D01*
X+3490504Y-1368500D01*
X+3454538Y-1332534D01*
X+3454538Y-1296568D01*
X+3490504Y-1260601D01*
X+3634369Y-1260601D01*
X+3670336Y-1296568D01*
X+3742269Y-1476400D02*
X+3742269Y-1260601D01*
X+3922100Y-1260601D01*
X+3958067Y-1296568D01*
X+3958067Y-1332534D01*
X+3922100Y-1368500D01*
X+3958067Y-1404467D01*
X+3958067Y-1440433D01*
X+3922100Y-1476400D01*
X+3742269Y-1476400D01*
X+3742269Y-1368500D02*
X+3922100Y-1368500D01*
X+4030000Y-1260601D02*
X+4245798Y-1476400D01*
X+4030000Y-1476400D02*
X+4245798Y-1260601D01*
X+4389663Y-1332534D02*
X+4461596Y-1260601D01*
X+4461596Y-1476400D01*
D16*
X+3130840Y-3598160D02*
X+4929160Y-3598160D01*
X+4929160Y-2942840D01*
X+3130840Y-2942840D01*
X+3130840Y-3598160D01*
D70*
X+3454538Y-3342433D02*
X+3490504Y-3378400D01*
X+3634369Y-3378400D01*
X+3670336Y-3342433D01*
X+3670336Y-3306467D01*
X+3634369Y-3270500D01*
X+3490504Y-3270500D01*
X+3454538Y-3234534D01*
X+3454538Y-3198568D01*
X+3490504Y-3162601D01*
X+3634369Y-3162601D01*
X+3670336Y-3198568D01*
X+3742269Y-3378400D02*
X+3742269Y-3162601D01*
X+3922100Y-3162601D01*
X+3958067Y-3198568D01*
X+3958067Y-3234534D01*
X+3922100Y-3270500D01*
X+3958067Y-3306467D01*
X+3958067Y-3342433D01*
X+3922100Y-3378400D01*
X+3742269Y-3378400D01*
X+3742269Y-3270500D02*
X+3922100Y-3270500D01*
X+4030000Y-3162601D02*
X+4245798Y-3378400D01*
X+4030000Y-3378400D02*
X+4245798Y-3162601D01*
X+4353697Y-3198568D02*
X+4389663Y-3162601D01*
X+4497562Y-3162601D01*
X+4533529Y-3198568D01*
X+4533529Y-3234534D01*
X+4497562Y-3270500D01*
X+4389663Y-3270500D01*
X+4353697Y-3306467D01*
X+4353697Y-3378400D01*
X+4533529Y-3378400D01*
D16*
X+5074840Y-1689160D02*
X+6873160Y-1689160D01*
X+6873160Y-1033840D01*
X+5074840Y-1033840D01*
X+5074840Y-1689160D01*
D70*
X+5398538Y-1433433D02*
X+5434504Y-1469400D01*
X+5578369Y-1469400D01*
X+5614336Y-1433433D01*
X+5614336Y-1397467D01*
X+5578369Y-1361500D01*
X+5434504Y-1361500D01*
X+5398538Y-1325534D01*
X+5398538Y-1289568D01*
X+5434504Y-1253601D01*
X+5578369Y-1253601D01*
X+5614336Y-1289568D01*
X+5686269Y-1469400D02*
X+5686269Y-1253601D01*
X+5866100Y-1253601D01*
X+5902067Y-1289568D01*
X+5902067Y-1325534D01*
X+5866100Y-1361500D01*
X+5902067Y-1397467D01*
X+5902067Y-1433433D01*
X+5866100Y-1469400D01*
X+5686269Y-1469400D01*
X+5686269Y-1361500D02*
X+5866100Y-1361500D01*
X+5974000Y-1253601D02*
X+6189798Y-1469400D01*
X+5974000Y-1469400D02*
X+6189798Y-1253601D01*
X+6297697Y-1289568D02*
X+6333663Y-1253601D01*
X+6441562Y-1253601D01*
X+6477529Y-1289568D01*
X+6477529Y-1325534D01*
X+6441562Y-1361500D01*
X+6477529Y-1397467D01*
X+6477529Y-1433433D01*
X+6441562Y-1469400D01*
X+6333663Y-1469400D01*
X+6297697Y-1433433D01*
X+6369630Y-1361500D02*
X+6441562Y-1361500D01*
D16*
X+5068840Y-3601160D02*
X+6867160Y-3601160D01*
X+6867160Y-2945840D01*
X+5068840Y-2945840D01*
X+5068840Y-3601160D01*
D70*
X+5392538Y-3345433D02*
X+5428504Y-3381400D01*
X+5572369Y-3381400D01*
X+5608336Y-3345433D01*
X+5608336Y-3309467D01*
X+5572369Y-3273500D01*
X+5428504Y-3273500D01*
X+5392538Y-3237534D01*
X+5392538Y-3201568D01*
X+5428504Y-3165601D01*
X+5572369Y-3165601D01*
X+5608336Y-3201568D01*
X+5680269Y-3381400D02*
X+5680269Y-3165601D01*
X+5860100Y-3165601D01*
X+5896067Y-3201568D01*
X+5896067Y-3237534D01*
X+5860100Y-3273500D01*
X+5896067Y-3309467D01*
X+5896067Y-3345433D01*
X+5860100Y-3381400D01*
X+5680269Y-3381400D01*
X+5680269Y-3273500D02*
X+5860100Y-3273500D01*
X+5968000Y-3165601D02*
X+6183798Y-3381400D01*
X+5968000Y-3381400D02*
X+6183798Y-3165601D01*
X+6471529Y-3309467D02*
X+6255731Y-3309467D01*
X+6399596Y-3165601D01*
X+6399596Y-3381400D01*
D16*
X-1043160Y-3703160D02*
X+501160Y-3703160D01*
X+501160Y-3047840D01*
X-1043160Y-3047840D01*
X-1043160Y-3703160D01*
D71*
X-734296Y-3491324D02*
X-734296Y-3259676D01*
X-502648Y-3259676D02*
X-502648Y-3491324D01*
X-734296Y-3375500D02*
X-502648Y-3375500D01*
X-425432Y-3491324D02*
X-425432Y-3259676D01*
X-309608Y-3375500D01*
X-193784Y-3259676D01*
X-193784Y-3491324D01*
X+115080Y-3452716D02*
X+76472Y-3491324D01*
X-39352Y-3491324D01*
X-116568Y-3414108D01*
X-116568Y-3336892D01*
X-39352Y-3259676D01*
X+76472Y-3259676D01*
X+115080Y-3298284D01*
D16*
X+959040Y-2091160D02*
X+2503360Y-2091160D01*
X+2503360Y-1435840D01*
X+959040Y-1435840D01*
X+959040Y-2091160D01*
D20*
X+1182112Y-1814977D02*
X+1182112Y-1712023D01*
X+1267907Y-1712023D01*
X+1285066Y-1729182D01*
X+1285066Y-1746341D01*
X+1267907Y-1763500D01*
X+1182112Y-1763500D01*
X+1319384Y-1712023D02*
X+1319384Y-1814977D01*
X+1422338Y-1814977D01*
X+1456656Y-1712023D02*
X+1456656Y-1797818D01*
X+1473815Y-1814977D01*
X+1542451Y-1814977D01*
X+1559610Y-1797818D01*
X+1559610Y-1712023D01*
X+1662564Y-1780659D02*
X+1696882Y-1780659D01*
X+1696882Y-1814977D01*
X+1628246Y-1814977D01*
X+1593928Y-1780659D01*
X+1593928Y-1746341D01*
X+1628246Y-1712023D01*
X+1679723Y-1712023D01*
X+1696882Y-1729182D01*
X+1731200Y-1832136D02*
X+1834154Y-1832136D01*
X+1937108Y-1780659D02*
X+1971426Y-1780659D01*
X+1971426Y-1814977D01*
X+1902790Y-1814977D01*
X+1868472Y-1780659D01*
X+1868472Y-1746341D01*
X+1902790Y-1712023D01*
X+1954267Y-1712023D01*
X+1971426Y-1729182D01*
X+2005744Y-1814977D02*
X+2005744Y-1712023D01*
X+2091539Y-1712023D01*
X+2108698Y-1729182D01*
X+2108698Y-1746341D01*
X+2091539Y-1763500D01*
X+2005744Y-1763500D01*
X+2143016Y-1797818D02*
X+2160175Y-1814977D01*
X+2228811Y-1814977D01*
X+2245970Y-1797818D01*
X+2245970Y-1780659D01*
X+2228811Y-1763500D01*
X+2160175Y-1763500D01*
X+2143016Y-1746341D01*
X+2143016Y-1729182D01*
X+2160175Y-1712023D01*
X+2228811Y-1712023D01*
X+2245970Y-1729182D01*
D16*
X+4659140Y-181140D02*
X+6457460Y-181140D01*
X+6457460Y+601180D01*
X+4659140Y+601180D01*
X+4659140Y-181140D01*
D21*
X+4928888Y+142583D02*
X+4928888Y+277457D01*
X+5041283Y+277457D01*
X+5063762Y+254978D01*
X+5063762Y+232499D01*
X+5041283Y+210020D01*
X+4928888Y+210020D01*
X+5108720Y+277457D02*
X+5108720Y+142583D01*
X+5243594Y+142583D01*
X+5288552Y+277457D02*
X+5288552Y+165062D01*
X+5311031Y+142583D01*
X+5400947Y+142583D01*
X+5423426Y+165062D01*
X+5423426Y+277457D01*
X+5558300Y+187541D02*
X+5603258Y+187541D01*
X+5603258Y+142583D01*
X+5513342Y+142583D01*
X+5468384Y+187541D01*
X+5468384Y+232499D01*
X+5513342Y+277457D01*
X+5580779Y+277457D01*
X+5603258Y+254978D01*
X+5648216Y+120104D02*
X+5783090Y+120104D01*
X+5828048Y+142583D02*
X+5828048Y+277457D01*
X+5917964Y+277457D01*
X+5962922Y+232499D01*
X+5962922Y+187541D01*
X+5917964Y+142583D01*
X+5828048Y+142583D01*
X+6030359Y+277457D02*
X+6120275Y+277457D01*
X+6075317Y+277457D02*
X+6075317Y+142583D01*
X+6030359Y+142583D02*
X+6120275Y+142583D01*
D16*
X+2773140Y-175140D02*
X+4571460Y-175140D01*
X+4571460Y+607180D01*
X+2773140Y+607180D01*
X+2773140Y-175140D01*
D22*
X+3032900Y+156076D02*
X+3032900Y+275964D01*
X+3132806Y+275964D01*
X+3152787Y+255983D01*
X+3152787Y+236001D01*
X+3132806Y+216020D01*
X+3032900Y+216020D01*
X+3192750Y+275964D02*
X+3192750Y+156076D01*
X+3312637Y+156076D01*
X+3352600Y+275964D02*
X+3352600Y+176057D01*
X+3372581Y+156076D01*
X+3452506Y+156076D01*
X+3472487Y+176057D01*
X+3472487Y+275964D01*
X+3592375Y+196039D02*
X+3632337Y+196039D01*
X+3632337Y+156076D01*
X+3552412Y+156076D01*
X+3512450Y+196039D01*
X+3512450Y+236001D01*
X+3552412Y+275964D01*
X+3612356Y+275964D01*
X+3632337Y+255983D01*
X+3672300Y+136095D02*
X+3792187Y+136095D01*
X+3832150Y+196039D02*
X+3832150Y+176057D01*
X+3852131Y+156076D01*
X+3932056Y+156076D01*
X+3952037Y+176057D01*
X+3952037Y+275964D01*
X+3992000Y+236001D02*
X+4031962Y+275964D01*
X+4071925Y+275964D01*
X+4111887Y+236001D01*
X+4111887Y+196039D01*
X+4071925Y+156076D01*
X+4031962Y+156076D01*
X+3992000Y+196039D01*
X+3992000Y+236001D01*
X+4271737Y+275964D02*
X+4151850Y+156076D01*
X+4151850Y+275964D02*
X+4211793Y+216020D01*
D16*
X+6532140Y-192140D02*
X+8330460Y-192140D01*
X+8330460Y+590180D01*
X+6532140Y+590180D01*
X+6532140Y-192140D01*
D22*
X+6791900Y+139076D02*
X+6791900Y+258964D01*
X+6891806Y+258964D01*
X+6911787Y+238983D01*
X+6911787Y+219001D01*
X+6891806Y+199020D01*
X+6791900Y+199020D01*
X+6951750Y+258964D02*
X+6951750Y+139076D01*
X+7071637Y+139076D01*
X+7111600Y+258964D02*
X+7111600Y+159057D01*
X+7131581Y+139076D01*
X+7211506Y+139076D01*
X+7231487Y+159057D01*
X+7231487Y+258964D01*
X+7351375Y+179039D02*
X+7391337Y+179039D01*
X+7391337Y+139076D01*
X+7311412Y+139076D01*
X+7271450Y+179039D01*
X+7271450Y+219001D01*
X+7311412Y+258964D01*
X+7371356Y+258964D01*
X+7391337Y+238983D01*
X+7431300Y+119095D02*
X+7551187Y+119095D01*
X+7591150Y+139076D02*
X+7591150Y+258964D01*
X+7691056Y+258964D01*
X+7711037Y+238983D01*
X+7711037Y+219001D01*
X+7691056Y+199020D01*
X+7591150Y+199020D01*
X+7751000Y+258964D02*
X+7751000Y+139076D01*
X+7810943Y+199020D01*
X+7870887Y+139076D01*
X+7870887Y+258964D01*
X+7910850Y+139076D02*
X+7910850Y+258964D01*
X+7970793Y+199020D01*
X+8030737Y+258964D01*
X+8030737Y+139076D01*
D16*
X+7302820Y-2806860D02*
X+8085140Y-2806860D01*
X+8085140Y-1008540D01*
X+7302820Y-1008540D01*
X+7302820Y-2806860D01*
D21*
X+7761417Y-2537112D02*
X+7626543Y-2537112D01*
X+7626543Y-2424717D01*
X+7649022Y-2402238D01*
X+7671501Y-2402238D01*
X+7693980Y-2424717D01*
X+7693980Y-2537112D01*
X+7626543Y-2357280D02*
X+7761417Y-2357280D01*
X+7761417Y-2222406D01*
X+7626543Y-2177448D02*
X+7738938Y-2177448D01*
X+7761417Y-2154969D01*
X+7761417Y-2065053D01*
X+7738938Y-2042574D01*
X+7626543Y-2042574D01*
X+7716459Y-1907700D02*
X+7716459Y-1862742D01*
X+7761417Y-1862742D01*
X+7761417Y-1952658D01*
X+7716459Y-1997616D01*
X+7671501Y-1997616D01*
X+7626543Y-1952658D01*
X+7626543Y-1885221D01*
X+7649022Y-1862742D01*
X+7761417Y-1817784D02*
X+7626543Y-1817784D01*
X+7626543Y-1705389D01*
X+7649022Y-1682910D01*
X+7671501Y-1682910D01*
X+7693980Y-1705389D01*
X+7693980Y-1817784D01*
X+7626543Y-1637952D02*
X+7761417Y-1637952D01*
X+7693980Y-1570515D01*
X+7761417Y-1503078D01*
X+7626543Y-1503078D01*
X+7761417Y-1458120D02*
X+7626543Y-1458120D01*
X+7626543Y-1345725D01*
X+7649022Y-1323246D01*
X+7671501Y-1323246D01*
X+7693980Y-1345725D01*
X+7693980Y-1458120D01*
X+7693980Y-1345725D02*
X+7716459Y-1323246D01*
X+7761417Y-1323246D01*
D16*
X+34140Y-173140D02*
X+1832460Y-173140D01*
X+1832460Y+609180D01*
X+34140Y+609180D01*
X+34140Y-173140D01*
D22*
X+293900Y+158076D02*
X+293900Y+277964D01*
X+393806Y+277964D01*
X+413787Y+257983D01*
X+413787Y+238001D01*
X+393806Y+218020D01*
X+293900Y+218020D01*
X+453750Y+277964D02*
X+453750Y+158076D01*
X+573637Y+158076D01*
X+613600Y+277964D02*
X+613600Y+178057D01*
X+633581Y+158076D01*
X+713506Y+158076D01*
X+733487Y+178057D01*
X+733487Y+277964D01*
X+853375Y+198039D02*
X+893337Y+198039D01*
X+893337Y+158076D01*
X+813412Y+158076D01*
X+773450Y+198039D01*
X+773450Y+238001D01*
X+813412Y+277964D01*
X+873356Y+277964D01*
X+893337Y+257983D01*
X+933300Y+138095D02*
X+1053187Y+138095D01*
X+1093150Y+158076D02*
X+1093150Y+277964D01*
X+1193056Y+277964D01*
X+1213037Y+257983D01*
X+1213037Y+238001D01*
X+1193056Y+218020D01*
X+1093150Y+218020D01*
X+1193056Y+218020D02*
X+1213037Y+198039D01*
X+1213037Y+158076D01*
X+1253000Y+277964D02*
X+1253000Y+158076D01*
X+1372887Y+158076D01*
X+1532737Y+277964D02*
X+1412850Y+158076D01*
X+1412850Y+277964D02*
X+1472793Y+218020D01*
M02*
