G04 PROTEUS GERBER X2 FILE*
%TF.GenerationSoftware,Labcenter,Proteus,8.6-SP2-Build23525*%
%TF.CreationDate,2019-07-09T03:39:36+00:00*%
%TF.FileFunction,Plated,0,1,PTH*%
%TF.FilePolarity,Positive*%
%TF.Part,Single*%
%FSLAX45Y45*%
%MOMM*%
G01*
%TA.AperFunction,ComponentDrill*%
%ADD23C,1.016000*%
%TA.AperFunction,ComponentDrill*%
%ADD24C,1.778000*%
%TD.AperFunction*%
D23*
X+3048000Y+5586000D03*
X+3302000Y+5586000D03*
X+3556000Y+5586000D03*
X+3810000Y+5586000D03*
X+4064000Y+5586000D03*
X+4318000Y+5586000D03*
X+4572000Y+5586000D03*
X+4826000Y+5586000D03*
X+5080000Y+5586000D03*
X+5334000Y+5586000D03*
X+5588000Y+5586000D03*
X+5842000Y+5586000D03*
X+6096000Y+5586000D03*
X+6350000Y+5586000D03*
X+6604000Y+5586000D03*
X+6858000Y+5586000D03*
X+7112000Y+5586000D03*
X+7366000Y+5586000D03*
X+7620000Y+5586000D03*
X+7874000Y+5586000D03*
X+7882000Y+3298000D03*
X+7628000Y+3298000D03*
X+7374000Y+3298000D03*
X+7120000Y+3298000D03*
X+6866000Y+3298000D03*
X+6612000Y+3298000D03*
X+6358000Y+3298000D03*
X+6104000Y+3298000D03*
X+5850000Y+3298000D03*
X+5596000Y+3298000D03*
X+5342000Y+3298000D03*
X+5088000Y+3298000D03*
X+4834000Y+3298000D03*
X+4580000Y+3298000D03*
X+4326000Y+3298000D03*
X+4072000Y+3298000D03*
X+3818000Y+3298000D03*
X+3564000Y+3298000D03*
X+3310000Y+3298000D03*
X+3056000Y+3298000D03*
X+851500Y+5712000D03*
X+851500Y+5458000D03*
X+851500Y+5204000D03*
X+851500Y+4950000D03*
X+851500Y+4696000D03*
X+851500Y+4442000D03*
X+851500Y+4188000D03*
X+851500Y+3934000D03*
X+851500Y+3680000D03*
X+851500Y+3426000D03*
X+851500Y+3172000D03*
X+851500Y+2918000D03*
X+851500Y+2664000D03*
X+851500Y+2410000D03*
X+851500Y+2156000D03*
X-665500Y+2147000D03*
X-665500Y+2401000D03*
X-665500Y+2655000D03*
X-665500Y+2909000D03*
X-665500Y+3163000D03*
X-665500Y+3417000D03*
X-665500Y+3671000D03*
X-665500Y+3925000D03*
X-665500Y+4179000D03*
X-665500Y+4433000D03*
X-665500Y+4687000D03*
X-665500Y+4941000D03*
X-665500Y+5195000D03*
X-665500Y+5449000D03*
X-665500Y+5703000D03*
X+3395000Y-1432000D03*
X+3649000Y-1432000D03*
X+3903000Y-1432000D03*
X+4157000Y-1432000D03*
X+4411000Y-1432000D03*
X+4665000Y-1432000D03*
X+4665000Y-3207000D03*
X+4411000Y-3207000D03*
X+4157000Y-3207000D03*
X+3903000Y-3207000D03*
X+3649000Y-3207000D03*
X+3395000Y-3207000D03*
X+5339000Y-1425000D03*
X+5593000Y-1425000D03*
X+5847000Y-1425000D03*
X+6101000Y-1425000D03*
X+6355000Y-1425000D03*
X+6609000Y-1425000D03*
X+6603000Y-3210000D03*
X+6349000Y-3210000D03*
X+6095000Y-3210000D03*
X+5841000Y-3210000D03*
X+5587000Y-3210000D03*
X+5333000Y-3210000D03*
X+237000Y-3312000D03*
X-17000Y-3312000D03*
X-271000Y-3312000D03*
X-525000Y-3312000D03*
X-779000Y-3312000D03*
X+2239200Y-1700000D03*
X+1985200Y-1700000D03*
X+1731200Y-1700000D03*
X+1477200Y-1700000D03*
X+1223200Y-1700000D03*
D24*
X+6206000Y+304000D03*
X+5809760Y+304000D03*
X+5413520Y+304000D03*
X+5017280Y+304000D03*
X+4320000Y+310000D03*
X+3923760Y+310000D03*
X+3527520Y+310000D03*
X+3131280Y+310000D03*
X+8079000Y+293000D03*
X+7682760Y+293000D03*
X+7286520Y+293000D03*
X+6890280Y+293000D03*
X+7600000Y-1260000D03*
X+7600000Y-1656240D03*
X+7600000Y-2052480D03*
X+7600000Y-2448720D03*
X+1581000Y+312000D03*
X+1184760Y+312000D03*
X+788520Y+312000D03*
X+392280Y+312000D03*
M02*
