%FSLAX44Y44*%
%OFA0.0000B0.0000*%
%SFA1B1*%
%MOMM*%
%ADD10C,0.0000X0.0000X0.0000*%
%ADD11C,0.2032X0.0000X0.0000*%
%ADD12C,2.0320X0.0000X0.0000*%
%LNTOP*%
%LPD*%
G54D10*
X-1424216Y794816D2*
X-1424216Y-494016D1*
X134516Y794816D2*
X-1424216Y794816D1*
X134516Y-494016D2*
X134516Y794816D1*
X-1424216Y-494016D2*
X134516Y-494016D1*
G54D11*
X-1423200Y793800D2*
X-1423200Y-493000D1*
X133500Y793800D2*
X-1423200Y793800D1*
X133500Y-493000D2*
X133500Y793800D1*
X-1423200Y-493000D2*
X133500Y-493000D1*
G54D12*
X-1074200Y575000D3*
X-1099600Y575000D3*
X-1125000Y575000D3*
X-1150400Y575000D3*
X-1175800Y575000D3*
X-236000Y575000D3*
X-261400Y575000D3*
X-286800Y575000D3*
X-312200Y575000D3*
X-337600Y575000D3*
X-1052900Y69800D3*
X-1078300Y69800D3*
X-1103700Y69800D3*
X-1129100Y69800D3*
X-1154500Y69800D3*
X-1179900Y69800D3*
X-870800Y575000D3*
X-896200Y575000D3*
X-921600Y575000D3*
X-947000Y575000D3*
X-972400Y575000D3*
X-675800Y-100000D3*
X-650400Y-100000D3*
X-625000Y-100000D3*
X-599600Y-100000D3*
X-574200Y-100000D3*
X-667800Y575000D3*
X-693200Y575000D3*
X-718600Y575000D3*
X-744000Y575000D3*
X-769400Y575000D3*
X-1179900Y-108420D3*
X-1154500Y-108420D3*
X-1129100Y-108420D3*
X-1103700Y-108420D3*
X-1078300Y-108420D3*
X-1052900Y-108420D3*
X-439400Y575000D3*
X-464800Y575000D3*
X-490200Y575000D3*
X-515600Y575000D3*
X-541000Y575000D3*
X-566400Y575000D3*
X-400000Y251200D3*
X-400000Y225800D3*
X-400000Y200400D3*
X-400000Y175000D3*
X-400000Y149600D3*
X-400000Y124200D3*
X-400000Y98800D3*
X-400000Y73400D3*
X-400000Y48000D3*
X-400000Y22600D3*
X-400000Y-2800D3*
X-400000Y-28200D3*
X-400000Y-53600D3*
X-400000Y-79000D3*
X-400000Y-104400D3*
X-248070Y-102590D3*
X-248070Y-77190D3*
X-248070Y-51790D3*
X-248070Y-26390D3*
X-248070Y-990D3*
X-248070Y24410D3*
X-248070Y49810D3*
X-248070Y75210D3*
X-248070Y100610D3*
X-248070Y126010D3*
X-248070Y151410D3*
X-248070Y176810D3*
X-248070Y202210D3*
X-248070Y227610D3*
X-248070Y253010D3*
X-1179800Y209600D3*
X-1154400Y209600D3*
X-1129000Y209600D3*
X-1103600Y209600D3*
X-1078200Y209600D3*
X-1052800Y209600D3*
X-1027400Y209600D3*
X-1002000Y209600D3*
X-976600Y209600D3*
X-951200Y209600D3*
X-925800Y209600D3*
X-900400Y209600D3*
X-875000Y209600D3*
X-849600Y209600D3*
X-824200Y209600D3*
X-798800Y209600D3*
X-773400Y209600D3*
X-748000Y209600D3*
X-722600Y209600D3*
X-697200Y209600D3*
X-695200Y436600D3*
X-720600Y436600D3*
X-746000Y436600D3*
X-771400Y436600D3*
X-796800Y436600D3*
X-822200Y436600D3*
X-847600Y436600D3*
X-873000Y436600D3*
X-898400Y436600D3*
X-923800Y436600D3*
X-949200Y436600D3*
X-974600Y436600D3*
X-1000000Y436600D3*
X-1025400Y436600D3*
X-1050800Y436600D3*
X-1076200Y436600D3*
X-1101600Y436600D3*
X-1127000Y436600D3*
X-1152400Y436600D3*
X-1177800Y436600D3*
M02*
