%FSLAX44Y44*%
%OFA0.0000B0.0000*%
%SFA1B1*%
%MOMM*%
%ADD10C,0.0000X0.0000X0.0000*%
%ADD11C,0.2032X0.0000X0.0000*%
%LNTOP_outline*%
%LPD*%
G54D10*
X-1047784Y614116D2*
X-1202216Y614116D1*
X-1047784Y548584D2*
X-1047784Y614116D1*
X-1202216Y548584D2*
X-1047784Y548584D1*
X-1202216Y614116D2*
X-1202216Y548584D1*
X-209584Y614116D2*
X-364016Y614116D1*
X-209584Y548584D2*
X-209584Y614116D1*
X-364016Y548584D2*
X-209584Y548584D1*
X-364016Y614116D2*
X-364016Y548584D1*
X-1026484Y108916D2*
X-1206316Y108916D1*
X-1026484Y43384D2*
X-1026484Y108916D1*
X-1206316Y43384D2*
X-1026484Y43384D1*
X-1206316Y108916D2*
X-1206316Y43384D1*
X-844384Y614116D2*
X-998816Y614116D1*
X-844384Y548584D2*
X-844384Y614116D1*
X-998816Y548584D2*
X-844384Y548584D1*
X-998816Y614116D2*
X-998816Y548584D1*
X-702216Y-139116D2*
X-547784Y-139116D1*
X-702216Y-73584D2*
X-702216Y-139116D1*
X-547784Y-73584D2*
X-702216Y-73584D1*
X-547784Y-139116D2*
X-547784Y-73584D1*
X-641384Y614116D2*
X-795816Y614116D1*
X-641384Y548584D2*
X-641384Y614116D1*
X-795816Y548584D2*
X-641384Y548584D1*
X-795816Y614116D2*
X-795816Y548584D1*
X-1206316Y-147536D2*
X-1026484Y-147536D1*
X-1206316Y-82004D2*
X-1206316Y-147536D1*
X-1026484Y-82004D2*
X-1206316Y-82004D1*
X-1026484Y-147536D2*
X-1026484Y-82004D1*
X-412984Y614116D2*
X-592816Y614116D1*
X-412984Y548584D2*
X-412984Y614116D1*
X-592816Y548584D2*
X-412984Y548584D1*
X-592816Y614116D2*
X-592816Y548584D1*
X-373584Y-130816D2*
X-439116Y-130816D1*
X-373584Y277616D2*
X-373584Y-130816D1*
X-439116Y277616D2*
X-373584Y277616D1*
X-439116Y-130816D2*
X-439116Y277616D1*
X-274486Y279426D2*
X-208954Y279426D1*
X-274486Y-129006D2*
X-274486Y279426D1*
X-208954Y-129006D2*
X-274486Y-129006D1*
X-208954Y279426D2*
X-208954Y-129006D1*
X-1206216Y170484D2*
X-670784Y170484D1*
X-1206216Y236016D2*
X-1206216Y170484D1*
X-670784Y236016D2*
X-1206216Y236016D1*
X-670784Y170484D2*
X-670784Y236016D1*
X-668784Y475716D2*
X-1204216Y475716D1*
X-668784Y410184D2*
X-668784Y475716D1*
X-1204216Y410184D2*
X-668784Y410184D1*
X-1204216Y475716D2*
X-1204216Y410184D1*
X-1424216Y794816D2*
X-1424216Y-494016D1*
X134516Y794816D2*
X-1424216Y794816D1*
X134516Y-494016D2*
X134516Y794816D1*
X-1424216Y-494016D2*
X134516Y-494016D1*
G54D11*
X-1423200Y793800D2*
X-1423200Y-493000D1*
X133500Y793800D2*
X-1423200Y793800D1*
X133500Y-493000D2*
X133500Y793800D1*
X-1423200Y-493000D2*
X133500Y-493000D1*
M02*
